<?xml version="1.0" standalone="no"?>
<!DOCTYPE svg PUBLIC "-//W3C//DTD SVG 1.1//EN" "http://www.w3.org/Graphics/SVG/1.1/DTD/svg11.dtd" >
<svg xmlns="http://www.w3.org/2000/svg">
<metadata>
Created by FontPrep 20130207 at Tue Jul  5 03:25:24 2016
 By David J Birnbaum
Copyright (c) 2008 by William Veder &#38; Sebastian Kempgen. All rights reserved.
</metadata>
<defs>
<font id="79df6eed989ab9ded1da8b07bf601a25" horiz-adv-x='1024' >
  <font-face 
    font-family="Bukyvede"
    font-weight="400"
    font-stretch="normal"
    units-per-em="2048"
    panose-1="2 0 4 0 0 0 0 0 0 0"
    ascent="1638"
    descent="-410"
    x-height="938"
    cap-height="1391"
    bbox="-1788 -870 2238 1991.18"
    underline-thickness="100"
    underline-position="-272"
    unicode-range="U+000D-FE2F"
  />
<missing-glyph horiz-adv-x="1024" 
d="M256 127h512v1571h-512v-1571zM127 0v1825h768v-1825h-768z" />
    <glyph glyph-name=".notdef" horiz-adv-x="1024" 
d="M256 127h512v1571h-512v-1571zM127 0v1825h768v-1825h-768z" />
    <glyph glyph-name=".null" 
 />
    <glyph glyph-name="nonmarkingreturn" unicode="&#xd;" horiz-adv-x="512" 
 />
    <glyph glyph-name="NULL" 
 />
    <glyph glyph-name="NULL" 
 />
    <glyph glyph-name="space" unicode=" " horiz-adv-x="512" 
 />
    <glyph glyph-name="exclam" unicode="!" horiz-adv-x="475" 
d="M127 172q0 25 29.5 41t70.5 16t72 -16t31 -39v-143q0 -23 -31 -37t-72 -14t-70.5 14t-29.5 39v139zM330 401q0 -23 -31 -38t-72 -15t-70.5 15.5t-29.5 37.5v938q0 25 29.5 40.5t70.5 15.5t72 -15.5t31 -38.5v-940z" />
    <glyph glyph-name="quotedbl" unicode="&#x22;" horiz-adv-x="671" 
d="M408 1350q0 25 26 39q27 14 63 14q37 0 63 -14t26 -37v-297q0 -30 -30 -66q-55 -69 -114 -69q-35 0 -34 28v402zM90 1350q0 25 27 39t63 14t61 -14q26 -14 25 -37v-297q0 -33 -28 -67q-57 -68 -115 -68q-33 0 -33 28v402z" />
    <glyph glyph-name="numbersign" unicode="#" horiz-adv-x="1243" 
d="M727 578q12 53 23.5 106t23.5 107h-223q-12 -53 -23.5 -106.5t-23.5 -106.5h223zM1212 664q-20 0 -47 54t-61.5 63.5t-81.5 9.5h-123q-12 -53 -23.5 -106.5t-23.5 -106.5h278q52 0 64 -23q2 -4 2 -7l-6 -106q-15 -102 -27 -108t-21 -6q-22 0 -42 47q-39 76 -82 78t-68 2
h-123q-90 -426 -94 -439q-4 -14 -24.5 -22t-44 -8t-42 8t-15.5 19q14 52 95 442h-223q-90 -426 -94 -439q-4 -14 -24.5 -22t-44 -8t-42 8t-14.5 23t94 438h-336q-31 0 -23.5 42t20 61.5t28.5 19.5h336q12 53 23.5 106t23.5 107h-336q-30 0 -19.5 59t42.5 59h336l96 445
q2 14 23.5 23t45 9t42 -8t14.5 -24l-97 -445h224l96 445q2 14 23.5 23t45 9t42 -8t14.5 -24l-96 -445h278q47 0 64 -22q2 -4 2 -7l-6 -102q-10 -99 -24.5 -106.5t-23.5 -7.5z" />
    <glyph glyph-name="dollar" unicode="$" horiz-adv-x="1081" 
d="M334 993q0 -86 38 -165t115 -83v551q-153 -4 -153 -303zM573 115q101 0 156 75q39 53 39 179q0 174 -76 231q-35 29 -119 47v-532zM985 414q0 -396 -321 -398q-51 0 -91 7v-189h-86v205q-61 17 -104 35t-70 18q-41 0 -89 -66t-85 -67q-92 0 -92 51q0 98 82 170
q63 51 172 51q14 -1 86 -37t100 -49v519q-12 0 -18 2l-109 16q-63 12 -102 35q-135 82 -135 293q0 340 364 352v160h86v-162q362 -29 363 -346q0 -64 -75 -64t-97 20q-23 20 -39 72l-12 82t-15 84q-19 59 -125 82v-549q154 -17 241 -70q87 -51 129 -105t42 -152z" />
    <glyph glyph-name="percent" unicode="%" horiz-adv-x="1048" 
d="M258 1022q55 0 95 40t40 94t-40 94t-95 40t-96 -39q-39 -41 -39 -95t39 -95q41 -39 96 -39zM76 1337q74 74 179 74t180 -73t75 -180t-75 -180t-180 -73t-179 74t-74 179t74 179zM770 92q55 0 95 40t40 94.5t-40 94.5t-95 39.5t-96 -38.5q-39 -41 -39 -95.5t39 -95.5
q41 -39 96 -39zM767 481q104 0 183 -73q72 -72 72 -179.5t-75 -180.5t-180 -73t-179 74t-74 179.5t74.5 179t178.5 73.5zM1067.5 1308.5q0.5 -21.5 -55.5 -28.5q-56 -6 -89 -19.5t-39 -22.5l-69 -114q-31 -49 -80 -130t-113.5 -185t-131 -214t-211 -344.5t-166.5 -279.5
q-17 -25 -63.5 -6.5t-31.5 47.5q4 6 41 67.5t95.5 158t131 216t196.5 326.5t345 570q23 43 54 49q10 2 48 -5.5t88 -35.5t50.5 -49.5z" />
    <glyph glyph-name="ampersand" unicode="&#x26;" horiz-adv-x="1058" 
d="M428 352q29 0 78 18t86 42v145h-299q6 -27 12 -57t29 -66q43 -82 94 -82zM242 778q0 -67 20 -125h330v166q47 122 98 155q16 11 26 5t15 -38q6 -32 6 -48v-240h232q29 -51 0 -96h-232v-551q0 -20 -4 -30t-49 -9q-92 0 -92 39v332l-44 -44q-110 -110 -194 -110
q-96 0 -181 200t-85 323q0 124 125 285t254 161q41 0 91 -67q50 -68 50 -112t-28 -78t-34 -31q-7 3 -30 1q-52 84 -63 97q-31 37 -88 33q-14 -1 -23 -1q-41 0 -66 -71q-6 -27 -20 -53t-14 -93z" />
    <glyph glyph-name="quotesingle" unicode="'" horiz-adv-x="475" 
d="M152 1350q0 25 26 39q27 14 63 14q35 0 61 -14t26 -37v-297q0 -30 -28 -66q-28 -35 -56 -52q-27 -17 -60 -17t-32 28v402z" />
    <glyph glyph-name="parenleft" unicode="(" horiz-adv-x="745" 
d="M600 1380q29 -35 29 -59q0 -10 -29 -23.5t-86 -60.5t-194.5 -204t-137.5 -544q0 -175 120.5 -314t178.5 -159t63 -20t5 -6t-8.5 -20.5t-12.5 -14.5q-62 7 -177.5 81t-215.5 240.5t-100 410.5t110.5 404t214 225.5t145.5 82t54 16.5t41 -35z" />
    <glyph glyph-name="parenright" unicode=")" horiz-adv-x="745" 
d="M563 874q0 188 -108 306.5t-172 153t-78.5 36.5t-14.5 7t11.5 18.5t22.5 12.5t55.5 -17.5t140.5 -78.5t193.5 -228.5t97.5 -406.5q0 -417 -213 -548t-255.5 -146.5t-50.5 -15.5q-14 0 -42.5 34t-28.5 53q0 18 10 20q213 94 322.5 285.5t109.5 514.5z" />
    <glyph glyph-name="Asterisk" unicode="*" horiz-adv-x="720" 
d="M422 809q0 -33 -51 -33t-52 33v182q-74 -76 -130 -131t-64 -63q-7 -8 -23 -5q-33 6 -42 38q-3 15 10 28l231 232q-43 43 -83 84q-40 42 -73 74t-53 51t-27 27t-5 22q5 31 39 43q15 5 23 -3t34 -37q27 -29 163 -161v180q0 31 52 34q19 1 35 -7t16 -27v-180q39 37 73 71
l60 60q27 27 42 43t22 23t21 3t26 -14q29 -32 6 -53l-234 -233q79 -75 135 -133l77 -77l27 -27t4 -23q-6 -32 -41 -38q-15 -3 -28 7l-190 190v-180z" />
    <glyph glyph-name="plus" unicode="+" horiz-adv-x="913" 
d="M49 449q-30 0 -33 56q0 56 33 56h336v324q0 14 28 29t57 1t30 -30v-324h309q44 0 68 -22q6 -8 10 -45t8 -69q4 -33 4 -55t-4 -35t-23 -13q-20 0 -59 52t-67 62t-93 13h-153v-381q0 -33 -58 -33t-57 33v381h-336z" />
    <glyph glyph-name="comma" unicode="," horiz-adv-x="370" 
d="M240 215q38 0 60 -14t15 -37l-61 -297q-7 -34 -36 -65q-29 -32 -56 -47t-60 -15t-26 29l84 401q10 45 80 45z" />
    <glyph glyph-name="hyphen" unicode="-" horiz-adv-x="929" 
d="M49 449q-30 0 -33 56q0 56 33 56h760q44 0 68 -22q6 -8 10 -45t8 -69q4 -33 4 -55t-4 -35t-23 -13q-20 0 -59 52t-67 62t-93 13h-604z" />
    <glyph glyph-name="period" unicode="." horiz-adv-x="327" 
d="M82 133q0 25 31 39t71 14t71 -14q30 -14 30 -37v-123q0 -23 -30 -38t-71 -15q-42 0 -72 15t-30 40v119z" />
    <glyph glyph-name="slash" unicode="/" horiz-adv-x="806" 
d="M881.5 1310q0.5 -21 -55.5 -28q-56 -6 -78.5 -14t-38 -21.5t-24.5 -31t-21 -37.5l-28 -51q-28 -50 -74 -131t-103.5 -185t-118.5 -215t-186.5 -334t-161.5 -295q-17 -25 -63.5 -6.5t-30.5 47.5q4 6 37.5 67.5t128.5 230t235 424.5q140 257 342 622q23 43 53 49
q10 2 48 -5.5t88.5 -36t51 -49.5z" />
    <glyph glyph-name="zero" unicode="0" horiz-adv-x="1024" 
d="M877 522q0 84 -33 178.5t-101 213t-193.5 248.5t-149.5 128q-43 -4 -113 -86.5t-97 -158.5q-26 -76 -26 -166t32.5 -183.5t83 -177.5t108.5 -154.5t110.5 -122t89.5 -80t45 -28.5q52 8 124 86t96 148q24 71 24 155zM534 -10q-9 0 -51.5 14t-144.5 71t-213 209.5
t-111 392.5t99.5 410t219 247t175.5 77q8 0 49 -12.5t140.5 -65.5t206 -205.5t106.5 -405.5t-100 -415.5t-194.5 -224.5t-133.5 -77t-48 -15z" />
    <glyph glyph-name="one" unicode="1" horiz-adv-x="1024" 
d="M612 53q0 -71 -101 -71t-101 75v1266q0 35 28.5 54.5t101 19.5t72.5 -72v-1272z" />
    <glyph glyph-name="two" unicode="2" horiz-adv-x="1024" 
d="M860 -127q-20 0 -49 39q-48 65 -79.5 76.5t-90.5 11.5h-440q-23 0 -28 15.5t-5 43.5t10 41q26 127 132 325.5t157 256.5q95 110 172.5 221t103.5 180q0 29 -74.5 107t-101.5 78t-108.5 -41t-159.5 -158q-44 -52 -51.5 -105t-15.5 -53q-16 0 -56.5 63.5t-40.5 96.5
q0 34 10 49q87 154 200.5 215.5t172.5 61.5q110 0 202.5 -91.5t145.5 -177.5q4 -12 12 -31t9 -53q0 -64 -56 -164.5t-114 -168.5q-126 -148 -203 -279.5t-102 -277.5h323q63 0 100.5 -52.5t44.5 -100.5t7 -88t-27 -40z" />
    <glyph glyph-name="three" unicode="3" horiz-adv-x="1024" 
d="M111 0q0 174 174 174q15 0 92 -40t102 -40q117 0 188.5 65.5t71.5 177.5t-47 173t-67 78q-51 37 -132 50t-119 28t-38 20v45q0 47 27.5 62.5t97.5 15.5q123 0 180 75.5t57 203.5t-46 181.5t-154 53.5q-172 0 -215 -229q-12 -49 -32.5 -71t-106.5 -22t-87 56
q0 148 128 249t315 101q186 0 294.5 -83t108.5 -249q0 -127 -49 -216t-168 -146q123 -47 201 -139.5t78 -232.5t-103 -241.5t-293 -101.5q-4 0 -32.5 6t-67.5 12.5t-77 6.5t-101 -40t-122 -40q-58 0 -58 57z" />
    <glyph glyph-name="four" unicode="4" horiz-adv-x="1024" 
d="M525 715q96 0 149 6v254q0 35 63 35h80q68 0 68 -35l-4 -944q-23 -18 -43.5 -38t-62.5 -20t-71.5 14.5t-29.5 43.5v604q-70 -8 -260.5 -8t-276.5 8v82q69 260 176 412.5t165.5 209t94.5 80.5q15 5 57.5 -35t26.5 -51q-63 -51 -175.5 -243.5t-147.5 -364.5q95 -10 191 -10
z" />
    <glyph glyph-name="five" unicode="5" horiz-adv-x="1024" 
d="M555 1395l171 -2q171 -2 187.5 -17t16.5 -87q0 -120 -11 -146.5t-34 -26.5h-21q-23 0 -37 34t-61 106t-201 63l-69 -4l-95 -496q245 9 390 -73t145 -297t-84 -341t-244 -126q-246 0 -383 53.5t-137 183.5q0 23 31 44.5t75 21.5t77.5 -14.5t53 -37t31 -47t36 -61.5
t122.5 -37t149.5 86t51.5 196t-5 171t-42.5 124t-214.5 74l-256 2q10 92 54.5 319t55.5 335h248z" />
    <glyph glyph-name="six" unicode="6" horiz-adv-x="1024" 
d="M370 764q-53 -47 -60 -206t2 -218t38 -95t66 -64q76 -57 151 -62q69 -7 111 150q46 182 -33 358q-29 65 -75 113t-105 52t-95 -28zM123 453q18 256 105 471t223 376q94 111 147 109q16 -2 20 -6t8 -25t-27 -66q-31 -46 -53 -76t-39 -62t-39 -69q-22 -38 -59 -103
t-53 -148q84 78 228 66q58 -4 122 -56q121 -100 170 -269q50 -170 -23 -343t-232 -247q-81 -38 -173 -33q-163 9 -251 154q-87 145 -74 327z" />
    <glyph glyph-name="seven" unicode="7" horiz-adv-x="1024" 
d="M260 717q0 39 33 39h221q54 261 47 383q-2 74 -8 137q-53 15 -173 4.5t-182.5 -17t-93.5 -8.5l-8 127q49 0 269.5 9t343.5 -9q29 -16 41 -59t17 -135q10 -184 -50 -432h139q37 -8 32 -43t-18.5 -50.5t-33.5 -15.5h-148q-112 -404 -287 -620q-41 -51 -84 -76t-61 -24
q-35 2 -25 28q11 11 66 107q88 153 131 325t64 258q-74 -2 -88 -2h-111q-16 0 -24.5 17.5t-8.5 56.5z" />
    <glyph glyph-name="eight" unicode="8" horiz-adv-x="1024" 
d="M690 274q0 169 -115 267q-91 71 -171 71t-80 -173t155 -263q57 -35 92 -35q119 0 119 133zM690 907q0 168 -115 267q-89 69 -170 69t-81 -173t155 -263q63 -35 92 -35q119 0 119 135zM868 395q0 -101 -108 -250q-129 -164 -268 -163q-70 0 -189 94q-149 113 -147 280
q0 80 120 238q31 43 68 80q-15 9 -41 35q-149 113 -147 278q0 84 120 238q125 172 232 172q59 0 162 -68q198 -131 198 -303q0 -101 -108 -248q-23 -26 -42 -48t-40 -38q190 -133 190 -297z" />
    <glyph glyph-name="nine" unicode="9" horiz-adv-x="1024" 
d="M729 840q0 34 -3 70t-9 69t-10 67t-31 72q-53 73 -141 110q-41 17 -78 21q-37 3 -78 -67t-48 -151q-12 -144 57 -266q70 -121 185 -132q133 -14 148 139q8 33 8 68zM899 905q-49 -506 -330 -823q-51 -55 -98 -87t-76 -41t-33 3q-7 24 59 112t89 129q139 245 170 371
q-84 -74 -230 -62q-58 5 -124 49q-64 44 -111 108q-106 143 -92 274q33 333 277 427q84 32 180 27q168 -9 252 -157q84 -149 67 -330z" />
    <glyph glyph-name="colon" unicode=":" horiz-adv-x="401" 
d="M104 195q0 25 31 39t72 14t71 -14t29 -37v-146q1 -23 -29 -38t-71 -15t-72 15t-31 40v142zM104 881q0 25 31 39t72 14t71 -14t29 -37v-187q1 -23 -29 -38t-71 -15t-72 15t-31 40v183z" />
    <glyph glyph-name="semicolon" unicode=";" horiz-adv-x="415" 
d="M125 881q0 25 31 39q32 14 72 14t70 -14t30 -37v-146q0 -23 -30 -38t-71 -15t-71 15t-31 40v142zM240 215q38 0 60 -14t15 -37l-61 -297q-7 -34 -36 -65q-29 -32 -56 -47t-60 -15t-26 29l84 401q10 45 80 45z" />
    <glyph glyph-name="less" unicode="&#x3c;" horiz-adv-x="524" 
d="M57 457q0 37 4 75q169 358 453 822v-248q-184 -276 -352 -645q129 -275 348 -645l4 -254q-123 207 -245 411.5t-208 415.5q-4 31 -4 68z" />
    <glyph glyph-name="equal" unicode="=" horiz-adv-x="964" 
d="M37 672q0 35 33 35h817q16 0 24.5 -16.5t8.5 -35t-9.5 -35t-23.5 -16.5h-817q-16 0 -24.5 16.5t-8.5 51.5zM907 264q4 -41 4 -77.5t-22 -36.5q-14 0 -26.5 13t-36.5 37t-64.5 19.5t-87.5 -4.5h-604q-16 0 -24.5 16.5t-8.5 51t33 34.5h759q48 0 68 -20l6 -10z" />
    <glyph glyph-name="greater" unicode="&#x3e;" horiz-adv-x="524" 
d="M414 461q-127 307 -353 645v248q291 -475 453 -822q18 -77 0 -143q-152 -317 -453 -827l5 254q159 256 348 645z" />
    <glyph glyph-name="question" unicode="?" horiz-adv-x="835" 
d="M426 369q-41 0 -71.5 14t-30.5 39v164q15 75 49 107q67 63 155 205t115 216q12 27 -75 104.5t-109 73.5q-81 -27 -150 -93t-112 -130q-33 -40 -45.5 -93.5t-17.5 -61.5t-18 12t-20.5 28.5t-12.5 14.5t-35.5 41.5t-4.5 109.5q87 157 203.5 217t171.5 60q109 0 202 -91.5
t144 -177.5q42 -95 -4 -186q-22 -44 -100 -140q-78 -97 -107 -145.5t-29 -68.5l2 -168q0 -23 -29.5 -37t-70.5 -14zM426 227q41 0 70.5 -15t29.5 -38v-143q0 -25 -29.5 -39.5t-70.5 -14.5t-71.5 14.5t-30.5 39.5v141q0 25 30.5 40t71.5 15z" />
    <glyph glyph-name="at" unicode="@" horiz-adv-x="1886" 
d="M966 1145h-17q-17 0 -42 -2l-4 -13l76 13q-6 2 -13 2zM1780 135q-67 -134 -170 -237q-208 -208 -325.5 -247.5t-168.5 -49.5q110 12 219 51q172 61 287 176q109 101 178 307h-20zM156 383q0 420 282 715q152 156 289 225q61 29 119 49q-88 -16 -176 -49
q-182 -65 -295 -181q-171 -174 -207.5 -373.5t-36.5 -327.5t45 -263q-20 94 -20 205zM644 641h-130l-102 -496h145l82 381q14 65 123 115l-78 2q-29 -2 -40 -2zM1434 643h-150q33 -14 33 -39q0 -73 -100 -471q82 -10 122 -10q170 0 248 74q57 55 99 237l18 96l-12 -38
q-44 -125 -162 -256l-66 -66q-39 -29 -84 -35l80 451q0 10 -6 39l-20 14v4zM1196 1145q-22 0 -62 -11q-40 -12 -56 -12t-58 11l-27 6q23 -12 23 -45q0 -74 -31 -193l-51 -188l-60 -60q37 -10 37 -35q-1 -72 -27 -182t-40.5 -169.5t-28.5 -119.5h150l96 416l67 70q4 4 8.5 5
t8.5 5h-70l74 363q9 51 60 91t69 48h-82zM1032 1214l108 -20q33 0 69 11t59 12h98l-18 -82l-70 -70l-59 12l-72 -362h358v-4l21 -15q6 -29 6 -39l-82 -450q32 6 61 16q150 188 150 480t-184 462t-481 170t-521 -202q-111 -103 -181 -309t-69 -371q0 -344 219 -574
q217 -223 566 -223q154 0 312 55t251 154q88 86 170 270l69 72h60q-63 -188 -223 -354t-326 -248t-389 -82q-379 0 -626 253t-247 632q0 428 281 704l72 72q274 272 663 272q446 0 627 -334q88 -162 88 -334q0 -260 -92 -456q-39 -76 -150 -178t-284 -103q-44 0 -121 10
q100 383 100 474q0 27 -37 40q-29 12 -57 13l-31 -2l-100 -439l-72 -69h-205l60 237q39 173 39 232q0 41 -90 41q-31 0 -47 -8l-91 -435l-71 -69h-203l106 508q2 18 56 68t78 61h194q63 2 105 0l41 155q24 81 24 156q0 39 -31 49l-79 -12l18 82l70 69z" />
    <glyph glyph-name="A" unicode="A" horiz-adv-x="1159" 
d="M686 657l-158 428q-113 -276 -243 -770zM1143 29q0 -29 -41 -29h-117q-57 0 -88 88l-186 506l-447 -373q-16 -76 -24.5 -119t-10.5 -47q-31 -66 -135 -65q-72 0 -71 55q0 57 139 399q32 76 130 291q99 215 123.5 271.5t57.5 132.5q10 35 10 61q0 76 -39 96l-86 19
q-61 12 -61 48t180 36q127 0 223 -154q72 -113 136 -323l86 -281l219 -606q2 -2 2 -6z" />
    <glyph glyph-name="B" unicode="B" horiz-adv-x="1028" 
d="M735 162q0 266 -264 504q-79 74 -113 74t-34 -33v-633h290q121 0 121 88zM672 1266q0 70 -217 69h-90q-41 0 -41 -55v-438q112 0 230 154t118 270zM999 143q0 -76 -84 -112q-66 -31 -147 -31h-575q-72 0 -72 70v1267q0 53 59 54h490q199 0 198 -127q0 -197 -442 -469
q573 -406 573 -652z" />
    <glyph glyph-name="C" unicode="C" horiz-adv-x="847" 
d="M532 195q60 0 112 17q52 18 64 28t36 32t63 56l31 -15q-8 -45 -158 -190q-94 -94 -215 -136q-27 -9 -37 -10q-141 0 -258 293q-98 246 -98 428t155 435q86 137 195 205t199 67q55 -1 123 -109t67 -172q0 -64 -33 -96q-33 -33 -84 -63l-49 2q-6 89 -38 153t-83 88t-88 25
q-88 0 -145 -148q-47 -119 -47 -231t20 -221q17 -166 94 -291q88 -147 174 -147z" />
    <glyph glyph-name="D" unicode="D" horiz-adv-x="1150" 
d="M840 635q0 86 -5.5 154.5t-27 188t-108 233.5t-240.5 114h-131v-1245q27 -2 70 -2t81 10q298 68 329.5 264.5t31.5 282.5zM608 1393q88 0 176 -56.5t201 -212.5t113 -438t-105.5 -429.5t-195.5 -202t-195 -54.5h-366q-111 0 -111 49v1297q0 20 23.5 33.5t72.5 13.5h387z
" />
    <glyph glyph-name="E" unicode="E" horiz-adv-x="913" 
d="M805 667q0 -56 -57 -96q-53 -33 -107 -32q-18 0 -70 82q-55 82 -69 81q-31 0 -127 -54t-96 -81q-1 -94 83 -233t170 -139q58 0 110 17.5t66 27.5t37 31.5t62 56.5l31 -15q-8 -45 -158 -190q-56 -56 -139.5 -101t-112.5 -45q-141 0 -258 293q-98 246 -98 428t155 435
q86 137 194.5 204.5t199.5 67.5q55 -1 123 -109t67 -172q0 -64 -33 -96q-33 -33 -84 -63l-49 2q-6 89 -38 153t-83 88.5t-88 24.5q-88 0 -145 -148q-47 -119 -47 -231t20 -221q365 207 418 207t90 -64q33 -53 33 -109z" />
    <glyph glyph-name="F" unicode="F" horiz-adv-x="901" 
d="M805 684q0 -84 -164 -84q-6 0 -70.5 61.5t-70.5 61.5t-58.5 21t-117.5 -25v-684q0 -45 -102 -45t-101 49v1309q0 43 51 43h600q65 0 88 -47.5t23 -137.5q0 -137 -11 -163.5t-34 -26.5h-21q-13 0 -61.5 92t-48.5 94q-31 53 -85.5 83t-107.5 30h-43q-86 0 -116.5 -23.5
t-30.5 -83.5v-440q127 72 206.5 70t108.5 -10.5t41 -8.5q125 -42 125 -135z" />
    <glyph glyph-name="G" unicode="G" horiz-adv-x="1067" 
d="M647.5 216.5q89.5 42.5 143.5 107.5q32 38 16 276h-193q-23 0 -39 12.5t-19 27.5t11.5 28.5t53.5 13.5h387q29 -36 12 -119q-40 -254 -163.5 -372.5t-189 -153.5t-81.5 -40t-33.5 -6t-36 -2t-34.5 -2t-36 -1q-55 0 -110.5 57t-138.5 182t-101 223.5t-14 180.5
q16 250 99 424t253 307q56 45 158 45q33 0 84 -24.5t94 -82.5t49 -92.5t6 -79.5q0 -46 -45 -116t-84 -70q-8 0 -10 21.5t-22 69.5t-27 73.5t-23 47.5q-39 54 -66 73.5t-93 19.5q-39 0 -85 -48t-80 -139t-34 -190q0 -222 63 -387q25 -66 45.5 -122t57.5 -120.5t86 -64.5
q50 0 139.5 42.5z" />
    <glyph glyph-name="H" unicode="H" horiz-adv-x="1169" 
d="M1120 39q0 -49 -102 -49t-100 53v662l-594 -3v-661q0 -51 -102 -51t-101 51v1317q0 43 101 43t102 -43v-586h594v588q0 41 101 41t101 -49v-1313z" />
    <glyph glyph-name="I" unicode="I" horiz-adv-x="440" 
d="M332 33q0 -43 -80 -43q-123 0 -123 43v1317q0 41 123 41q80 0 80 -43v-1315z" />
    <glyph glyph-name="J" unicode="J" horiz-adv-x="540" 
d="M498 954q0 -229 -73 -507t-185 -437q-39 -53 -80 -80.5t-64 -27.5q-31 0 -20 26q9 12 45 82q97 209 135.5 456.5t38.5 406.5q0 217 -31 395q-59 12 -118.5 -0.5t-118.5 -20.5v119q98 10 193.5 18t191.5 0q31 -16 46.5 -57t27.5 -155t12 -218z" />
    <glyph glyph-name="K" unicode="K" horiz-adv-x="1050" 
d="M324 43q0 -53 -102 -53t-101 49v1302q0 49 101 49t102 -40v-1307zM924 -18q-29 0 -203 217q-76 95 -196 266q-119 171 -119 281t116 282q254 377 369 377q63 0 98 -74q29 -55 29 -115t-20 -124q-20 -66 -52 -72l-92 115q-76 88 -102 88q-37 0 -113 -136
q-78 -131 -78 -172q0 -147 189 -403q100 -134 303 -365q-2 -45 -44 -105t-85 -60z" />
    <glyph glyph-name="L" unicode="L" horiz-adv-x="901" 
d="M817 416q66 0 66 -256q0 -58 -4.5 -65t-6.5 -15q-25 -80 -100 -80h-600q-51 0 -51 43v1298q0 49 101 49t102 -44v-1164q0 -66 38 -86t109 -20h43q121 0 180 104q8 12 21.5 31.5t41.5 112.5q27 92 60 92z" />
    <glyph glyph-name="M" unicode="M" horiz-adv-x="1427" 
d="M1374 27q0 -43 -102 -43t-101 43l11 1144l-21 -2q-72 -434 -110 -618q-104 -471 -203 -537q-45 -29 -107 -28q-171 0 -231.5 285.5t-91.5 451.5l-82 446h-23l11 -1142q0 -43 -102 -43t-101 43v1327q0 37 39 37h176q31 0 43 -62l133 -624q98 -463 252 -463q137 0 260 585
l104 502q12 61 50 62h163q33 0 33 -37v-1327z" />
    <glyph glyph-name="N" unicode="N" horiz-adv-x="1169" 
d="M1120 31q0 -49 -102 -49t-100 53v268l-594 748v-1018q0 -51 -102 -51t-101 51v1325q0 43 101 43t102 -43v-197l594 -743v942q0 41 101 41t101 -49v-1321z" />
    <glyph glyph-name="O" unicode="O" horiz-adv-x="991" 
d="M786 553q0 383 -235 586q-72 61 -117 61q-88 0 -151 -114t-64 -212q0 -379 260 -606q78 -70 125 -69q96 0 146 137q36 98 36 217zM940 745q0 -399 -326 -688q-84 -71 -132 -71t-136 86q-281 276 -280 639q0 248 210 503q156 193 259 193q39 0 127 -78q278 -252 278 -584z
" />
    <glyph glyph-name="P" unicode="P" horiz-adv-x="931" 
d="M715 1028q0 123 -70 211q-73 98 -197 98t-124 -61v-596q0 -70 38 -70q172 0 262 120t91 298zM911 1041q0 -223 -176 -355t-411 -133v-520q0 -43 -102 -43t-101 43v1298q0 59 131 60q268 0 420 -48q239 -79 239 -302z" />
    <glyph glyph-name="Q" unicode="Q" horiz-adv-x="991" 
d="M786 553q0 383 -235 586q-72 61 -115 61q-83 0 -150 -110.5t-67 -215.5q0 -379 260 -606q78 -70 121 -70q83 1 134.5 100.5t51.5 254.5zM485 -14q-51 0 -139 86q-281 274 -280 639q0 244 210 503q156 193 259 193q39 0 127 -78q278 -252 278 -593t-246 -601
q33 -29 62 -67l32 -45q64 -86 112 -86t116 53l51 -29q-111 -119 -197 -119q-39 0 -102 23.5t-129 95.5l-70 76q-37 -31 -49 -41t-35 -10z" />
    <glyph glyph-name="R" unicode="R" horiz-adv-x="974" 
d="M100 57v1280q0 53 62 54h518q199 0 199 -127q0 -180 -172 -297t-301 -172q164 -74 264 -181.5t175 -261t75 -338.5q0 -37 -27 -32.5t-66 6.5t-67.5 3t-59.5 13l-4 146q-25 162 -74 283.5t-169 232.5q-84 74 -117 74t-33 -33v-684q-6 -29 -43 -33t-88 -2q-72 0 -72 69z
M682 1266q0 69 -248 69h-90q-41 0 -41 -55v-438q57 0 130 40t134 117q115 152 115 267z" />
    <glyph glyph-name="S" unicode="S" horiz-adv-x="1081" 
d="M1001 401q0 -419 -327 -419q-113 0 -192 27.5t-110.5 39.5t-56 12t-46 -21.5t-42 -48t-41 -48t-45.5 -21.5q-94 0 -94 53q0 102 84 181q41 35 84 44t90 9q4 0 130 -61.5t149 -61.5q104 0 157 80q39 57 39 188q0 184 -75 246q-57 45 -214 68t-183.5 34t-45.5 21
q-137 88 -137 309q0 373 393 373q434 0 434 -367q0 -68 -75 -68t-99 21.5t-41 75.5q-16 119 -26 176q-14 47 -76.5 70.5t-140.5 23.5t-123 -98q-33 -75 -33 -163q0 -322 164 -322q201 0 312 -71t149 -125.5t38 -156.5z" />
    <glyph glyph-name="T" unicode="T" horiz-adv-x="1161" 
d="M1094 1391q67 1 67 -215t-67 -215q-29 -1 -59 111t-60 159q-57 94 -172 94q-88 0 -88 -106v-1194q1 -43 -101 -43t-102 47v1194q0 102 -106 102q-150 0 -193 -127l-41 -129q-35 -102 -53 -102q-33 1 -48 71t-16 131q0 180 35 205q23 16 70 17h934z" />
    <glyph glyph-name="U" unicode="U" horiz-adv-x="1202" 
d="M121 1366q0 33 97 33t97 -33l4 -1012q0 -133 63.5 -216t222.5 -83t195 65.5t39 130t3 150.5v977q0 18 80 18t107.5 -1.5t27.5 -18.5v-919q0 -131 -15.5 -223.5t-88 -178.5t-355.5 -86q-94 0 -180 3t-191.5 57t-105.5 317v1020z" />
    <glyph glyph-name="V" unicode="V" horiz-adv-x="1042" 
d="M180 1401q51 0 74 -12t29 -54l225 -1134q88 547 184 940q68 279 199 278q61 -1 104 -121t43 -171t-23.5 -113t-51.5 -62q-41 0 -59.5 32t-29 69t-19.5 68.5t-30 31.5q-37 0 -68.5 -106.5t-43.5 -161.5q-94 -428 -135 -758q-16 -129 -39 -129h-109q-96 0 -111 76
l-251 1235l-2 22q0 70 114 70z" />
    <glyph glyph-name="W" unicode="W" horiz-adv-x="1667" 
d="M1442 1395q86 0 129 -33q69 -58 69 -304t-118 -517q-97 -209 -242 -447q-66 -109 -133 -108q-48 0 -84.5 131t-49 189t-32.5 145q-48 163 -74 292q-86 -80 -205 -327l-135 -369q-35 -61 -67 -61q-39 0 -135 137q-267 379 -267 825t135.5 446.5t135.5 -57.5
q-1 -39 -17 -92t-22 -76t-13 -53t-7 -170q-1 -302 112 -547q68 -147 121 -147q7 0 41.5 84.5t112.5 227.5q77 143 101.5 236t24.5 126t-5.5 89.5t-35.5 120.5t-36.5 98t-5.5 59.5t5.5 42t4.5 24.5q0 35 88 35q47 0 70.5 -10.5t51.5 -38.5t50 -97t43.5 -174.5t45 -248
t54.5 -320.5q14 -77 58 -125.5t71 -48.5q53 0 122 222t69 320t-37 232q-75 222 -80 248q0 41 86 41z" />
    <glyph glyph-name="X" unicode="X" horiz-adv-x="1009" 
d="M258 49q0 -61 -119 -61q-51 0 -65 14q-23 14 -23 75t78 245t238 471q-301 519 -301 561q0 43 94 43q48 0 72 -21.5t32 -36t15 -26.5l184 -344q25 45 77.5 143.5t82.5 136.5q106 158 186 158q80 1 120 -59t40 -135t-23 -134q-29 -84 -82 -84q-10 -1 -84 105t-86 106
q-22 0 -81.5 -102.5t-108.5 -206.5l463 -827q16 -28 16 -54t-12.5 -27t-88.5 -1t-102 51l-366 668q-156 -360 -156 -658z" />
    <glyph glyph-name="Y" unicode="Y" horiz-adv-x="1007" 
d="M961 1309q0 -72 -23.5 -164t-48.5 -92q-13 0 -57 62.5t-44 64.5q-12 0 -20 -31q-66 -205 -134 -435t-122 -378q-82 -223 -132 -297t-69 -74q-5 0 -29 11.5t-51 21.5t-30.5 25.5t2.5 32t9 19.5l21 29q6 8 20.5 18.5t47 41t80.5 131.5q49 101 49 205q0 16 -56 109t-144 252
t-139.5 292t-51.5 186q0 22 35 48t73 26q39 0 68 -43q1 -6 67 -167q149 -365 244 -468q40 56 88 237t66 259t65 128t91 50t84.5 -29t40.5 -71z" />
    <glyph glyph-name="Z" unicode="Z" horiz-adv-x="1015" 
d="M1014 -61q0 -141 -150 -238q-129 -80 -280 -80q-72 0 -72 31t66 45q116 24 157 47q76 45 76 137q0 131 -186 131q-18 0 -31.5 -1t-29 -2t-94.5 -12t-214 -11t-135 53q0 25 26 72l549 1108q25 43 25 84q0 35 -119 34q-190 0 -274 -102q-6 -4 -72 -130t-86 -126
q-59 0 -59 213q1 98 29 148t128 51h635q78 0 78 -45.5t-13 -73.5t-98.5 -181t-199.5 -359q-164 -295 -214 -438t-50 -190q0 -31 55 -30h407q58 0 102 -38t44 -97z" />
    <glyph glyph-name="bracketleft" unicode="[" horiz-adv-x="555" 
d="M586 -367h-428q-2 49 -2 87v63q0 29 -2 49l10 291l-6 207v65l2 174v56l-4 166l6 129l-4 120v332q0 8 2 19h426l2 -41l-146 2q-90 0 -106 -23q-12 -72 -12 -426l4 -221l-2 -186l4 -484l-4 -141q0 -129 8 -153t19 -28q11 -5 23 -7t49 -1q38 1 112 -4l49 -2v-43z" />
    <glyph glyph-name="backslash" unicode="\" horiz-adv-x="806" 
d="M-98 1319q0 20 94 61q20 10 51 16t41 5q31 -6 53 -49q287 -518 434 -778q146 -261 229 -410t101 -176q15 -30 -31 -48t-63 7q-6 12 -39 70q-33 57 -82 147t-110 198t-109 195q-48 86 -169 302q-122 216 -150 266l-29 51q-32 53 -56 75t-95 29q-70 7 -70 39z" />
    <glyph glyph-name="bracketright" unicode="]" horiz-adv-x="555" 
d="M-23 1346v43q66 4 135 4h177q107 0 121 -7v-66l2 -160v-42l-9 -155l9 -271v-598l8 -354l-2 -109l-434 -2v43h129q92 0 123 19q12 48 12 440l-10 479l4 105l-9 336l7 153q0 82 -13 123q-49 18 -219 19h-31z" />
    <glyph glyph-name="asciicircum" unicode="^" horiz-adv-x="958" 
d="M414 1356h135l385 -832h-150l-303 690l-305 -690h-149z" />
    <glyph glyph-name="underscore" unicode="_" horiz-adv-x="989" 
d="M33 -139q-33 0 -33 41t33 43h706q59 0 91 11t69 63q37 51 58 51t24 -14q4 -14 4 -37q0 -24 -6 -71t-16 -65q-22 -22 -68 -22h-862z" />
    <glyph glyph-name="grave" unicode="`" horiz-adv-x="536" 
d="M80 1409h221l125 -340h-66z" />
    <glyph glyph-name="a" unicode="a" horiz-adv-x="942" 
d="M238 262q0 -104 102 -104q72 0 143.5 28.5t118.5 85.5l-192 383q-45 -41 -108.5 -180t-63.5 -213zM932 35q0 -41 -86 -41t-101 26l-120 201q-64 -86 -205 -161.5t-242 -75.5q-45 0 -80 45t-35 98q0 97 109.5 295t206.5 283q-63 86 -81.5 155.5t-18.5 75.5q0 20 105 20
t118 -22l411 -836q19 -30 19 -63z" />
    <glyph glyph-name="b" unicode="b" horiz-adv-x="913" 
d="M213 0q-104 0 -102 70v1214q0 51 99 51t97 -49v-401q160 -49 259 -99t157 -118q57 -68 77 -163t21 -219q0 -124 -79 -205q-79 -80 -205 -81h-324zM307 113q1 -29 15 -41t61 -13h82q77 0 119 115q35 94 36 224t-35 205q-62 129 -190 160q-53 13 -88 34v-684z" />
    <glyph glyph-name="c" unicode="c" horiz-adv-x="671" 
d="M307 791q-78 0 -78 -263q0 -84 56 -206q63 -141 137 -142q6 0 46 31t93 61q14 2 30.5 1t5.5 -19t-26.5 -65.5t-66.5 -100.5t-100.5 -78.5t-59.5 -25.5q-47 0 -121 86q-139 168 -139 407q0 162 125 330q55 76 109.5 113.5t84.5 37.5q68 0 119 -83t51 -156q0 -31 -22 -70
q-31 -43 -57 -43l-74 109q-29 39 -62.5 57.5t-50.5 18.5z" />
    <glyph glyph-name="d" unicode="d" horiz-adv-x="944" 
d="M625 1286q0 49 99 49t97 -51v-1214q0 -70 -102 -70h-324q-120 0 -207 82q-77 77 -77 201q0 251 108 370q59 66 159 119t247 121v393zM311 385q-1 -108 27 -184t58 -109t71 -33h82q47 1 61 13t15 41v692q-35 -19 -88 -35t-103 -54q-122 -92 -123 -331z" />
    <glyph glyph-name="e" unicode="e" horiz-adv-x="692" 
d="M242 623q0 -160 37 -160t138 48t146 48q16 0 45 -44q29 -45 29 -69t-33 -52t-46 -34t-22.5 0.5t-17.5 20.5t-38 47t-46 33q-46 0 -94 -33t-47 -79q0 -46 41 -116q43 -81 92 -81t106.5 35.5t77.5 52.5l19 -27q-41 -72 -134 -151q-94 -79 -161 -78q-96 0 -189 213
q-77 186 -77 313t124 288t254 160q42 0 92 -66t50 -112q0 -45 -28 -79t-40 -43t-35 -11q-55 86 -63 94q-23 33 -52.5 46.5t-47.5 13.5q-41 0 -66 -72q-14 -63 -14 -106z" />
    <glyph glyph-name="f" unicode="f" horiz-adv-x="712" 
d="M445 1352q-38 0 -50 -197v-225h178q27 -56 0 -96h-178l2 -822q0 -29 -80 -32h-20q-86 0 -86 38v816h-154q-10 20 -10 48t10 48h154v160q11 186 98.5 254.5t214.5 68.5t186.5 -42.5t59.5 -168.5q0 -52 -30.5 -96.5t-41.5 -44.5q-23 51 -51 114t-45 96q-16 34 -35.5 53
t-37 25.5t-32 4.5t-52.5 -2z" />
    <glyph glyph-name="g" unicode="g" horiz-adv-x="770" 
d="M512 260q0 248 -50 377t-173 129q-35 0 -61.5 -60t-26.5 -150t18.5 -161t49 -130.5t69.5 -99.5t78 -40q98 0 98 94l-2 23v18zM456 -319q86 0 86.5 85.5t2.5 119.5t1 65t-2 58.5t-2 54t3 55.5q-59 -75 -124 -103t-93 -28t-74.5 40t-118.5 150.5t-72 270.5q0 90 99 288
q50 98 115 157.5t112 59.5q23 0 68 -17t85 -58q87 -89 115.5 -160t28.5 -227l4 -353q0 -153 -6 -205t-9 -99.5t-21.5 -100.5t-58.5 -96.5t-99 -43.5t-78 16.5t-34 25t-43 8.5t-38 -13.5t-30.5 -41t-80.5 -27.5q-61 0 -79.5 23.5t-18.5 81.5t31 73.5t80 15.5t84 -12
t63.5 -25.5t51 -25.5t52.5 -12z" />
    <glyph glyph-name="h" unicode="h" horiz-adv-x="1009" 
d="M547 864q-104 0 -225 -168v-676q0 -38 -94 -38t-93 38l-2 1248q-2 16 -2 20v31q0 55 96 55t97 -61v-17q0 -16 -2 -32v-506q102 161 172.5 177.5t118.5 16.5q103 0 177 -62t74 -147v-714q0 -18 -28.5 -30.5t-90 -14.5t-61.5 43v641q0 196 -137 196z" />
    <glyph glyph-name="i" unicode="i" horiz-adv-x="473" 
d="M326 20q0 -35 -68 -34h-59q-49 0 -49 34v889q0 35 63 35h45q68 0 68 -35v-889zM317 1157q0 -70 -88 -70t-88 72v139q0 66 88 66t88 -72v-135z" />
    <glyph glyph-name="j" unicode="j" horiz-adv-x="403" 
d="M285 1147q0 -70 -87 -70t-87 72v139q0 66 87 66t87 -74v-133zM258 954q32 0 57 -146.5t25 -311.5q0 -516 -211 -867q-72 -121 -117 -121q-56 0 -10.5 88.5t72.5 155.5q78 234 78 627q0 178 -11 299l-18 192q0 75 56.5 79.5t78.5 4.5z" />
    <glyph glyph-name="k" unicode="k" horiz-adv-x="1030" 
d="M309 16q0 -36 -92 -36t-92 38v1338q0 41 92 41t92 -39v-1342zM995 155q0 -38 -95 -115t-142 -77t-230 213q-92 109 -137 185.5t-45 105.5q0 65 197 275t261 210t98 -48t34 -105t-16 -108q-16 -52 -46 -52q-4 0 -79.5 59.5t-98.5 59.5q-45 0 -105 -72q-61 -72 -61 -112
q-1 -90 140 -259q141 -166 202 -165q23 0 86 40q37 3 37 -35z" />
    <glyph glyph-name="l" unicode="l" horiz-adv-x="434" 
d="M309 16q0 -36 -92 -36t-92 38v1338q0 41 92 41t92 -39v-1342z" />
    <glyph glyph-name="m" unicode="m" horiz-adv-x="1427" 
d="M930 930q225 0 281.5 -80t67.5 -178.5t11 -198.5l-2 -457q0 -16 -6 -16h-98q-90 0 -90 18v514q0 150 -22.5 213.5t-56.5 92t-89 28.5l-92 -2h-37l-4 -782v-66q0 -16 -41 -16q-10 -2 -15 -2h-39q-34 0 -45 2q-55 0 -55 18v514q0 154 -22.5 215.5t-56.5 90t-89 28.5l-92 -2
h-37l-4 -833q0 -33 -97 -33t-98 33v897h41l291 2h496z" />
    <glyph glyph-name="n" unicode="n" horiz-adv-x="944" 
d="M200 -2q-97 0 -98 33v897h62l311 2q158 0 244.5 -49.5t101.5 -183t15 -224.5l-2 -457q0 -16 -7 -16h-97q-91 0 -91 18v514q0 154 -22.5 215.5t-56.5 90t-89 28.5l-113 -2h-57l-4 -833q0 -33 -97 -33z" />
    <glyph glyph-name="o" unicode="o" horiz-adv-x="673" 
d="M498 350q0 209 -92 326q-70 88 -137.5 88t-67.5 -213t127 -324q49 -43 75 -43q95 0 95 166zM645 498q0 -127 -97 -319t-210 -191q-57 0 -166 130t-109 331q-1 95 101 299t186 204q49 0 131 -82q164 -159 164 -372z" />
    <glyph glyph-name="p" unicode="p" horiz-adv-x="913" 
d="M625 543q1 110 -27 186t-58 109t-71 32h-82q-47 0 -61 -12t-15 -41v-725q35 20 88 40t103 64q122 108 123 347zM311 -356q0 -48 -99 -49t-97 51v1214q0 68 102 70h324q122 0 207 -83q77 -79 77 -203t-20 -226q-39 -199 -235 -308q-99 -56 -259 -106v-360z" />
    <glyph glyph-name="q" unicode="q" horiz-adv-x="913" 
d="M723 930q104 0 102 -70v-1214q0 -50 -99 -51t-97 49v360q-305 93 -416 237q-57 75 -78 177q-20 102 -20 226t79 206q79 81 205 80h324zM629 817q-1 29 -15 41t-61 12h-82q-77 0 -119 -114q-35 -94 -36 -224t35 -211q63 -142 190 -189q53 -19 88 -40v725z" />
    <glyph glyph-name="r" unicode="r" horiz-adv-x="831" 
d="M605 793q-47 0 -167 -240v-541q0 -29 -80 -32h-18q-86 0 -86 36v842q-4 -2 -12 -2h-189q-8 38 4 78h7l157 -4q76 0 138.5 8t70.5 8t8 -1v-279l70 125q90 162 190 161q93 0 93 -131q0 -45 -6.5 -61.5t-25 -48t-42.5 -31.5q-10 0 -38 39t-32 47q-4 23 -18.5 25t-23.5 2z
" />
    <glyph glyph-name="s" unicode="s" horiz-adv-x="890" 
d="M167 493.5q-63 63.5 -63 181.5t97 198.5t233 80.5q236 0 290 -106.5t54 -173.5q0 -41 -192 -41q2 12 2 15v34q0 213 -160 213q-70 0 -104.5 -59.5t-34.5 -121.5q0 -104 28.5 -161t79.5 -57l211 24q90 0 148.5 -66t58.5 -194t-79 -201t-220 -73q-23 0 -43 11t-57 34
q-38 57 -107 57q-23 0 -33 -16.5t-30.5 -51t-81.5 -34.5q-60 0 -78 21.5t-18 80.5q0 137 125 137q87 0 162 -54t108 -75.5t64.5 -21.5t56 55.5t24.5 140.5q0 84 -15 128t-65 44l-153 -12q-145 0 -208 63.5z" />
    <glyph glyph-name="t" unicode="t" horiz-adv-x="667" 
d="M403 834v-814q0 -38 -93 -38t-93 38v814h-160q-20 51 0 96h160v172q25 65 85 119.5t83 38.5q6 -4 12 -36t6 -48v-246h232q29 -51 0 -96h-232z" />
    <glyph glyph-name="u" unicode="u" horiz-adv-x="944" 
d="M639 932q0 18 17 18h98q80 0 80 -16l2 -479q0 -203 -31 -293q-29 -84 -100.5 -123t-229.5 -39h-373v920q0 32 98 32t97 -32l4 -857q29 -2 57 -2h113q145 0 156.5 136.5t11.5 197.5v537z" />
    <glyph glyph-name="v" unicode="v" horiz-adv-x="897" 
d="M764 958q49 0 90 -76t41 -123q0 -49 -27 -105t-57 -56q-16 0 -61 75t-58 75q-34 0 -108 -267t-84 -345q-10 -79 -17 -109q-6 -29 -26 -29l-135 2q-35 0 -57 48t-118 425q-90 377 -90 434q0 47 117 47q66 0 74 -45l182 -774q75 375 105 473q100 350 229 350z" />
    <glyph glyph-name="w" unicode="w" horiz-adv-x="1308" 
d="M506 919.5q0 38.5 110 38.5q41 0 67 -20t54.5 -61t95.5 -262.5t142 -370.5q10 -23 20 -23q47 1 78 107t31 181t1 148.5t-18 122.5q-55 147 -55 150q0 28 74 28t99 -16t47 -58t22 -161v-59q0 -190 -115 -406q-146 -274 -289 -274q-28 0 -74 136q-122 364 -165 488
q-87 -214 -112 -299.5t-38 -131t-37 -119.5t-71 -74t-137 144t-140.5 331.5t-50.5 386.5q0 66 23 88q20 24 70 24t66.5 -30t25.5 -96t16.5 -150t17.5 -158q41 -179 131 -301q54 61 189 498q-78 160 -78 198.5z" />
    <glyph glyph-name="x" unicode="x" horiz-adv-x="942" 
d="M12 -510q0 151 355 850l-332 586q13 30 117 30t124 -38l199 -361l135 240q94 162 191 161q113 0 112 -172q0 -36 -14 -79t-31.5 -62.5t-35.5 -19.5q-66 0 -88 64q-21 58 -33.5 66.5t-14.5 8.5h-12q-43 0 -174 -264q442 -778 442 -801t-61 -23q-141 0 -174 62l-311 536
q-64 -131 -102 -245.5t-63.5 -193.5t-56.5 -169q-76 -223 -124 -223t-48 47z" />
    <glyph glyph-name="y" unicode="y" horiz-adv-x="997" 
d="M84 850q0 40 37 72t46 37.5t32 5.5q15 -1 39 -71q26 -77 60 -255.5t48 -208.5q61 -125 146 -213v82q0 161 33.5 273t58.5 159q111 223 254 223q73 0 103.5 -32.5t25 -141.5t-28 -110.5t-48.5 -3.5t-46.5 17t-39 44t-34.5 46.5t-32 21.5t-40 -39t-63.5 -190t-46.5 -482
q-25 -445 -35 -499t-26 -97t-81 -160q-27 -49 -69.5 -78.5t-70.5 -19.5t-38 23.5t-12 27.5t1 26.5t3 18.5q63 100 105.5 170t76 163.5t33.5 291.5l-2 61q-39 6 -71.5 28t-91.5 111q-115 170 -170.5 363t-55.5 336z" />
    <glyph glyph-name="z" unicode="z" horiz-adv-x="819" 
d="M776 -133q0 -143 -162 -223q-131 -70 -288 -70q-47 0 -47 27q-1 14 85 43t132 63q78 59 77 148q0 31 2.5 105.5t-360.5 74.5q-35 -1 -35 41t38 118t79 154t102 189.5t107.5 193t46.5 114.5q0 32 -80 32q-186 0 -244 -132l-43 -110q-37 -86 -57 -86q-72 0 -72 264
q0 125 80 125h621q33 0 33 -14q0 -33 -13.5 -60.5t-43.5 -78t-86 -154.5q-67 -124 -139 -272.5t-84 -170.5q-13 -22 11.5 -35.5t105.5 -38.5t111 -44q59 -25 91 -81t32 -122z" />
    <glyph glyph-name="braceleft" unicode="{" horiz-adv-x="815" 
d="M301 -57q0 49 24 156t23 161q0 82 -72 142t-157 67v43q85 8 157 65t72 144q0 53 -24 162t-23 155q0 150 113 257t264 126v-35q-227 -53 -227 -227q1 -53 23 -167t22 -156q0 -121 -88 -211t-207 -131q125 -46 209 -138t86 -211q0 -39 -23 -155q-23 -115 -22 -168
q0 -174 227 -230v-34q-156 22 -266 128t-111 257z" />
    <glyph glyph-name="bar" unicode="|" horiz-adv-x="534" 
d="M215 444q0 428 8 1010h88q29 -767 0 -1765h-88q-8 327 -8 755z" />
    <glyph glyph-name="braceright" unicode="}" horiz-adv-x="772" 
d="M471 1038q-1 -47 -23 -156t-22 -163q0 -87 71 -143t156 -64v-43q-87 -8 -157 -64t-70 -133t23 -179t22 -150q0 -150 -115 -260q-113 -104 -262 -125v34q227 55 228 230q0 38 -23 162q-25 104 -25 159q0 121 88 211t209 133q-125 47 -202 131q-94 96 -95 218q0 54 24 162
t24 161q0 174 -228 227v35q153 -20 265 -127t112 -256z" />
    <glyph glyph-name="asciitilde" unicode="~" horiz-adv-x="1202" 
d="M944 396q-119 -50 -200 -50t-237 45q-157 45 -213 45t-104 -20t-54 -20t-12.5 8t-37.5 28q147 123 309 123q74 0 206 -40t200 -40q176 0 262 76l8 2q3 -3 37 -43q-45 -64 -164 -114z" />
    <glyph glyph-name="nonbreakingspace" unicode="&#xa0;" horiz-adv-x="512" 
 />
    <glyph glyph-name="_95" unicode="&#xa6;" horiz-adv-x="1024" 
d="M469 274h88v-720h-88v720zM469 1391h88v-723h-88v723z" />
    <glyph glyph-name="dieresis" unicode="&#xa8;" horiz-adv-x="815" 
d="M313 1238q0 -46 -31.5 -79t-78.5 -33t-81 33t-34 79t32 79t78 33t80.5 -33t34.5 -79zM705 1240q0 -46 -32 -80t-78 -34t-79 33t-33 79t33 79t79 33t78 -32t32 -78z" />
    <glyph glyph-name="quillemotleft" unicode="&#xab;" horiz-adv-x="1024" 
d="M543 836q0 -49 -267 -371q264 -338 264 -365t-22 -26q-6 0 -206 183t-226 202q16 16 85 79.5t143 133.5t206 186q23 1 23 -22zM934 836q0 -43 -266 -371q264 -338 264 -365t-23 -26q-6 0 -206 184t-226 201q37 33 92.5 82t200.5 183t141 134q23 1 23 -22z" />
    <glyph glyph-name="acute" unicode="&#xb4;" horiz-adv-x="620" 
d="M209 1069h-66l125 340h224z" />
    <glyph glyph-name="Paragraph" unicode="&#xb6;" horiz-adv-x="927" 
d="M440 369q0 -311 -22 -431t-121 -180l2 -12q207 41 270 223q39 109 39 400v383q0 210 10 362t68 203h-164q-14 0 -42 -51t-34 -111q-2 -8 -2 -31.5t-2 -62.5l-2 -88v-604zM733 862v-557q0 -244 -61 -368q-115 -236 -434 -236q-102 0 -156 35q-53 27 -57 90q0 37 26 63
q29 23 66 23t63.5 -23.5t28.5 -64.5q4 -18 -6 -31q-2 -8 -17 -29q111 -2 156 115q23 66 35 232q2 12 2 42.5t2 79.5v342q-197 0 -311 116t-113 276q0 96 51 190q71 130 204.5 164t350.5 35h322v-39q-57 -4 -91 -33q-61 -52 -61 -422z" />
    <glyph glyph-name="periodcentered" unicode="&#xb7;" horiz-adv-x="565" 
d="M295 717q49 0 84 -35t35 -83t-35 -82t-83 -34t-82 35t-34 83t33 82t82 34z" />
    <glyph glyph-name="guillemotright" unicode="&#xbb;" horiz-adv-x="1024" 
d="M90 836q0 23 21 22q8 0 69 -61q61 -53 151.5 -138t213.5 -200q-164 -131 -420 -381l-12 -4q-21 0 -21 28t262 363q-264 326 -264 371zM481 836q0 23 21 22q206 -183 434 -399q-165 -132 -420 -381q-4 0 -12 -4q-20 0 -21 22q0 39 262 369q-264 326 -264 371z" />
    <glyph glyph-name="dotlessi" unicode="&#x131;" horiz-adv-x="473" 
d="M326 20q0 -35 -68 -34h-59q-49 0 -49 34v889q0 35 63 35h45q68 0 68 -35v-889z" />
    <glyph glyph-name="Gravecomb" unicode="&#x300;" 
d="M-197 1098l-209 401h191l70 -401h-52z" />
    <glyph glyph-name="Acutecomb" unicode="&#x301;" 
d="M-342 1098h-53l69 401h191z" />
    <glyph glyph-name="uni0302" unicode="&#x302;" 
d="M-429 1374q108 0 171 -51t59 -135q-17 -76 -49 -76q-22 0 -28.5 18.5t-21.5 62t-56 58.5q-48 21 -89 21q-79 0 -131.5 -25.5t-59.5 -68.5q-7 -44 -25.5 -57t-47.5 -13q-118 0 5 141q43 53 104 89t169 36z" />
    <glyph glyph-name="macroncomb" unicode="&#x304;" 
d="M-141 1309v-109h-539v109h539z" />
    <glyph glyph-name="overlinecmb" unicode="&#x305;" 
d="M-20 1348v-109h-771v109h771z" />
    <glyph glyph-name="uni0306" unicode="&#x306;" 
d="M-723 1233q0 141 119 141q33 0 33 -12q0 -18 -21 -47q-20 -35 -20 -47q0 -58 108 -58q147 -1 234 72l53 53q33 35 57 35t23.5 -18.5t-29.5 -57.5q-139 -186 -352 -186q-102 0 -153.5 36t-51.5 89z" />
    <glyph glyph-name="Dotaccentcomb" unicode="&#x307;" 
d="M-313 1102q-43 0 -74 30t-31 71.5t32 72.5t75 31t73 -30t30.5 -73t-31 -72.5t-74.5 -29.5z" />
    <glyph glyph-name="Dieresiscomb" unicode="&#x308;" 
d="M-659 1104q-41 0 -70 28.5t-29 70.5t29 71t70 29t69.5 -29t28.5 -71t-28.5 -70.5t-69.5 -28.5zM-254 1104q-39 0 -68 31q-28 31 -28 71t28.5 68.5t69.5 28.5t69.5 -29t28.5 -72q0 -98 -100 -98z" />
    <glyph glyph-name="Hungarumlautcomb" unicode="&#x30b;" 
d="M-195 1108l-53 -2l72 403h190zM-487 1102h-54l72 403h190z" />
    <glyph glyph-name="Dblgravecomb" unicode="&#x30f;" 
d="M-391 1102l-209 401h190l70 -403zM-98 1096l-209 403h190l72 -403h-53z" />
    <glyph glyph-name="uni0311" unicode="&#x311;" 
d="M-432 1292q-115 0 -164 -57q-12 -7 -14 -19l-6 -36q-8 -49 -70 -52q-119 1 4 142q101 125 280 125q108 1 168 -51t56 -136q-16 -76 -50 -76q-22 0 -28 19l-14 42q-21 64 -64 79q-46 20 -98 20z" />
    <glyph glyph-name="tildeverticalcmb" unicode="&#x33e;" 
d="M-477 1169q97 42 57 122q-38 72 -54 100q-30 55 -30 69q-10 72 34 116t140 71l13 -86q-45 -9 -61 -29t-11 -53l45 -95q39 -56 48 -116q19 -127 -171 -174z" />
    <glyph glyph-name="uni0360" unicode="&#x360;" 
d="M614 1473q-21 -84 0 -211h-1073q-10 -59 0 -148h-114q-29 102 0 211h1069q-20 86 0 148h118z" />
    <glyph glyph-name="uni0361" unicode="&#x361;" 
d="M-664 1128q-61 0 -61 41q1 41 109 128q206 165 573 165q232 0 392 -54t293 -138q134 -84 134 -117l-31 -6q-35 16 -73 39t-109 57q-295 131 -602 131q-136 0 -277 -42q-142 -42 -200 -101q-29 -31 -29 -61t2 -33q-27 -9 -121 -9z" />
    <glyph glyph-name="uni0374" unicode="&#x374;" horiz-adv-x="536" 
d="M145 1069h-65l125 340h221z" />
    <glyph glyph-name="uni0375" unicode="&#x375;" horiz-adv-x="536" 
d="M186 -254h-65l125 340h221z" />
    <glyph glyph-name="uni037E" unicode="&#x37e;" horiz-adv-x="415" 
d="M125 881q0 25 31 39q32 14 72 14t70 -14t30 -37v-146q0 -23 -30 -38t-71 -15t-71 15t-31 40v142zM240 215q38 0 60 -14t15 -37l-61 -297q-7 -34 -36 -65q-29 -32 -56 -47t-60 -15t-26 29l84 401q10 45 80 45z" />
    <glyph glyph-name="Anoteleia" unicode="&#x387;" horiz-adv-x="389" 
d="M117 692q-1 39 31 71t72 32t77 -33q35 -35 35 -80t-32 -80t-81 -35q-102 0 -102 125z" />
    <glyph glyph-name="uni0400" unicode="&#x400;" horiz-adv-x="831" 
d="M510 1499l-199 326h211l60 -328zM805 667q0 -56 -57 -96q-53 -33 -107 -32q-18 0 -70 82q-55 82 -69 81q-31 0 -127 -54t-96 -81q-1 -94 83 -233t170 -139q66 0 120.5 49t92.5 84l31 -15q-8 -45 -159 -190t-189 -146q-141 0 -258 293q-98 246 -98 428t155 435
q172 272 353 272q54 -1 122 -109t68 -172t-33 -96q-33 -33 -84 -63l-49 2q-6 88 -45 166q-49 100 -123 100q-88 0 -145 -148q-47 -119 -47 -231t20 -221q365 207 418 207t90 -64q33 -53 33 -109z" />
    <glyph glyph-name="afii10023" unicode="&#x401;" horiz-adv-x="831" 
d="M289 1466q-45 0 -72 42t-27 92t26 92t73 41.5t73 -45.5q25 -38 25 -88q-1 -50 -27 -92t-71 -42zM696 1466q-46 0 -72 42t-26 92t26 92t72.5 41.5t73.5 -45.5q25 -37 25 -89q-1 -133 -99 -133zM805 667q0 -56 -57 -96q-53 -33 -107 -32q-18 0 -70 82q-55 82 -69 81
q-31 0 -127 -54t-96 -81q-1 -94 83 -233t170 -139q66 0 120.5 49t92.5 84l31 -15q-8 -45 -159 -190t-189 -146q-141 0 -258 293q-98 246 -98 428t155 435q172 272 353 272q54 -1 122 -109t68 -172t-33 -96q-33 -33 -84 -63l-49 2q-6 88 -45 166q-49 100 -123 100
q-88 0 -145 -148q-47 -119 -47 -231t20 -221q365 207 418 207t90 -64q33 -53 33 -109z" />
    <glyph glyph-name="cyDJE" unicode="&#x402;" horiz-adv-x="1067" 
d="M154 0q-33 0 -33 49v1137h-121v88h121v186q0 43 101 43t102 -43v-186h383q12 -41 0 -88h-383v-381q47 138 131 170.5t147 32.5q178 0 278.5 -84t100.5 -232v-442q0 -126 -110.5 -205.5t-256.5 -79.5q-34 0 -41.5 30t27.5 42q16 4 37.5 6t56 8.5t60.5 38.5q59 78 53 266.5
t-5 238.5q3 147 -52.5 241t-196.5 94q-122 0 -229 -213v-666q0 -51 -41 -51h-129z" />
    <glyph glyph-name="afii10052" unicode="&#x403;" horiz-adv-x="901" 
d="M391 1497l60 328h211l-197 -326zM817 913q-33 1 -59 89q-52 173 -76 208q-61 104 -168 105h-43q-71 0 -109 -21t-38 -86v-1163q0 -45 -102 -45t-101 49v1299q0 43 51 43h600q76 0 100 -80q10 -37 11 -142q0 -256 -66 -256z" />
    <glyph glyph-name="cyuaYE" unicode="&#x404;" horiz-adv-x="1357" 
d="M807 715q-115 0 -354 -2q-145 0 -146 -41q0 -176 80 -332t223 -234q80 -43 154 -43q217 0 287 101q8 12 61 188q31 100 145 101q70 0 70 -113q0 -162 -197 -266q-162 -88 -340 -88t-338 80t-272 230q-110 150 -110 407q0 256 182 466q207 236 555 236q154 0 301 -72
q174 -86 174 -225q0 -39 -24 -69t-56 -29q-57 0 -112 88q-86 135 -113 164q-86 88 -213 88q-242 0 -369 -232q-92 -166 -92 -301q0 -49 43 -49l750 10q86 0 86 -82q0 -76 -31 -102.5t-107 -26.5q-109 0 -108 82l8 49q0 16 -33 17h-104z" />
    <glyph glyph-name="cyDZE" unicode="&#x405;" horiz-adv-x="1081" 
d="M1022 401q0 -419 -328 -419q-114 0 -192 27.5t-110 39.5t-56.5 12t-46 -21.5t-42 -48t-41 -48t-44.5 -21.5q-94 0 -94 53q0 102 84 181q41 35 84 44t90 9q4 0 130 -61.5t148 -61.5q102 0 158 80q39 57 39 188q0 184 -76 246q-57 45 -227 70q-41 6 -48 7l-63 9
q-54 9 -104 37q-138 88 -138 309q0 373 394 373q434 0 434 -367q0 -68 -75 -68t-98.5 20.5t-41.5 76.5q-13 96 -27 176q-14 47 -76.5 70.5t-140.5 23.5t-123 -98q-33 -75 -33 -163q0 -157 42.5 -239.5t121.5 -82.5q201 0 312 -71t149.5 -126t38.5 -156z" />
    <glyph glyph-name="afii10055" unicode="&#x406;" horiz-adv-x="440" 
d="M332 23q0 -43 -80 -43q-123 0 -123 43v1327q0 41 123 41q80 0 80 -43v-1325z" />
    <glyph glyph-name="cyuaYI" unicode="&#x407;" horiz-adv-x="620" 
d="M108 1466q-46 0 -72 42t-26 92t26 92t73 41.5t73 -45.5q25 -38 25 -88q-1 -50 -27 -92t-72 -42zM516 1466q-41 0 -74 45q-22 37 -22 89t26 92t71 41q44 0 75 -45q23 -39 22 -89q0 -133 -98 -133zM414 23q0 -43 -80 -43q-123 0 -123 43v1327q0 41 123 41q80 0 80 -43
v-1325z" />
    <glyph glyph-name="afii10057" unicode="&#x408;" horiz-adv-x="540" 
d="M498 954q0 -229 -73 -507t-185 -437q-39 -53 -80 -80.5t-64 -27.5q-31 0 -20 26q9 12 45 82q97 209 135.5 456.5t38.5 406.5q0 217 -31 395q-59 12 -118.5 -0.5t-118.5 -20.5v119q98 10 193.5 18t191.5 0q31 -16 46.5 -57t27.5 -155t12 -218z" />
    <glyph glyph-name="afii10058" unicode="&#x409;" horiz-adv-x="1677" 
d="M1378 188q0 174 -137 326q-87 103 -280 231v-583q0 -92 77 -92h199q141 -1 141 118zM875 1391q86 0 86 -37v-543l200 -106q168 -90 305 -226q170 -170 170 -317q0 -162 -303 -162h-514q-61 0 -61 43v1274h-373q33 -144 33 -296q0 -284 -63 -567.5t-177 -443.5
q-78 -109 -123 -108q-27 0 -20 26q14 18 45 82q82 172 117 338q26 160 26 418q0 327 -26 522l-7 43q0 16 11.5 39t52.5 23l108 -1z" />
    <glyph glyph-name="afii10059" unicode="&#x40a;" horiz-adv-x="1767" 
d="M1477 188q0 226 -161 359t-259 198v-583q0 -92 80 -92h196q144 -1 144 118zM1735 162q0 -162 -303 -162h-514q-63 0 -64 43v694h-522v-706q0 -43 -80 -43q-123 0 -123 43v1325q0 41 123 41q80 0 80 -43v-541h522v547q0 37 131 37q72 0 72 -37v-549l203 -106
q174 -93 303 -226q172 -170 172 -317z" />
    <glyph glyph-name="afii10060" unicode="&#x40b;" horiz-adv-x="1128" 
d="M821 575q0 139 -47 217t-188 78t-262 -127v-700q0 -43 -41 -43h-129q-33 0 -33 41v1167h-121v97h121v186q0 43 101 43t102 -43v-186h391q20 -45 0 -97h-391v-403q91 112 187.5 137t131.5 25q163 0 271 -81t108 -235v-495q0 -68 61 -68q33 0 60 16q0 -119 -205 -118
q-123 0 -123 225v33q0 32 2 67l1 55z" />
    <glyph glyph-name="afii10061" unicode="&#x40c;" horiz-adv-x="1050" 
d="M463 1497l57 328h211l-196 -326zM324 43q0 -53 -102 -53t-101 49v1302q0 49 101 49t102 -40v-1307zM924 -8q-30 0 -190 198t-216 283q-112 163 -112 273t116 282q254 377 369 377q63 0 98 -74q29 -55 29 -115t-20 -124q-20 -66 -52 -72l-92 115q-76 88 -102 88
q-37 0 -113 -136q-78 -131 -78 -172q0 -192 187.5 -408t304.5 -349q-2 -46 -44 -106t-85 -60z" />
    <glyph glyph-name="uni040D" unicode="&#x40d;" horiz-adv-x="1185" 
d="M618 1499l-196 326h211l57 -328zM121 1341q0 49 101 49t102 -40v-942l594 743v197q0 43 101 43t101 -43v-1307q0 -51 -123 -51q-80 0 -79 51v999l-594 -747v-250q0 -53 -102 -53t-101 49v1302z" />
    <glyph glyph-name="afii10062" unicode="&#x40e;" horiz-adv-x="1007" 
d="M961 1307q0 -72 -23.5 -164t-48.5 -92q-13 0 -57 62.5t-44 64.5q-12 0 -20 -31q-66 -205 -134 -434t-122 -377q-82 -223 -132 -297t-69 -74q-5 0 -29 11.5t-51 21.5t-30.5 25.5t2.5 32t9 19.5l21 29q6 8 20.5 18.5t47 41t80.5 131.5q49 101 49 205q0 14 -56 107t-144 252
t-139.5 292t-51.5 186q0 22 35 48t73 26q39 0 68 -43q1 -6 67 -167q149 -365 244 -468q40 56 88 237t66 259t65 128t91 50t84.5 -29t40.5 -71zM270 1651q0 141 117 141q35 0 35 -12q0 -18 -20.5 -47t-20.5 -47q0 -58 108 -58t163 29t71 43l51 53q36 37 58 37t22 -22t-27 -56
q-140 -186 -352 -186q-102 0 -153.5 36t-51.5 89z" />
    <glyph glyph-name="cyDZHE" unicode="&#x40f;" horiz-adv-x="1284" 
d="M567 -345q-35 15 -35 52l5 293h-369q-47 0 -47 37v1329q-1 31 107 31t108 -19l-4 -1249q0 -47 55 -47h414q45 0 83 30.5t38 73.5l4 1180q0 33 107 33t108 -33v-1329q0 -37 -56 -37h-350v-293q0 -52 -40 -59.5t-66 -7.5q-27 0 -62 15z" />
    <glyph glyph-name="cyA" unicode="&#x410;" horiz-adv-x="1159" 
d="M686 657l-158 428q-113 -276 -243 -770zM1143 29q0 -29 -41 -29h-117q-57 0 -88 88l-186 506l-447 -373q-33 -156 -37 -166q-31 -66 -135 -65q-72 0 -72 53t86 264t138.5 325t99.5 216t71.5 158.5t57.5 132.5q10 35 10 61q0 76 -39 96l-86 19q-61 12 -61 48t180 36
q127 0 223 -154q72 -113 136 -323l86 -281l219 -606q2 -2 2 -6z" />
    <glyph glyph-name="cyBE" unicode="&#x411;" horiz-adv-x="989" 
d="M745 197q0 133 -145 324t-276 222v-606q0 -47 22 -62t72 -16h186q59 -1 100 41t41 97zM975 193q0 -193 -326 -193h-420q-109 0 -108 74v1247q0 70 65 70h623q78 0 102 -41q20 -29 21 -113q0 -297 -51 -297q-31 0 -74 88q-74 158 -84 174q-61 102 -124 120q-63 17 -147 17
t-108 -30q-20 -31 -20 -95v-391q183 -78 397 -262q254 -216 254 -368z" />
    <glyph glyph-name="cyVE" unicode="&#x412;" horiz-adv-x="1028" 
d="M735 162q0 266 -264 504q-79 74 -113 74t-34 -33v-633h290q121 0 121 88zM672 1266q0 70 -217 69h-90q-41 0 -41 -55v-438q112 0 230 154t118 270zM999 143q0 -76 -84 -112q-66 -31 -147 -31h-575q-72 0 -72 70v1267q0 53 59 54h490q199 0 198 -127q0 -197 -442 -469
q573 -406 573 -652z" />
    <glyph glyph-name="cyGE" unicode="&#x413;" horiz-adv-x="901" 
d="M817 913q-33 1 -59 89q-52 173 -76 208q-61 104 -168 105h-43q-71 0 -109 -21t-38 -86v-1173q0 -45 -102 -45t-101 49v1309q0 43 51 43h600q76 0 100 -80q10 -37 11 -142q0 -256 -66 -256z" />
    <glyph glyph-name="cyDE" unicode="&#x414;" horiz-adv-x="1456" 
d="M434 63h547q-96 506 -324 1051l-28 -8l-238 -1004q6 -39 43 -39zM588 1208q0 47 -68 119q4 33 53 51q39 18 78 19q176 0 327.5 -530.5t215.5 -778.5q27 -20 115 -20q125 0 125 -88q0 -148 -19 -201q-31 -96 -125 -96q-49 0 -69.5 19t-15.5 54q16 112 16 217q0 37 -62 37
h-194q-61 2 -73 2h-339q-114 0 -211 -10q-65 -7 -86 -84l-16 -164q-16 -35 -38 -52t-63 -17q-41 -1 -73 27t-31 70q0 42 -2 100.5t14 92.5q45 92 135 93l56 -2q63 0 87 72q60 182 160 706q27 126 70 270q33 74 33 94z" />
    <glyph glyph-name="cyYE" unicode="&#x415;" horiz-adv-x="831" 
d="M805 667q0 -56 -57 -96q-53 -33 -107 -32q-18 0 -70 82q-55 82 -69 81q-31 0 -127 -54t-96 -81q-1 -94 83 -233t170 -139q66 0 120.5 49t92.5 84l31 -15q-8 -45 -159 -190t-189 -146q-141 0 -258 293q-98 246 -98 428t155 435q172 272 353 272q54 -1 122 -109t68 -172
t-33 -96q-33 -33 -84 -63l-49 2q-6 88 -45 166q-49 100 -123 100q-88 0 -145 -148q-47 -119 -47 -231t20 -221q365 207 418 207t90 -64q33 -53 33 -109z" />
    <glyph glyph-name="cyZHE" unicode="&#x416;" horiz-adv-x="1384" 
d="M1380 109q0 -51 -65 -91t-125 -41q-45 0 -57 86l-9 123q-12 148 -106 328t-211 234v-687q0 -75 -90 -75t-90 69v686q-106 -57 -197 -198q-74 -123 -111 -260l-61 -244q-12 -51 -59 -51t-104.5 45t-57.5 94t43 137q162 346 547 561q-274 109 -434 308q-82 100 -82 163
q0 33 67 70q57 35 98 35q29 0 41 -53l13 -78q20 -126 101 -232t196 -145v432q0 33 25.5 54.5t58.5 21.5q94 0 94 -60v-444q106 0 174 131q31 63 74 219t71 156t95 -36q68 -36 67 -60q0 -49 -54 -135q-97 -155 -192 -222q-68 -49 -233 -129q397 -250 541 -579q32 -82 32 -133
z" />
    <glyph glyph-name="cyZE" unicode="&#x417;" horiz-adv-x="1015" 
d="M1014 -61q0 -141 -150 -238q-129 -80 -280 -80q-72 0 -72 31t66 45q121 26 157 47q76 45 76 137q0 131 -186 131q-74 0 -214 -13t-218 -13q-133 0 -134 53q0 25 27 72l610 1108q25 43 25 84q0 35 -119 34q-190 0 -274 -102q-6 -4 -72 -130t-86 -126q-59 0 -59 213
q1 98 29 148t128 51h635q78 0 78 -45t-13 -74q-12 -30 -98 -182t-306 -546t-220 -440q0 -31 55 -30h469q58 0 102 -38t44 -97z" />
    <glyph glyph-name="cyI" unicode="&#x418;" horiz-adv-x="1202" 
d="M1135 43q1 -43 -99 -43t-100 43v737h-588l-2 -737q0 -43 -103 -43t-104 43v1305q-1 43 103 43t104 -43v-490h586v490q0 43 101 43t102 -43v-1305z" />
    <glyph glyph-name="cyIKRATKOE" unicode="&#x419;" horiz-adv-x="1159" 
d="M360 1640q0 143 117 144q35 0 35 -14.5t-20 -45.5t-21 -49q0 -57 125 -57q51 0 118 22t99 50l51 55q39 35 59.5 35t20.5 -22t-26 -56q-140 -186 -353 -186q-104 0 -154.5 35.5t-50.5 88.5zM121 1341q0 49 101 49t102 -40v-942l594 743v197q0 43 101 43t101 -43v-1307
q0 -51 -123 -51q-80 0 -79 51v999l-594 -747v-250q0 -53 -102 -53t-101 49v1302z" />
    <glyph glyph-name="cyKA" unicode="&#x41a;" horiz-adv-x="1050" 
d="M324 43q0 -53 -102 -53t-101 49v1302q0 49 101 49t102 -40v-1307zM924 -18q-29 0 -203 217q-76 95 -196 266q-119 171 -119 281t116 282q254 377 369 377q63 0 98 -74q29 -55 29 -115t-20 -124q-20 -66 -52 -72l-92 115q-76 88 -102 88q-37 0 -113 -136
q-78 -131 -78 -172q0 -147 189 -403q100 -134 303 -365q-2 -45 -44 -105t-85 -60z" />
    <glyph glyph-name="cyEL" unicode="&#x41b;" horiz-adv-x="1134" 
d="M173 -10q-99 0 -99 76q0 136 87 352t171 325l88 107q57 72 57 113t-94 196q-90 162 -90 189q0 45 65 45q150 0 174 -47l553 -1221q27 -55 27 -95t-78 -40t-110 12q-31 12 -54 64l-323 755q-16 35 -37 35q-14 0 -72 -124q-120 -255 -121 -480l15 -141q0 -81 -30 -101
t-129 -20z" />
    <glyph glyph-name="cyEM" unicode="&#x41c;" horiz-adv-x="1427" 
d="M1374 23q0 -43 -102 -43t-101 43l11 1148l-21 -2q-72 -434 -110 -618q-104 -471 -203 -537q-45 -29 -107 -28q-171 0 -231.5 285.5t-91.5 451.5l-82 446h-23l11 -1142q0 -43 -102 -43t-101 43v1327q0 37 39 37h176q31 0 43 -62l133 -624q98 -463 252 -463q137 0 260 585
l104 502q12 61 50 62h163q33 0 33 -37v-1331z" />
    <glyph glyph-name="cyEN" unicode="&#x41d;" horiz-adv-x="1169" 
d="M1120 29q0 -49 -102 -49t-100 53v270l-594 748v-1020q0 -51 -102 -51t-101 51v1327q0 43 101 43t102 -43v-197l594 -743v942q0 41 101 41t101 -49v-1323z" />
    <glyph glyph-name="cyO" unicode="&#x41e;" horiz-adv-x="991" 
d="M786 553q0 383 -235 586q-72 61 -117 61q-88 0 -151 -114t-64 -212q0 -379 260 -606q78 -70 125 -69q96 0 146 137q36 98 36 217zM940 745q0 -399 -326 -688q-84 -71 -132 -71t-136 86q-281 276 -280 639q0 248 210 503q156 193 259 193q39 0 127 -78q278 -252 278 -584z
" />
    <glyph glyph-name="cyPE" unicode="&#x41f;" horiz-adv-x="1259" 
d="M1130 35q0 -37 -43 -43q-8 -2 -64 -2t-62 2q-33 6 -33 41v1227q0 63 -94 63h-441q-70 0 -69 -72l2 -1231q0 -30 -102 -30t-103 43v1308q0 49 53 50h899q57 0 57 -50v-1306z" />
    <glyph glyph-name="cyER" unicode="&#x420;" horiz-adv-x="931" 
d="M715 1028q0 123 -70 211q-73 98 -197 98t-124 -61v-596q0 -70 38 -70q172 0 262 120t91 298zM911 1041q0 -223 -176 -355t-411 -133v-530q0 -43 -102 -43t-101 43v1308q0 59 131 60q268 0 420 -48q239 -79 239 -302z" />
    <glyph glyph-name="cyES" unicode="&#x421;" horiz-adv-x="847" 
d="M547 -14q-152 0 -309 238t-156 405q0 489 352 731q63 45 103 45q92 0 178 -117t86 -211q0 -43 -45 -113t-84 -71q-14 1 -53 97t-70 143q-53 84 -127 84t-123 -136q-39 -104 -39 -202q0 -188 80 -398q98 -264 252 -264q47 0 186 129h58q-231 -360 -289 -360z" />
    <glyph glyph-name="cyTE" unicode="&#x422;" horiz-adv-x="1161" 
d="M1094 1391q67 1 67 -215t-67 -215q-29 -1 -59 111t-60 159q-57 94 -172 94q-88 0 -88 -106v-1196q1 -43 -101 -43t-102 47v1196q0 102 -106 102q-150 0 -193 -127l-41 -129q-35 -102 -53 -102q-33 1 -48 71t-16 131q0 180 35 205q23 16 70 17h934z" />
    <glyph glyph-name="cyU" unicode="&#x423;" horiz-adv-x="978" 
d="M961 1307q0 -72 -23.5 -164t-48.5 -92q-5 0 -58 63.5t-53 73.5q-8 0 -20 -31q-66 -205 -133 -438.5t-133 -415.5t-114 -260t-67 -78q-7 0 -37 14.5t-46.5 21.5t-20.5 9q-58 20 -3 93q15 20 66 43.5t106 136.5q54 113 54 217q0 14 -56 107t-144 252t-139.5 292t-51.5 186
q0 22 35 48t73 26q39 0 68 -43q1 -6 67 -167q149 -365 244 -468q40 56 88 237t66 259t65 128t91 50t84.5 -29t40.5 -71z" />
    <glyph glyph-name="cyEF" unicode="&#x424;" horiz-adv-x="1437" 
d="M653 1116q-183 0 -293 -150t-110 -348t94 -317q109 -129 309 -127v942zM1217 663q0 203 -150 341q-121 109 -246 112v-942q188 0 297 152q99 134 99 337zM657 1202v45q0 463 154 510q45 15 135 15t90 -48q0 -16 -36 -53t-82 -86q-76 -96 -81.5 -204.5t-5.5 -178.5
q242 0 408 -154t166 -395q0 -561 -590 -569q-11 -193 -85 -421q-73 -229 -191 -353h-64q-25 20 -24 57v2l2 10q197 346 196 705q-256 0 -413 115q-180 133 -181 376q0 275 165 451t437 176z" />
    <glyph glyph-name="cyHA" unicode="&#x425;" horiz-adv-x="1009" 
d="M258 41q0 -61 -119 -61q-51 0 -65 14q-23 14 -23 74t78 249t238 476q-301 519 -301 561q0 43 94 43q48 0 72 -21.5t32 -36t15 -26.5l184 -344q25 45 77.5 143.5t82.5 136.5q106 158 186 158q80 1 120 -59t40 -135t-23 -134q-29 -84 -82 -84q-10 -1 -84 105t-86 106
q-22 0 -81.5 -102.5t-108.5 -206.5l463 -836q16 -27 16 -53t-12.5 -27t-88.5 -1t-102 51l-366 676q-156 -360 -156 -666z" />
    <glyph glyph-name="cyTSE" unicode="&#x426;" horiz-adv-x="1331" 
d="M1298 -43q0 -91 -49 -183t-79.5 -125.5t-67.5 -33.5t-70 37q-16 16 -13 31t3 43t41 113t41 128q0 33 -94 33h-828q-61 0 -61 53v1295q0 45 101 45t102 -43v-1209q0 -72 55 -71h434q61 0 61 82v1202q0 37 68 37q135 0 135 -33v-1204q0 -70 64 -82l96 -9q61 -16 61 -106z
" />
    <glyph glyph-name="cyCHE" unicode="&#x427;" horiz-adv-x="1251" 
d="M627 844q123 0 235 53q135 68 135 172t-67 139l-51 21q-39 16 -39 26q0 43 50 97t91 55q85 0 149 -81t64 -171q0 -178 -150 -291q-133 -106 -317 -106v-721q0 -57 -101 -57t-102 57v721q-184 0 -317 106q-150 113 -150 291q0 135 129 219q47 33 86 33t89 -54t51 -98
q0 -8 -41 -26l-52 -21q-66 -37 -65 -133q0 -115 137 -178q113 -53 236 -53z" />
    <glyph glyph-name="cySHA" unicode="&#x428;" horiz-adv-x="1878" 
d="M1841 1348v-1305q0 -43 -61 -43h-1608q-43 0 -43 43v1300q0 47 72 48q131 0 131 -52v-1210q0 -59 55 -59h416q68 0 67 53v1208q0 41 35 53q16 8 72 9q96 0 96 -54v-1214q0 -55 57 -55h453q55 0 55 53v1223q0 37 45 45l72 2q86 0 86 -45z" />
    <glyph glyph-name="cySHCHA" unicode="&#x429;" horiz-adv-x="1880" 
d="M1841 1348v-1305q0 -43 -61 -43h-707v-330q0 -51 -86 -51q-117 0 -117 55v326h-698q-43 0 -43 43v1300q0 47 72 48q131 0 131 -52v-1210q0 -59 55 -59h416q68 0 67 53v1208q0 41 35 53q16 8 72 9q96 0 96 -54v-1214q0 -55 57 -55h453q55 0 55 53v1223q0 37 45 45l72 2
q86 0 86 -45z" />
    <glyph glyph-name="cyYOR" unicode="&#x42a;" horiz-adv-x="1169" 
d="M946 289q0 117 -80 307t-159 246q-258 -735 -258 -738q0 -37 34 -36l289 2q174 2 174 219zM1163 256q0 -156 -123 -213q-86 -43 -260 -43h-499q-70 0 -70 47q0 14 6 33l404 1153q12 33 12 70q0 20 -101 20q-254 0 -307 -119l-53 -143q-43 -104 -86 -105q-23 0 -34 45
t-11 84v224q0 82 88 82h688q51 0 51 -48q0 -77 -63 -205t-64 -204q0 -14 123 -158t191 -244q108 -167 108 -276z" />
    <glyph glyph-name="cyYERU" unicode="&#x42b;" horiz-adv-x="1370" 
d="M301 121q0 -55 51 -55h357q41 0 67 41t25 83q-1 177 -189 359q-139 135 -311 217v-645zM1227 -23q-102 0 -103 84v1256q0 41 31 65t72 23.5t71 -24.5t29 -60v-1260q0 -37 -31 -61q-32 -23 -69 -23zM193 0q-43 0 -70 41q-25 33 -25 80v1202q0 37 35 61q81 46 124.5 10
t43.5 -73v-494q717 -332 717 -643q0 -184 -230 -184h-595z" />
    <glyph glyph-name="cyYer" unicode="&#x42c;" horiz-adv-x="1013" 
d="M743 188q0 226 -160.5 359t-258.5 198v-583q0 -92 79 -92h197q143 -1 143 118zM1001 162q0 -162 -303 -162h-514q-63 0 -63 43v1311q0 37 131 37q72 0 72 -37v-543l202 -106q170 -90 303 -226q172 -170 172 -317z" />
    <glyph glyph-name="cyE" unicode="&#x42d;" horiz-adv-x="1357" 
d="M352 567q-78 0 -104 27q-33 27 -33 102q0 82 86 82l750 -10q43 0 43 49q0 135 -93 301q-127 231 -368 232q-127 0 -213 -88q-27 -29 -113 -164q-55 -88 -112 -88q-33 0 -60 32q-20 31 -20 66q0 139 176 225q143 72 299 72q348 0 555 -236q182 -211 182 -464.5
t-119 -419.5q-102 -139 -263 -219t-338 -80t-341 88q-196 104 -196 266q0 113 69 113q115 0 146 -101q55 -179 61 -188q70 -100 287 -101q74 0 153 43q144 80 224 235t80 331q0 41 -146 41q-240 2 -354 2h-105q-33 0 -32 -17l8 -49q0 -82 -109 -82z" />
    <glyph glyph-name="cyYU" unicode="&#x42e;" horiz-adv-x="1581" 
d="M1401 553q0 383 -236 586q-72 61 -118 61q-89 0 -151 -116t-62 -210q0 -375 260 -606q78 -70 123 -69q98 0 147 135q37 100 37 219zM324 774v-751q0 -43 -102 -43t-101 43v1341q0 43 78 43q125 0 125 -43v-512h372q32 145 181 350t272 205q45 0 127 -76
q279 -256 278 -586q0 -391 -325 -688q-78 -71 -130 -71t-138 86q-281 276 -281 643l2 59h-358z" />
    <glyph glyph-name="afii10049" unicode="&#x42f;" horiz-adv-x="974" 
d="M586 1335q-248 0 -248 -69q0 -115 115 -267q61 -78 133.5 -117.5t130.5 -39.5v438q0 55 -41 55h-90zM717 707q0 33 -34 33t-108 -67q-125 -112 -175 -227.5t-76 -283.5l-5 -146q-31 -12 -60 -13t-67 -3t-65 -6t-27 35t8.5 97t73 278.5t432.5 390.5q-238 101 -355.5 228
t-117.5 241q0 127 199 127h518q61 0 62 -54v-1267q0 -70 -72 -70q-51 -2 -88 2t-43 33v672z" />
    <glyph glyph-name="CYa" unicode="&#x430;" horiz-adv-x="942" 
d="M238 262q0 -104 102 -104q72 0 143.5 28.5t118.5 85.5l-166 346q-54 -50 -126 -172t-72 -184zM932 20q0 -40 -86 -40t-101 26l-120 215q-64 -86 -205 -161.5t-242 -75.5q-45 0 -80 45t-35 98q0 97 121.5 276.5t221.5 264.5q-80 121 -103.5 189.5t-23.5 78.5q0 20 105 20
t118 -22l411 -850q19 -31 19 -64z" />
    <glyph glyph-name="CYbe" unicode="&#x431;" horiz-adv-x="901" 
d="M657 205q0 78 -133 215q-135 135 -213 135v-403q0 -33 22.5 -57.5t53.5 -24.5h135q135 0 135 135zM881 184q0 -96 -97 -143q-74 -41 -180 -41h-430q-49 0 -49 53v838q0 45 43 45h569q88 0 88 -117q0 -217 -65 -217q-20 0 -62 72q-49 94 -84 133q-66 72 -153 72
q-152 0 -152 -70v-195q220 -83 344 -163q228 -140 228 -267z" />
    <glyph glyph-name="CYve" unicode="&#x432;" horiz-adv-x="870" 
d="M625 154q0 96 -115 218t-205 124v-326q0 -119 184 -119q136 1 136 103zM561 778q0 47 -48 74t-95 27q-109 0 -109 -119v-180q90 0 171 55t81 143zM848 152q0 -99 -64 -132q-41 -20 -149 -20h-455q-55 0 -55 53v834q0 49 53 49h404q76 0 135 -27q80 -35 80 -98
q0 -100 -138 -182q-104 -66 -227 -92q145 -72 254 -160q162 -126 162 -225z" />
    <glyph glyph-name="CYge" unicode="&#x433;" horiz-adv-x="837" 
d="M813 754q0 -66 -14 -151t-47 -85q-39 0 -119 205q-43 106 -74 129q-33 22 -141 22t-109 -75l2 -789q0 -30 -93 -30t-93 40v869q0 47 37 47h555q96 0 96 -182z" />
    <glyph glyph-name="CYde" unicode="&#x434;" horiz-adv-x="1163" 
d="M558 59q30 0 49.5 1t37 4.5t34.5 6.5t46 9q-29 92 -47.5 177t-49 210.5t-104.5 230.5q-53 -117 -88 -269.5t-82 -344.5q33 -6 57.5 -11t48 -8.5t46 -4.5t52.5 -1zM432 856q0 26 55 61q55 36 91 35q23 0 61.5 -75t86.5 -169t60.5 -145t40.5 -172t88 -291q14 -10 34 -10
t32 11.5t33 11.5q63 0 84 -27q14 -23 14 -112t-27 -151t-47 -92t-53 -30t-55.5 22.5t-22.5 52.5q-1 30 9 78t8 71.5t-2 39.5q0 51 -74 51q-12 0 -19.5 -1t-16.5 -2t-21.5 -4t-83.5 -9t-95 -6l-282 16q-53 0 -84 -84l-33 -151q-31 -84 -86 -84q-39 0 -52.5 58t-13.5 173
t27 155t80 40l96 -21q14 0 27.5 73.5t189.5 592.5q-49 68 -49 94z" />
    <glyph glyph-name="CYye" unicode="&#x435;" horiz-adv-x="659" 
d="M68 507q0 125 124 285t254 160q42 0 92 -66t50 -112q0 -45 -36 -89t-83 -48q-55 86 -63 94q-45 63 -84 64q-41 0 -66 -72q-14 -63 -14 -107q0 -154 39 -153q35 0 136 48t146 48q16 0 45 -44q29 -45 29 -69t-37 -56t-70 -32q-10 0 -57 48q-43 49 -59 49q-35 0 -78 -30
t-43 -76t41 -116q43 -82 94 -81q72 0 152 61l18 -27q-39 -70 -118 -136t-146 -66q-96 0 -189 213q-77 186 -77 310z" />
    <glyph glyph-name="CYzhe" unicode="&#x436;" horiz-adv-x="1224" 
d="M721 20q0 -40 -92 -40t-92 45v471q-63 0 -124.5 -85t-91.5 -208q-31 -123 -48 -173t-52 -50t-100.5 48t-65.5 87t47.5 111.5t118 144t155.5 124t161 52.5v26q-107 0 -206.5 74t-141.5 127t-42 100q0 28 44.5 51t93.5 23q14 0 47 -102q69 -213 205 -213v278q0 35 92 35
t92 -31v-282q135 0 203 209q35 106 49 106q76 0 106.5 -28.5t30.5 -45.5q0 -49 -39 -102t-136 -126t-214 -73v-26q92 0 186 -68.5t195 -187.5q100 -123 100 -170t-60.5 -94t-102 -47t-71.5 116q-58 223 -113 311.5t-134 88.5v-476z" />
    <glyph glyph-name="CYze" unicode="&#x437;" horiz-adv-x="819" 
d="M926 -345q0 -136 -162 -216q-131 -70 -289 -70q-47 0 -47 27q0 14 86 43t131 63q78 59 78 148q0 119 -610 119q-35 0 -35 41q0 82 237 520q238 438 238 516q0 31 -80 31q-186 0 -244 -132l-43 -110q-37 -86 -57 -86q-72 0 -72 264q0 125 80 125h621q33 0 33 -14
q0 -86 -226 -498q-223 -422 -223 -485q0 -41 229 -60q86 -8 144 -17q211 -33 211 -209z" />
    <glyph glyph-name="CYi" unicode="&#x438;" horiz-adv-x="974" 
d="M895 29q0 -49 -61 -49q-123 0 -123 49v532h-402v-534q0 -47 -92 -47t-92 53v880q0 37 92 37t92 -39v-290h402v274q0 55 92 55t92 -55v-866z" />
    <glyph glyph-name="CYikratkoe" unicode="&#x439;" horiz-adv-x="905" 
d="M244 1159q0 143 116 144q33 1 33 -15t-20 -48t-21 -46q0 -55 125 -55q53 0 119 20t98 51l54 54q35 35 57 34.5t22 -19.5t-26 -56q-137 -187 -355 -187q-102 0 -152 36t-50 87zM125 911q0 37 92 37t92 -41v-559l355 363v200q0 37 92 37t92 -45v-887q0 -37 -117 -36
q-68 0 -67 43v604l-355 -365v-250q0 -32 -92 -32t-92 32v899z" />
    <glyph glyph-name="CYka" unicode="&#x43a;" horiz-adv-x="995" 
d="M309 16q0 -36 -92 -36t-92 38v887q0 41 92 41t92 -39v-891zM995 175q0 -38 -95 -115q-95 -76 -142 -76t-230 213q-182 217 -182 277t197 268q197 210 261 210t98 -48t34 -105t-16 -108q-16 -52 -46 -52q-4 0 -79.5 59.5t-98.5 59.5q-45 0 -105 -72q-61 -72 -61 -127
t140 -223q141 -166 202 -166q23 0 86 41q37 2 37 -36z" />
    <glyph glyph-name="CYel" unicode="&#x43b;" horiz-adv-x="964" 
d="M289 915q0 37 125 37q63 0 100 -37q10 -10 63.5 -126.5t151.5 -325.5t146.5 -326t48.5 -127q0 -31 -68 -30q-121 0 -133 30l-279 613q-84 -102 -131 -265t-47 -350q0 -28 -112 -28t-113 57q0 57 96 257t275 380q-123 227 -123 241z" />
    <glyph glyph-name="CYem" unicode="&#x43c;" horiz-adv-x="1173" 
d="M1120 27q0 -35 -28 -45q-8 -2 -60 -2t-59 2q-35 10 -35 43l20 729h-38q-68 -772 -322 -772q-173 0 -223.5 303t-75.5 469h-35l21 -734q0 -41 -125 -40q-59 0 -60 40v877q0 39 43 39h152q47 0 61 -51l68 -375q61 -272 186 -272q135 0 197 251q25 114 51 361q8 86 60 86
h165q37 0 37 -39v-870z" />
    <glyph glyph-name="CYen" unicode="&#x43d;" horiz-adv-x="894" 
d="M811 10q0 -30 -88 -30t-88 32v287l-340 346v-625q0 -40 -87 -40t-87 34v891q0 43 87 43t87 -35v-186l340 -346v528q0 39 88 39t88 -35v-903z" />
    <glyph glyph-name="CYo" unicode="&#x43e;" horiz-adv-x="673" 
d="M498 350q0 209 -92 326q-70 88 -137.5 88t-67.5 -213t127 -324q49 -43 75 -43q95 0 95 166zM645 498q0 -127 -97 -319t-210 -191q-57 0 -166 130t-109 331q-1 95 101 299t186 204q49 0 131 -82q164 -159 164 -372z" />
    <glyph glyph-name="CYpe" unicode="&#x43f;" horiz-adv-x="907" 
d="M842 14q0 -34 -92 -34t-93 34v783q0 68 -57 67h-258q-63 0 -63 -65v-785q-1 -32 -93 -32t-92 34v875q0 39 35 39h676q37 0 37 -56v-860z" />
    <glyph glyph-name="CYer" unicode="&#x440;" horiz-adv-x="714" 
d="M506 516q0 207 -170 281q-53 -133 -53 -252q0 -25 30 -455q92 0 148 174q45 133 45 252zM348 -455q0 -164 -100 -290q-70 -89 -120 -89t-50 29q104 129 104 332q0 67 -34 363t-33 474q0 177 94 365q111 223 254 223q55 0 127 -86q92 -115 92 -299q0 -258 -244 -485
q-42 -36 -62 -54t-54 -28q26 -403 26 -455z" />
    <glyph glyph-name="CYes" unicode="&#x441;" horiz-adv-x="575" 
d="M549 213q1 -17 -103 -123t-122 -106q-47 0 -121 86q-139 168 -140 407q0 154 118 314q117 159 183 159t117 -83t51 -156q0 -31 -22 -70q-31 -43 -57 -43l-74 109q-57 76 -92 75q-78 0 -78 -254q0 -84 59 -216t133 -132q10 0 119 62q29 4 29 -29z" />
    <glyph glyph-name="CYte" unicode="&#x442;" horiz-adv-x="1005" 
d="M993 724q0 -182 -65 -181q-41 0 -66 84q-43 145 -49 155q-41 84 -115 84q-94 0 -94 -75v-775q0 -36 -92 -36t-92 36v768q0 88 -84 88q-68 0 -109 -84q-12 -41 -25.5 -78.5t-27.5 -78.5q-31 -84 -77 -84t-46 223q0 92 10 115q18 51 93 51h731q43 0 59 -8q49 -22 49 -204z
" />
    <glyph glyph-name="CYu" unicode="&#x443;" horiz-adv-x="997" 
d="M84 842q0 40 37 72t46 37t32 5q15 0 39 -70q27 -81 60.5 -253.5t47.5 -202.5q61 -125 146 -213v82q0 157 33.5 267t58.5 157q111 223 254 223q55 0 127 -86q-16 -297 -47.5 -286.5t-60 63.5t-60.5 103.5t-76 50.5q-14 0 -36.5 -39t-61 -179t-45.5 -489
q-8 -143 -12.5 -234.5t-9.5 -149.5t-11 -94t-18.5 -72t-31.5 -82t-39 -98t-38.5 -72.5t-50 -41t-60.5 -10.5t-39 23.5t-12 27.5t1 26.5t3 18.5q63 100 105.5 170t76 163.5t33.5 291.5l-2 61q-39 6 -71.5 28t-91.5 111q-116 172 -171 361.5t-55 329.5z" />
    <glyph glyph-name="CYef" unicode="&#x444;" horiz-adv-x="1423" 
d="M625 795q-141 0 -248 -95q-113 -94 -113 -236t108 -236t253 -93v660zM1167 472q-1 134 -117 228t-245 95v-660q141 0 254 101q108 102 108 236zM1405 469q0 -211 -205 -317q-164 -86 -393 -86q-68 -696 -305 -887q-61 -49 -127 -49q-2 2 -5 2t-8 2q156 193 211 438
q43 180 43 485q-223 0 -374 88q-190 105 -190 313t192 320q156 94 381 94v381q0 227 147 336q57 41 96 41q86 0 86 -41q0 -16 -24.5 -38.5t-44.5 -55.5l-62 -88q-25 -43 -21.5 -172t3.5 -346v-10q334 0 483 -150q117 -117 117 -260z" />
    <glyph glyph-name="CYha" unicode="&#x445;" horiz-adv-x="942" 
d="M952 -304q0 -20 -61 -20q-141 0 -174 62l-311 536q-131 -271 -261 -649q-75 -223 -123 -223t-49 47q0 117 394 891l-332 580q13 30 117 30t124 -39l199 -360l135 240q94 162 191 161q113 0 112 -172q1 -70 -37 -154t-100 -83q-10 -1 -47 107t-45 108q-43 0 -174 -264
q442 -778 442 -798z" />
    <glyph glyph-name="CYtse" unicode="&#x446;" horiz-adv-x="1073" 
d="M1053 -10q0 -272 -176 -273q-27 0 -51.5 25t-20.5 39q33 91 33 155t-60 64h-604q-49 0 -49 63v834q0 53 92 53t92 -47v-790q0 -49 45 -50h303q45 0 45 46v788q0 37 31 49q21 4 65 4t66 -9t23 -50v-795q0 -16 20.5 -25.5t82.5 -19.5t63 -61z" />
    <glyph glyph-name="CYche" unicode="&#x447;" horiz-adv-x="950" 
d="M497 571q269 0 269 158q0 47 -117 141q0 27 39 55t66 27q72 0 129 -49t57 -121q0 -130 -110 -200t-244 -70v-496q0 -39 -89 -39t-89 39v496q-143 0 -250 66t-107 204q1 68 59 119t130 51q23 0 51 -30q27 -31 31 -56q-94 -88 -95 -137q1 -158 270 -158z" />
    <glyph glyph-name="CYsha" unicode="&#x448;" horiz-adv-x="1456" 
d="M166 0q-41 0 -41 39v870q0 37 92 37t92 -37v-792q0 -51 47 -51h260q51 0 52 49v784q0 47 92 47t92 -41v-790q0 -49 49 -49h268q43 0 43 45v794q0 41 92 41t91 -49v-846q0 -51 -35 -51h-1194z" />
    <glyph glyph-name="CYshcha" unicode="&#x449;" horiz-adv-x="1447" 
d="M852 0v-313q0 -39 -92 -39t-92 51v301h-502q-41 0 -41 39v872q0 37 92 37t92 -37v-794q0 -51 47 -51h260q51 0 52 49v786q0 47 92 47t92 -41v-792q0 -49 49 -49h268q43 0 43 45v796q0 41 92 41t91 -49v-848q0 -51 -35 -51h-508z" />
    <glyph glyph-name="CYyor" unicode="&#x44a;" horiz-adv-x="1081" 
d="M852 228q0 72 -64 163q-68 102 -147 107q-150 -389 -149 -398q0 -35 47 -34h182q53 0 92 45t39 117zM1075 135q-1 -61 -69 -98t-132 -37h-561q-43 0 -43 43q0 12 9 31l159 409q133 344 133 359q0 53 -122 53q-154 0 -209 -129l-47 -111q-41 -78 -74 -77q-51 0 -51 219
q0 150 75 149h615q43 0 43 -19t-131 -368q405 -201 405 -424z" />
    <glyph glyph-name="CYyeru" unicode="&#x44b;" horiz-adv-x="1259" 
d="M1206 20q0 -35 -125 -34q-59 0 -59 34v887q0 39 92 39t92 -37v-889zM653 158q0 94 -125 213q-113 113 -211 143v-391q0 -25 18.5 -43.5t43.5 -18.5h172q41 0 71.5 28t30.5 69zM866 147q0 -147 -260 -147h-430q-43 0 -43 35v880q0 31 92 31t92 -31v-331q190 -66 338 -160
q211 -136 211 -277z" />
    <glyph glyph-name="CYyer" unicode="&#x44c;" horiz-adv-x="909" 
d="M672 164q0 90 -128 215t-222 158v-408q0 -27 19 -46.5t46 -19.5h178q43 0 75 29t32 72zM893 154q0 -154 -270 -154h-449q-43 0 -43 37v883q0 32 95 32t96 -30v-314q217 -76 352 -166q219 -141 219 -288z" />
    <glyph glyph-name="CYe" unicode="&#x44d;" horiz-adv-x="1044" 
d="M526 879q-116 0 -184 -62q-39 -29 -82 -100t-65 -72q-103 1 -103 62q0 109 146 182q121 63 243 63q203 0 364 -125t161 -337t-153 -361q-153 -148 -372 -147q-184 0 -317 108q-68 55 -68 97t33 74t76 32q12 1 62 -65t113 -112t161 -46q137 0 209 143q57 115 57 268
q-98 12 -211 13h-137q4 -63 -20.5 -87t-89.5 -24t-89 12q-35 23 -35 80q0 78 121 78l461 -14q0 127 -83 233q-82 106 -198 107z" />
    <glyph glyph-name="CYyu" unicode="&#x44e;" horiz-adv-x="1157" 
d="M999 350q0 213 -92 330q-72 90 -137 90q-70 0 -70 -217t129 -328q47 -41 76 -41q94 0 94 166zM561 451q0 41 8 73h-250v-504q0 -34 -100 -34t-100 34v891q0 35 99 35t99 -31v-331h267q51 172 194 317q57 57 74 57q51 0 133 -81q164 -160 164 -377q0 -127 -99 -322
t-212 -194q-53 0 -154 118q-123 143 -123 349z" />
    <glyph glyph-name="afii10097" unicode="&#x44f;" horiz-adv-x="825" 
d="M117 805q0 131 194 131h404q53 0 53 -49v-850q0 -53 -55 -53q-129 -15 -125 57v455q-47 -2 -84 -34t-79 -77t-58.5 -79t-25.5 -66.5t-14 -62.5t-10 -52l2 -107q-33 -48 -141 -26q-33 16 -43 47t-10 83q0 102 106.5 225.5t229.5 189.5q-123 27 -211 80t-110.5 99t-22.5 89
zM332 778q0 -88 80 -143t172 -55v180q0 119 -109 119q-49 0 -96 -26t-47 -75z" />
    <glyph glyph-name="uni0450" unicode="&#x450;" horiz-adv-x="659" 
d="M377 1059l-199 325h211l60 -327zM68 507q0 125 124 285t254 160q42 0 92 -66t50 -112q0 -45 -36 -89t-83 -48q-55 86 -63 94q-45 63 -84 64q-41 0 -66 -72q-14 -63 -14 -107q0 -154 39 -153q35 0 136 48t146 48q16 0 45 -44q29 -45 29 -69t-37 -56t-70 -32q-10 0 -57 48
q-43 49 -59 49q-35 0 -78 -30t-43 -76t41 -116q43 -82 94 -81q72 0 152 61l18 -27q-39 -70 -118 -136t-146 -66q-96 0 -189 213q-77 186 -77 310z" />
    <glyph glyph-name="afii10071" unicode="&#x451;" horiz-adv-x="659" 
d="M604 1116q0 -70 -87 -70t-87 72v139q0 66 87 66t87 -72v-135zM305 1116q0 -70 -88 -70t-88 72v139q0 66 88 66t88 -72v-135zM68 507q0 125 124 285t254 160q42 0 92 -66t50 -112q0 -45 -36 -89t-83 -48q-55 86 -63 94q-45 63 -84 64q-41 0 -66 -72q-14 -63 -14 -107
q0 -154 39 -153q35 0 136 48t146 48q16 0 45 -44q29 -45 29 -69t-37 -56t-70 -32q-10 0 -57 48q-43 49 -59 49q-35 0 -78 -30t-43 -76t41 -116q43 -82 94 -81q72 0 152 61l18 -27q-39 -70 -118 -136t-146 -66q-96 0 -189 213q-77 186 -77 310z" />
    <glyph glyph-name="CYdje" unicode="&#x452;" horiz-adv-x="974" 
d="M358 1315v-246h236q18 -46 0 -96h-236v-277q110 71 158 92t123 21q132 0 199 -69t67 -171v-569q0 -93 -62.5 -163t-104.5 -98t-72 -28t-41 16.5t-11 27.5q0 14 23.5 33t53.5 34q52 25 52 198v11l-1 126l-3 363q0 80 -41.5 140.5t-109.5 60.5q-121 0 -230 -84v-617
q0 -38 -91 -38t-91 38v953h-160q-12 47 0 96h160v33l-4 219q0 55 93 55t93 -61z" />
    <glyph glyph-name="afii10100" unicode="&#x453;" horiz-adv-x="837" 
d="M369 1057l57 327h213l-199 -325zM813 754q0 -66 -14 -151t-47 -85q-39 0 -119 205q-43 106 -74 129q-33 22 -141 22t-109 -75l2 -789q0 -30 -93 -30t-93 40v869q0 47 37 47h555q96 0 96 -182z" />
    <glyph glyph-name="CYUAye" unicode="&#x454;" horiz-adv-x="1044" 
d="M749 383q-64 0 -89 23.5t-21 87.5h-137q-113 0 -211 -13q0 -154 57 -268q72 -143 209 -143q99 0 161 46t112 112t63 65q43 0 75.5 -33t32.5 -74t-67 -96q-133 -109 -318 -108q-220 0 -372 147t-152 361t161 338t363 124q119 0 244 -63q146 -73 146 -182q0 -61 -103 -62
q-23 0 -65 71t-80 101q-72 61 -186 61t-198 -106q-83 -106 -83 -233l461 14q121 0 120 -78q0 -57 -34 -80q-25 -12 -89 -12z" />
    <glyph glyph-name="CYdze" unicode="&#x455;" horiz-adv-x="937" 
d="M455 434q-326 0 -326 244q0 131 127 209q106 67 253 67t243 -63q115 -74 114 -219q1 -41 -194 -41q2 12 2 15v34q0 215 -180 215q-82 1 -132 -61t-49 -139q0 -77 41 -139t105 -62l237 24q104 0 158 -66t53 -176q0 -295 -313 -294q-49 0 -133 45q-4 2 -121 77
q-45 0 -72 -61q-29 -61 -99 -61t-93 16q-29 16 -29 85t53 116t125 47q43 0 181 -88t193 -88q54 0 88 62t34 128q0 180 -113 180l-30 -2z" />
    <glyph glyph-name="CYUAi" unicode="&#x456;" horiz-adv-x="473" 
d="M326 18q0 -35 -68 -34h-59q-49 0 -49 34v891q0 37 63 37h45q68 0 68 -37v-891z" />
    <glyph glyph-name="CYUAyi" unicode="&#x457;" horiz-adv-x="473" 
d="M326 20q0 -35 -68 -34h-59q-49 0 -49 34v889q0 35 63 35h45q68 0 68 -35v-889zM475 1116q0 -70 -88 -70t-88 72v139q0 66 88 66t88 -72v-135zM174 1116q0 -70 -87 -70t-87 72v139q0 66 87 66t87 -72v-135z" />
    <glyph glyph-name="afii10105" unicode="&#x458;" horiz-adv-x="403" 
d="M285 1147q0 -70 -87 -70t-87 72v139q0 66 87 66t87 -74v-133zM258 954q32 0 57 -146.5t25 -311.5q0 -516 -211 -867q-72 -121 -117 -121q-56 0 -10.5 88.5t72.5 155.5q78 234 78 627q0 178 -11 299l-18 192q0 75 56.5 79.5t78.5 4.5z" />
    <glyph glyph-name="afii10106" unicode="&#x459;" horiz-adv-x="1501" 
d="M1233 164q0 90 -128 215t-222 158v-408q0 -27 19.5 -46.5t45.5 -19.5h178q43 0 75 29t32 72zM348 938h447v-2q88 -2 88 -33v-295q258 -85 414.5 -210t156.5 -244q0 -154 -270 -154h-449q-43 0 -43 37v833h-282l-2 -204q-2 -66 -2 -146t-29 -176t-71 -176t-91 -131
t-86 -51t-56.5 17t-19.5 34q0 53 20.5 75.5t58.5 29.5t59.5 43t37 102t18 190.5t-4.5 179.5l-9 197q0 55 34 69.5t81 14.5z" />
    <glyph glyph-name="afii10107" unicode="&#x45a;" horiz-adv-x="1464" 
d="M1221 164q0 90 -128 215t-223 158v-408q0 -27 19.5 -46.5t46.5 -19.5h178q43 0 75 29t32 72zM1442 154q0 -154 -271 -154h-448q-43 0 -43 37v504h-406v-516q0 -35 -65 -35h-62q-47 0 -47 35v884q0 37 62 37h47q66 0 65 -37v-303h406v307q0 33 95 33t95 -31v-307
q219 -77 353 -166q219 -141 219 -288z" />
    <glyph glyph-name="afii10108" unicode="&#x45b;" horiz-adv-x="1079" 
d="M172 1288v31q0 55 96 55t97 -61v-17q0 -16 -3 -32v-199h232q29 -51 0 -96h-232v-262q110 69 157.5 90.5t114.5 21.5q121 0 196 -62t75 -147v-444q0 -48 17.5 -72t26.5 -24q16 0 68.5 29.5t59.5 29.5l6 -12q0 -61 -61 -98t-154 -37q-61 0 -102 53.5t-41 128.5v371
q0 196 -137 196q-127 0 -226 -74v-637q0 -38 -93 -38t-93 38v949h-160q-20 51 0 96h160v9v49l-2 145q-2 16 -2 20z" />
    <glyph glyph-name="afii10109" unicode="&#x45c;" horiz-adv-x="995" 
d="M449 1067l59 317h211l-199 -325zM309 16q0 -36 -92 -36t-92 38v887q0 41 92 41t92 -39v-891zM995 175q0 -38 -95 -115q-95 -76 -142 -76t-230 213q-182 217 -182 277t197 268q197 210 261 210t98 -48t34 -105t-16 -108q-16 -52 -46 -52q-4 0 -79.5 59.5t-98.5 59.5
q-45 0 -105 -72q-61 -72 -61 -127t140 -223q141 -166 202 -166q23 0 86 41q37 2 37 -36z" />
    <glyph glyph-name="uni045D" unicode="&#x45d;" horiz-adv-x="905" 
d="M467 1059l-199 325h211l60 -327zM125 911q0 37 92 37t92 -41v-559l355 363v200q0 37 92 37t92 -45v-885q0 -37 -117 -36q-68 0 -67 43v602l-355 -365v-248q0 -32 -92 -32t-92 32v897z" />
    <glyph glyph-name="afii10110" unicode="&#x45e;" horiz-adv-x="997" 
d="M84 842q0 40 37 72t46 37t32 5q15 0 39 -70q27 -81 60.5 -253.5t47.5 -202.5q61 -125 146 -213v82q0 157 33.5 267t58.5 157q111 223 254 223q55 0 127 -86q-16 -297 -47.5 -286.5t-60 63.5t-60.5 103.5t-76 50.5q-14 0 -36.5 -39t-61 -179t-45.5 -489
q-8 -143 -12.5 -234.5t-9.5 -149.5t-11 -94t-18.5 -72t-31.5 -82t-39 -98t-38.5 -72.5t-50 -41t-60.5 -10.5t-39 23.5t-12 27.5t1 26.5t3 18.5q63 100 105.5 170t76 163.5t33.5 291.5l-2 61q-39 6 -71.5 28t-91.5 111q-116 172 -171 361.5t-55 329.5zM250 1190
q0 141 117 141q33 0 33 -15t-21 -47q-20 -32 -21 -44q0 -57 125 -58q53 1 119 21t98 51l54 53q32 35 56 35t24 -18.5t-27 -57.5q-140 -186 -354 -186q-102 0 -152.5 36t-50.5 89z" />
    <glyph glyph-name="CYdzhe" unicode="&#x45f;" horiz-adv-x="991" 
d="M145 0v930h170v-877h424v879h170v-932h-303l12 -283h-182l13 283h-304z" />
    <glyph glyph-name="cyOMEGA" unicode="&#x460;" horiz-adv-x="1667" 
d="M1442 1395q86 0 129 -33q69 -58 69 -304t-118 -517q-97 -209 -242 -447q-66 -108 -130 -108t-102.5 220.5t-52.5 258.5q-23 61 -46.5 157.5t-41.5 120.5q-86 -80 -205 -327l-135 -369q-35 -61 -67 -61q-39 0 -135 137q-267 379 -267 825t135.5 446.5t135.5 -57.5
q-1 -39 -17 -92t-22 -76t-13 -53t-7 -170q-1 -302 112 -547q68 -147 121 -147q7 0 41.5 84.5t105.5 216.5q170 309 170 371q0 35 -1 92t-63 186t-63 158q0 35 88 35q47 0 92 -20t77 -107.5t59 -205t104 -556.5q14 -77 58 -125.5t71 -48.5q53 0 122 222t69 320t-37 232
q-75 222 -80 248q0 41 86 41z" />
    <glyph glyph-name="CYomega" unicode="&#x461;" horiz-adv-x="1308" 
d="M506 916q0 32 87 32t146 -85t145 -347t94 -278t17 -17q47 1 78 107t31 181q0 160 -46 284t-46 127q0 28 100 28t137 -67q25 -47 25 -158v-59q0 -190 -115 -406q-146 -274 -289 -274q-29 0 -63 149q-59 262 -176 475q-88 -213 -109 -286q-20 -72 -35 -125t-41 -133
t-73 -80t-137 144q-191 305 -191 708q0 66 23 88q20 25 86 24q70 0 86 -121q10 -72 17 -150.5t17 -152.5q27 -121 134 -264q59 63 176 461q-78 163 -78 195z" />
    <glyph glyph-name="cyYAT" unicode="&#x462;" horiz-adv-x="1441" 
d="M975 76q211 0 211 161t-148 312q-17 21 -274 231v-594q0 -111 137 -110h74zM1419 182q0 -182 -174 -182h-627q-57 0 -57 49v1071q0 66 -55 66q-225 0 -281 -127l-55 -152q-43 -117 -76 -116q-51 0 -51 167q0 242 37 273q25 18 70 18h411v213q0 37 101 37t102 -39v-211
h459q113 1 113 -211t-52 -213q-41 0 -94 113l-66 154q-53 94 -278 94q-82 0 -82 -66v-250q178 -118 264 -180q391 -269 391 -508z" />
    <glyph glyph-name="CYyat" unicode="&#x463;" horiz-adv-x="1085" 
d="M594 133q0 -68 125 -67q81 0 115 20t34 110t-87 198t-187 141v-402zM1055 170q0 -96 -48 -133t-145 -37h-389q-45 0 -45 37v831h-98q-78 0 -117 -88l-49 -162q-27 -88 -73 -88t-46 236q0 164 86 164h297v192q0 35 83 35t83 -35v-194h328q57 0 72 -36t16 -101
q0 -225 -58 -226q-23 0 -57 84l-43 109q-55 111 -258 110v-278q143 -41 289 -158q172 -135 172 -262z" />
    <glyph glyph-name="cyIOTE" unicode="&#x464;" horiz-adv-x="1353" 
d="M342 756v-733q0 -43 -102 -43t-103 43v1335q0 53 102.5 53t102.5 -49v-555h264q35 170 137 311q96 143 246 238q80 49 134 49q55 0 119 -115t64 -173t-36 -95q-18 -23 -84 -59l-51 2q0 79 -43 176q-42 96 -108 96t-130 -92q-84 -119 -84 -299q0 -128 14 -203
q365 193 419 193t87 -60t33 -118q0 -56 -54 -89t-112 -32q-14 0 -67 84q-51 84 -68 84q-33 0 -127 -52q-100 -51 -100 -75q-1 -94 79 -238t162 -144t217 126q16 0 31 -15q-6 -47 -160 -185t-198 -138q-139 0 -244 288q-86 240 -86 445l2 39h-256z" />
    <glyph glyph-name="CYiote" unicode="&#x465;" horiz-adv-x="1058" 
d="M289 500v-465q-1 -37 -93 -37t-92 37v868q0 33 52 33q133 0 133 -33v-344h203q22 119 144 256t228 137q39 0 91 -66q53 -66 53 -112q0 -45 -37 -91t-82 -46q-104 158 -150 158q-39 1 -59 -65t-21 -114q0 -154 38 -154t137 50q104 47 147 47q14 0 45 -42.5t31 -68.5
t-37 -59q-41 -31 -72 -31q-8 0 -55 48t-62 49q-35 0 -77 -30t-43 -75q0 -45 42 -122q78 -143 244 -15l21 -27q-41 -74 -118 -138t-148 -64q-96 0 -182 198t-85 318h-196z" />
    <glyph glyph-name="cyYUS" unicode="&#x466;" horiz-adv-x="1515" 
d="M436 580q0 -29 189 -29h102q324 0 326 33q-188 453 -320 587q-69 -53 -183 -281t-114 -310zM680 1268q0 47 -86 100q25 39 129 39h35q178 -8 657 -1116q94 -223 94 -267q1 -44 -113 -44t-145 73l-149 396q-18 47 -148 47q-94 0 -94 -47v-426q0 -43 -103 -43t-104 43v403
q0 72 -141 72q-106 0 -125 -54l-123 -403q-18 -61 -98 -61q-117 0 -117 55q0 111 158 442q158 330 239 451l129 178q105 148 105 162z" />
    <glyph glyph-name="CYyus" unicode="&#x467;" horiz-adv-x="1118" 
d="M713 375q0 35 -78 177t-103 142q-40 0 -116 -134t-76 -181q0 -25 45 -25h291q37 1 37 21zM449 836q0 44 43 78t90 34q61 0 284 -413q111 -205 166 -341.5t55 -183.5q0 -30 -93 -30t-120 45l-69 182q-47 96 -119 96t-72 -47l2 -242q0 -35 -108 -34q-63 0 -64 34v246
q0 43 -76 43t-108 -78q-8 -37 -17.5 -84t-19.5 -82q-29 -80 -108 -79q-41 0 -55 10t-13 45q0 81 125 284q125 204 177 261t138 159q-38 82 -38 97z" />
    <glyph glyph-name="cyIOTYUS" unicode="&#x468;" horiz-adv-x="1968" 
d="M950 580q0 -29 178 -29h74q332 0 334 33q-87 215 -151 350q-64 136 -152 237q-67 -51 -175 -285t-108 -306zM1968 25q0 -45 -108 -45t-136 73l-143 396q-16 47 -139 47q-88 0 -88 -47v-426q0 -43 -100 -43t-99 43v403q0 72 -133 72q-100 0 -117 -54l-117 -403
q-23 -61 -94 -61q-113 0 -112.5 55t94.5 283.5t285 609.5h-635v-905q0 -43 -98 -43t-99 43v1331q0 53 97 53t98 -49l2 -379h665q193 272 193 289q0 47 -84 100q20 39 123 39h34q170 -10 623 -1116q88 -213 88 -266z" />
    <glyph glyph-name="CYiotyus" unicode="&#x469;" horiz-adv-x="1536" 
d="M1116 375q0 35 -78 177t-102 142q-39 0 -116 -134t-77 -181q0 -25 45 -25h291q37 1 37 21zM985 948q68 0 287 -416q109 -205 162 -341t53 -187q1 -24 -91 -24t-118 45l-70 161q-57 117 -123 117q-65 0 -65 -47v-242q0 -35 -107 -34q-66 0 -65 34v246q0 43 -75 43
t-105 -78q-10 -37 -20.5 -84t-20.5 -82q-35 -79 -110 -79t-75 57q0 23 30 95.5t111 207.5t142 217h-430v-543q0 -35 -119 -34q-63 0 -63 34v883q0 39 91 39t91 -35v-289h477q70 70 119 127l-39 97q0 47 45 79q41 33 88 33z" />
    <glyph glyph-name="cyBYUS" unicode="&#x46a;" horiz-adv-x="1460" 
d="M377 1286q0 -43 170 -142q170 -100 227 -100t346 240v27l-684 2q-59 0 -59 -27zM682 375v426h-27q-221 -217 -319 -633l-27 -113q-25 -82 -59 -82q-57 0 -123 52q-76 55 -76 99t112 214t204.5 298t192.5 214t99 104q0 35 -49 66l-432 268q-41 25 -41 49q0 53 76 54h1102
q61 0 61 -42t-121 -116l-163 -90q-123 -69 -172 -117q-50 -49 -50 -59q0 -29 103 -117q33 -29 65.5 -56.5t65.5 -56.5q76 -71 174 -237q166 -280 166 -383q0 -53 -66 -101t-125 -47q-35 0 -47 42q-21 72 -43 182l-30 176q-30 158 -109.5 259t-132.5 169q-33 -45 -33 -118
q0 -163 10 -338q10 -174 11 -230q0 -123 -113 -123q-45 0 -77 26t-36 66q29 182 29 295z" />
    <glyph glyph-name="CYbyus" unicode="&#x46b;" horiz-adv-x="1314" 
d="M911 854q0 16 -24 16h-557q-23 0 -23 -18q0 -10 109 -55q170 -76 212 -76t162 54t121 79zM1278 122q0 -66 -59 -108q-57 -35 -117 -34q-29 0 -51 59q-43 175 -68 254q-31 76 -100 162q-84 98 -150 102v-549q0 -28 -91 -28t-91 34v545q-70 0 -152 -113
q-85 -125 -95.5 -199.5t-20.5 -127.5q-25 -139 -86 -139q-47 0 -101 53q-51 53 -51 94q0 95 119 254q74 96 178 170t209 74v24q-129 82 -205 108t-161.5 55t-86.5 89q0 35 64 35h968q45 0 46 -31q0 -46 -123 -92.5t-183 -72.5t-137 -83v-28q152 0 346 -170
q100 -88 149.5 -179.5t49.5 -157.5z" />
    <glyph glyph-name="cyIOTBYUS" unicode="&#x46c;" horiz-adv-x="1904" 
d="M815 1286q0 -43 170 -142q170 -100 225 -100t349 240v27l-685 2q-59 0 -59 -27zM1112 91q0 42 8 710h-24q-209 -206 -320 -633q-53 -195 -88 -195q-53 -1 -126 53t-73 95q0 89 161 314t251 321h-569v-733q0 -43 -102 -43t-103 43v1314q0 53 102.5 53.5t102.5 -49.5v-534
h620q145 125 146 147q0 37 -47 66l-373 229q-100 61 -100 88q0 53 73 54h1104q59 0 60 -41q0 -51 -104.5 -108.5t-202.5 -111.5t-150 -103q-50 -50 -49 -60q0 -27 102 -117l131 -113q37 -35 188.5 -277t151.5 -343q0 -57 -70 -103q-59 -45 -120 -45q-37 0 -50 51l-71 349
q-16 72 -75.5 184.5t-164.5 243.5q-18 -129 -18 -236v-41l1 -134l3 -275q0 -123 -113 -123q-41 0 -66.5 30.5t-25.5 72.5z" />
    <glyph glyph-name="CYiotbyus" unicode="&#x46d;" horiz-adv-x="1728" 
d="M1300 854q0 16 -24 16h-557q-23 0 -23 -18q0 -10 109 -55q170 -76 212 -76q43 0 163 54t120 79zM291 473v-459q0 -35 -58 -34q-125 0 -124 30v893q0 33 91 33t91 -31v-373h444q123 90 236 93v24l-101 60l-202 75q-150 55 -150 117q0 35 64 35h968q45 0 45 -31
q0 -37 -125 -92l-161 -63q-78 -35 -156 -93v-28q152 0 346 -170q100 -88 149.5 -179.5t49.5 -158.5t-58 -105t-118 -36q-34 0 -48 50t-30.5 117.5t-40.5 145.5q-31 78 -107 169t-143 95v-549q0 -28 -91 -28t-91 34v545q-70 0 -152 -113q-63 -92 -90 -180l-31 -162l-2 -6
q-20 -94 -49 -112q-12 -6 -31 -6q-47 0 -100 53q-51 53 -51 93q1 91 69 189q68 99 130 158h-373z" />
    <glyph glyph-name="cyKSI" unicode="&#x46e;" horiz-adv-x="1075" 
d="M803 406q0 117 -66.5 197.5t-158.5 80.5q-49 0 -79 -11t-61 -46q-61 -66 -61 -156t-35 -90h-156q-33 0 -32.5 102t140.5 183.5t284 81.5q79 0 121 69.5t42 166.5t-44 157.5t-133 60.5t-158.5 -72t-69.5 -163v-41h-166v63q0 103 92 184.5t197 81.5q37 1 37 15
q0 27 -90.5 143.5t-90.5 132.5q0 31 37 31h99l149 -301l94 199q48 102 138 102t90 -61q0 -90 -72 -91l-78 5q-21 0 -50.5 -55t-29.5 -85q0 -32 85 -70t117 -62t49.5 -70t17.5 -90q0 -99 -54 -174.5t-157 -90.5q295 -139 294 -362q0 -127 -50 -229.5t-126.5 -119
t-134.5 -16.5l-289 14q-69 0 -108 -43.5t-39 -99.5q0 -57 21.5 -78.5t85.5 -21.5t211 52q146 52 227 52q209 0 209 -194q0 -55 -220 -56q-14 0 -21.5 14.5t-57.5 56.5t-72 42q-85 0 -168 -41q-98 -41 -145 -41q-147 0 -219 75t-72 197q0 75 66 132t147 57l348 -31
q78 0 122 98.5t44 215.5z" />
    <glyph glyph-name="CYksi" unicode="&#x46f;" horiz-adv-x="884" 
d="M596.5 437q-52.5 67 -135.5 67q-84 0 -127 -68q-10 -12 -14 -32t-24 -80t-56 -60h-103q-39 0 -39 60t24.5 98.5t96.5 77.5q113 57 248 57q52 0 92.5 60t40.5 131q0 152 -143 151q-72 0 -111.5 -39.5t-62.5 -121.5q-22 -82 -43 -83h-84q-39 0 -39 45q0 170 202 236
q74 20 74 32.5t-61 104.5l-78 115q0 31 43 31l6 -2h45l137 -246q67 147 74 157q57 88 136 88t79 -58q0 -60 -80 -60h-14q-49 0 -68 -19t-36 -59.5t-17 -46.5q0 -37 59 -60q100 -41 107 -47q59 -35 59 -100q0 -141 -145 -226q91 -54 149 -132t60 -178q0 -100 -66.5 -173
t-177.5 -73l-242 22q-125 0 -124 -82q0 -98 106 -98q49 0 173 27.5t173 27.5q162 0 162 -78q0 -68 -28.5 -96.5t-106.5 -28.5q-41 0 -112 50t-82 49q-11 0 -106 -24.5t-124 -24.5q-106 0 -171 58t-65 157q0 61 50.5 105t115.5 44l291 -26q68 0 101.5 57t33.5 152t-52.5 162z
" />
    <glyph glyph-name="cyPSI" unicode="&#x470;" horiz-adv-x="1390" 
d="M1403 1260q0 -58 -26 -136q-26 -79 -60 -80q-18 0 -72 78q-55 78 -75.5 78t-59.5 -123q-147 -459 -313 -561v-493q-1 -43 -103 -43t-102 43l2 471q-217 139 -401 467q-117 206 -117 329q0 43 40 77t81 34q33 0 61 -66q66 -145 101.5 -231t46.5 -105q123 -244 188 -260
v617q0 45 101 45t102 -39v-744q76 2 186 297l141 373q45 117 125 117q154 0 154 -145z" />
    <glyph glyph-name="CYpsi" unicode="&#x471;" horiz-adv-x="1366" 
d="M820 168q18 0 49.5 35t81 127.5t88.5 256.5t59 222q53 145 141 145q61 0 102 -65t41 -137t-21.5 -117t-53.5 -45q-14 0 -133 153q-39 0 -64 -81l-27 -115q-61 -252 -268 -529v-10l1 -48l1 -138q0 -294 -92.5 -454.5t-239.5 -160.5q-45 0 -45 52q0 10 39 30l51 25
q90 53 91 383q0 14 -1.5 87t-3.5 206q-254 170 -471 581q-84 160 -84 250q0 40 43 78.5t86 38.5q42 0 57 -50t34 -114q67 -267 303 -522q31 2 30 74l-34 893q0 75 66 135.5t142 60.5q12 0 13 -53l-6 -279l-2 -905q9 -10 27 -10z" />
    <glyph glyph-name="vyFITA" unicode="&#x472;" horiz-adv-x="1421" 
d="M1028 543q0 383 -233 585q-74 61 -117 62q-90 0 -158 -123q-57 -102 -57 -203q0 -379 260 -606q76 -70 125 -70q96 0 145 138q35 95 35 217zM291 154v-179q0 -147 -90 -147q-74 0 -115 109q-27 88 -27 172q0 119 54 118h344q-147 233 -147 474t208 503q160 193 258 193
q43 0 127 -78q281 -252 281 -584q0 -272 -168 -508h346q53 0 53 -107t-24 -183q-37 -109 -113 -109q-90 0 -90 147v179h-227q-152 -178 -235 -178t-218 178h-217z" />
    <glyph glyph-name="CYfita" unicode="&#x473;" horiz-adv-x="1052" 
d="M688 350q0 209 -92 326q-70 88 -137.5 88t-67.5 -214t127 -323q49 -43 76 -43q94 0 94 166zM1016 -8q0 -74 -33 -152t-48 -108.5t-48 -30.5t-56.5 22.5t-23.5 51.5l24 190q0 51 -73 51q-47 0 -96.5 -8t-77.5 -8q-28 -12 -52 -12t-57 16q-92 6 -132 6q-74 0 -107 -84
l-23 -151q-16 -41 -31.5 -57.5t-44.5 -16.5q-76 0 -76 225q0 111 27 156t68 45q41 1 82 -19t67.5 -18t85.5 -8q-137 157 -137 367q0 95 101 299t186 204q47 0 131 -82q164 -164 164 -372q0 -79 -47.5 -210t-122.5 -218q61 7 77 10l9 -2l55 12l137 23q49 0 60.5 -23.5
t11.5 -97.5z" />
    <glyph glyph-name="cyIZHITSA" unicode="&#x474;" horiz-adv-x="1042" 
d="M180 1401q51 0 74 -12t29 -54l225 -1134q88 547 184 940q68 279 199 278q61 -1 104 -121t43 -178t-28 -149q-28 -90 -68 -90q-16 1 -70 113t-65 112q-45 0 -94 -221q-94 -428 -135 -758q-16 -129 -39 -129h-109q-96 0 -111 76l-251 1235l-2 22q0 70 114 70z" />
    <glyph glyph-name="CYizhitsa" unicode="&#x475;" horiz-adv-x="897" 
d="M895 754q0 -48 -27 -104t-57 -56q-16 0 -61 75t-58 74q-37 0 -109 -264t-83 -343q-10 -79 -17 -109q-6 -29 -26 -29l-135 2q-35 0 -56 49q-29 61 -119 426t-90 428q0 47 117 47q66 0 74 -45l182 -770q68 340 105 469q100 350 229 350q49 0 92 -82q39 -70 39 -118z" />
    <glyph glyph-name="cyIZHITSADBLGRAVE" unicode="&#x476;" horiz-adv-x="1042" 
d="M690 1499l-196 326h211l59 -328zM338 1499l-197 326h211l58 -328zM891 1389q59 0 103 -120t44 -177t-28 -149q-28 -91 -68 -91q-16 0 -72 111q-51 113 -63 112q-45 0 -93 -218q-104 -474 -136 -730q-16 -129 -39 -129h-109q-96 0 -111 76l-231 1235q-2 6 -2 22
q0 70 115 70q51 0 73 -12t29 -54l205 -1134q73 442 184 909q68 279 199 279z" />
    <glyph glyph-name="CYizhitsadblgrave" unicode="&#x477;" horiz-adv-x="897" 
d="M117 1391h190l62 -344l-54 2zM457 1391h190l62 -344l-54 2zM895 754q0 -48 -27 -104t-57 -56q-16 0 -61 75t-58 74q-37 0 -109 -264t-83 -343q-10 -79 -17 -109q-6 -29 -26 -29l-135 2q-35 0 -56 49q-29 61 -118 422t-89 430q0 47 117 47q66 0 74 -45l180 -768
q68 340 105 469q100 350 229 350q49 0 92 -82q39 -70 39 -118z" />
    <glyph glyph-name="cyUK" unicode="&#x478;" horiz-adv-x="1894" 
d="M1636 797q-45 0 -92.5 -185.5t-54.5 -521.5q-8 -143 -10 -234.5t-4 -149.5t-5.5 -94t-11.5 -72t-25 -82t-37 -98t-38.5 -72.5t-50 -40.5t-60.5 -11q-29 10 -39 23.5t-12 28t1 26.5t3 18q131 208 162 307.5t33 227.5t-2 151q-52 9 -87.5 44.5t-85.5 109.5
q-106 155 -161 346t-55 330q0 40 37 72t46 37.5t31 5.5q16 -1 40 -71q33 -100 63 -263.5t45 -192.5q61 -125 145 -213v82q0 147 35 262t57 162q113 223 254 223q55 0 127 -86q-16 -295 -49.5 -285.5t-63.5 62.5t-64.5 103.5t-70.5 50.5zM432 1208q-94 0 -162 -125
q-59 -106 -59 -211q0 -377 260 -616q82 -74 129 -74q102 0 152 142q39 106 39 225q0 385 -236 596q-72 63 -123 63zM481 -14q-49 0 -133 84q-274 279 -274 637q0 246 207 501q156 193 249 193q39 0 123 -78q274 -252 275 -582q0 -395 -322 -686q-76 -69 -125 -69z" />
    <glyph glyph-name="CYuk" unicode="&#x479;" horiz-adv-x="1585" 
d="M498 350q0 209 -92 326q-70 88 -137.5 88t-67.5 -213t127 -324q49 -43 75 -43q95 0 95 166zM645 498q0 -127 -97 -319t-210 -191q-57 0 -166 130t-109 331q-1 95 101 299t186 204q49 0 131 -82q164 -159 164 -372zM664 848q0 53 45 84t66 31q21 -1 43 -71
q32 -106 61 -263.5t47 -192.5q61 -125 145 -213q-2 23 -2 28v54q0 147 35 262t59 162q111 223 254 223q55 0 127 -86q-16 -295 -49.5 -285.5t-63.5 62.5t-64.5 103.5t-76.5 50.5q-16 0 -38.5 -39t-60 -185.5t-44.5 -482.5q-8 -143 -10 -234.5t-4.5 -149.5t-4.5 -94t-10 -72
t-25.5 -82t-36.5 -98t-38 -72.5t-51.5 -40t-60.5 -10.5t-39 22.5t-12 28t2 26.5t3 18q127 202 153.5 286.5t34 157t7.5 181.5l-2 61q-55 9 -89 44.5t-84 109.5q-106 155 -161 346t-55 330z" />
    <glyph glyph-name="cyRNDOMEGA" unicode="&#x47a;" horiz-adv-x="1519" 
d="M787 168q42 0 111 -32t110 -32q72 0 145 111q135 203 135 510q0 174 -59 342q-84 217 -223 217q-41 0 -111 -43q-76 -41 -109 -41q-34 0 -106 42t-111 42q-141 0 -221 -219q-59 -160 -59 -340q0 -358 155 -541q68 -80 115 -80t119 31q67 33 109 33zM772 -39q-36 1 -85 19
q-50 18 -81 29t-59 22q-485 143 -486 698q0 342 189.5 466.5t333.5 184.5t192 60q49 0 166 -42t199 -83q373 -195 373 -599t-271 -589q-69 -49 -252 -108q-183 -58 -219 -58z" />
    <glyph glyph-name="CYrndomega" unicode="&#x47b;" horiz-adv-x="1376" 
d="M424 755.5q-117 -118.5 -117 -283.5t124.5 -291t286.5 -126t285 123t123 291t-118.5 286.5t-292.5 118.5t-291 -118.5zM264 112.5q-201 130.5 -201 358.5q0 227 220 365q195 119 434 118q309 0 493 -166q160 -145 160 -321q0 -119 -59.5 -210t-200 -183t-393.5 -92
q-252 0 -453 130.5z" />
    <glyph glyph-name="cyOMEGATITLO" unicode="&#x47c;" horiz-adv-x="1947" 
d="M991 1439q-31 -9 -51 1t0.5 27.5t51 38t58 41.5t26.5 47q-2 52 -60 63t-142 -19q-20 -6 -32 -14l-25 68q59 37 119 57q162 59 201 -51q29 -86 -2 -162q-10 -26 -61.5 -57t-82.5 -40zM618 1650q0 -1 5 -10q-16 -12 -109 -8q-41 0 -39 44t70 122q176 199 411 193
q160 -5 327 -130.5t205 -143t66.5 -30t60.5 -24.5t16.5 -26t-34.5 -25q-51 4 -131 53t-104 68q-195 145 -408 145q-90 4 -190 -43q-121 -47 -123 -109l-23 -59v-17zM1704 664q0 263 -203 710q4 16 5 24.5t34 8.5q88 0 224 -256t137 -499q0 -244 -121 -439
q-141 -229 -380 -229t-411 256q-198 -256 -377 -256q-250 0 -393 260q-119 213 -119 487q0 195 97 414q113 258 249 258q160 0 160 -107q0 -155 -125 -155q-116 0 -173.5 -145.5t-57.5 -254.5t45 -256.5t126 -261.5t180 -114q98 0 182.5 106.5t104.5 144.5q32 62 43 76.5
t55 14.5t61 -18.5t37 -60.5q51 -105 131 -184t167 -79q164 0 243 146t79 409z" />
    <glyph glyph-name="CYomegatitlo" unicode="&#x47d;" horiz-adv-x="1449" 
d="M539 1268q114 78 223 78q51 0 80.5 -44.5t29.5 -97.5q0 -52 -11 -76t-28.5 -40.5t-42 -33t-53 -28.5t-58.5 -12t-30 12t23.5 28.5t75 50.5t51.5 58q0 74 -94 74q-74 0 -142 -35zM1358 1221q0 -12 -39 -31q-83 8 -273 146q-62 46 -164 83t-176 37q-117 0 -213.5 -49.5
t-130.5 -103.5q-14 -23 -11 -42.5t-7 -43.5q-4 -9 -61 -9q-56 0 -72 6.5t-16 32.5q0 49 71 127q168 193 398 193q165 0 337 -128.5t208 -145.5t66 -29.5t51.5 -20.5t31.5 -20v-2zM1401 414q0 -72 -26.5 -154t-104 -178t-236.5 -96q-160 0 -295 176q-149 -176 -270 -176
q-161 0 -267 146t-106 345q0 58 30 173t90.5 207.5t131.5 92.5q115 0 115 -69q0 -76 -63 -87.5t-81 -31.5q-29 -35 -49 -120.5t-20 -155.5t13 -135.5t40 -128t67 -107.5t98 -45t118 78.5t78 110.5t28 43t47 11t48.5 -12t27.5 -40q109 -191 207 -191t155.5 96t57.5 270
q0 96 -36 231.5t-99 264.5q9 22 43 22q35 0 67.5 -31.5t74 -99.5t79 -202.5t37.5 -206.5z" />
    <glyph glyph-name="cyOT" unicode="&#x47e;" horiz-adv-x="1675" 
d="M1442 1395q86 0 129 -33q69 -58 69 -304t-118 -517q-97 -209 -242 -447q-66 -108 -130 -108t-102.5 220.5t-52.5 258.5q-23 61 -46.5 157.5t-41.5 120.5q-86 -80 -205 -327l-135 -369q-35 -61 -67 -61q-39 0 -135 137q-267 379 -267 825t135.5 446.5t135.5 -57.5
q-1 -39 -17 -92t-22 -76t-13 -53t-7 -170q-1 -302 112 -547q68 -147 121 -147q7 0 41.5 84.5t105.5 216.5q170 309 170 371q0 35 -1 92t-63 186t-63 158q0 35 88 35q47 0 92 -20t77 -107.5t59 -205t104 -556.5q14 -77 58 -125.5t71 -48.5q53 0 122 222t69 320t-37 232
q-75 222 -80 248q0 41 86 41zM746 1544l2 119q0 43 -25 43q-79 0 -179 -32t-118 -89q-27 -70 -53 -69q-23 0 -37 30q-29 61 -86 185q-4 47 26 47h1147q31 0 27 -52q-22 -32 -86 -180q-16 -35 -36.5 -35t-51.5 70q-29 59 -122 91t-173 32q-25 0 -25 -65t5 -87q0 -53 -33 -53
h-152q-23 0 -30 45zM743 1571q1 -15 1 -27z" />
    <glyph glyph-name="CYot" unicode="&#x47f;" horiz-adv-x="1320" 
d="M506 916q0 32 87 32t146 -85t145 -347t94 -278t17 -17q47 1 78 107t31 181q0 160 -46 284t-46 127q0 28 100 28t137 -67q25 -47 25 -158v-59q0 -190 -115 -406q-146 -274 -289 -274q-29 0 -63 149q-59 262 -176 475q-88 -213 -109 -286q-20 -72 -35 -125t-41 -133
t-73 -80t-137 144q-191 305 -191 708q0 66 23 88q20 25 86 24q70 0 86 -121q10 -72 17 -150.5t17 -152.5q27 -121 134 -264q59 63 176 461q-78 163 -78 195zM1016 1313q0 -53 -19 -111q-20 -76 -59 -76q-20 0 -46 65t-40 89q-37 53 -92 53q-80 0 -80 -69v-187q0 -73 -77 -73
t-77 73v191q0 68 -72 68t-110 -54q-15 -25 -41 -90q-27 -65 -55.5 -65.5t-41.5 59.5t-13 106q0 47 10 66q14 31 86 31h659q68 0 68 -76z" />
    <glyph glyph-name="cyKOPPA" unicode="&#x480;" horiz-adv-x="1103" 
d="M985 885q-109 0 -139 51q-16 23 -24 117t-57 148q-48 54 -120 54q-154 0 -221 -249q-45 -160 -45 -357t65 -362q86 -223 228 -224q84 0 119 74l40 139q25 74 80 74q85 0 107 -31t22 -110q0 -119 -157 -211q-7 -186 -39 -360q-49 -276 -139 -277q-92 1 -124 23t-32 106v8
q12 24 106 156q95 133 142 338q-664 12 -664 670q0 248 125 440q141 221 377 221q446 0 446 -326q0 -112 -96 -112z" />
    <glyph glyph-name="CYkoppa" unicode="&#x481;" horiz-adv-x="819" 
d="M805 692q0 -112 -96 -112t-125 41q-14 23 -21 92q-1 69 -31 99t-63 30q-90 0 -129 -168q-29 -103 -29 -211t46 -245t130 -136q49 0 64 51l22 98q23 53 89 53t90 -29.5t24 -100.5q0 -98 -110 -166q-7 -128 -35 -269q-43 -195 -121 -194q-82 -1 -112 25t-29 104
q1 14 71 112t95 205q-457 8 -457 504q0 166 104 321q104 156 279 156q344 0 344 -260z" />
    <glyph glyph-name="xThousand" unicode="&#x482;" horiz-adv-x="653" 
d="M309 10q-35 0 -94 53q-31 -29 -31 -96t51.5 -163.5t51.5 -104.5q0 -82 -105 -82q-123 0 -123 238q0 57 23 137t63 117q-96 49 -96 115t57 65q51 0 105 -43l51 73q-98 61 -98 107q0 29 23.5 48.5t54.5 19.5t104 -56q162 145 238 146q35 0 34 -37q0 -20 -202 -162
q78 -53 78 -100q0 -72 -60 -72q-29 0 -104 63l-54 -71q100 -70 101 -119q0 -29 -16.5 -52.5t-51.5 -23.5z" />
    <glyph glyph-name="Titlocomb" unicode="&#x483;" 
d="M-702 1110h-115v152q0 59 25 93q26 34 67 36h451q96 0 112 79q2 14 0 117h115v-174q0 -100 -78 -106h-475q-57 -2 -80 -29t-22 -76v-92z" />
    <glyph glyph-name="Palatalizationcomb" unicode="&#x484;" 
d="M-9 1110q-85 0 -136 -68q-3 -25 -7 -41t-4 -24l-4 -12q-16 -11 -58 -11t-42 41q0 72 86 144q86 71 155 71t183 -78t112 -145q0 -16 -18 -24l-90 73q-92 74 -177 74z" />
    <glyph glyph-name="Dasiapneumacomb" unicode="&#x485;" 
d="M-504 1317q0 -121 180 -217l-2 -43q-70 34 -149.5 94.5t-91.5 75.5q-57 61 -58 151q0 115 174 115q70 0 129 -14v-72q-10 2 -12 2h-22q-80 0 -114 -22.5t-34 -69.5z" />
    <glyph glyph-name="Psilipneumacomb" unicode="&#x486;" 
d="M-311 1327q0 94 -150 94h-16t-19 -2v72q77 14 129 14q174 0 174 -114q0 -90 -57 -154q-20 -20 -108.5 -85.5t-133.5 -82.5l-2 41q183 101 183 217z" />
    <glyph glyph-name="Pokrytie" unicode="&#x487;" 
d="M59 1618q0 -16 -39 -33q-51 4 -130.5 53.5t-104.5 67.5q-201 147 -408 147q-88 0 -184.5 -49.5t-128.5 -103.5q-12 -23 -10 -42.5t-8 -43.5q-4 -10 -25.5 -9t-56.5 1t-51.5 5t-16.5 42t72 119q168 193 397 192q125 0 235 -64.5t242 -166.5q57 -42 132 -71.5t85 -41.5v-2z
" />
    <glyph glyph-name="xHundredthousand" unicode="&#x488;" horiz-adv-x="782" 
d="M-1230 51q202 0 257 -227h-51q-53 110 -205 110t-190 -110h-47q34 227 236 227zM-1456 596q197 0 250 -231h-51q-49 113 -201 113t-195 -113h-47q12 102 78 163q63 68 166 68zM-430 -426q-154 0 -193 -113h-47q35 231 237 231t257 -231h-49q-51 113 -205 113zM-1232 1108
q202 0 257 -231h-49q-51 113 -205 113t-192 -113h-47q34 231 236 231zM336 51q203 0 258 -227h-49q-53 110 -206 110t-192 -110h-47q33 227 236 227zM-436 1360q-152 0 -195 -115h-47q12 100 78 164q63 68 166 68q197 0 250 -232h-52q-48 115 -200 115zM547 596
q197 0 250 -231h-52q-49 113 -201 113t-194 -113h-47q12 102 78 163q63 68 166 68zM337 1108q202 0 257 -231h-49q-51 113 -205 113t-193 -113h-47q35 231 237 231z" />
    <glyph glyph-name="xMillion" unicode="&#x489;" horiz-adv-x="782" 
d="M-1243 -178q0 38 29 66q30 28 74 28t80 -38t36 -93q0 -103 -92 -161t-201 -58l-22 2l2 45q160 14 200 86v10l-6 8h-10q-26 16 -58 41t-32 64zM-1257 481q-1 -80 -67 -123t-152 -43t-177 52l25 41q84 -33 154 -33t69 33v2q0 2 -1 2t-1 4l-8 6q-45 63 -45 98t30.5 58.5
t73.5 23.5t70 -39q29 -35 29 -82zM-371 -477q0 14 -14 14l-10 -4q-8 0 -15 -2h-14q-109 0 -108 90q0 100 102 100q59 0 98 -44t39 -107q0 -166 -190 -260l-23 43q135 92 135 170zM-1085 842q-94 0 -152 94q-49 76 -49 178q0 33 6 68l45 -8q0 -63 17 -137t57 -74l8 4l2 12
q63 80 102 80t67 -33t28 -74q0 -42 -43 -76t-88 -34zM219 -322q-33 0 -59 31q-29 29 -29 72t40 78t91 35q92 0 146 -86t55 -185q0 -35 -4 -67l-47 8q0 160 -64 207l-10 4l-10 -4v-13l-45 -53q-31 -27 -64 -27zM-442 1217q-58 0 -98 43t-40 108q0 168 193 260l18 -43
q-133 -92 -133 -170q0 -14 15 -14l10 4q8 0 14 2h14q109 0 109 -88q0 -102 -102 -102zM553 449q0 -92 -96 -93q-41 0 -69 31t-28 84t48 93t112 40q154 0 258 -147l-37 -31q-109 109 -178 109q-29 0 -24 -21l6 -6q8 -47 8 -59zM215 1055q0 -8 14 -15l11 4q119 -27 118 -90
q0 -43 -27.5 -73.5t-76.5 -30.5t-88 42t-39 101q0 90 75 160t167 94l12 -45q-166 -73 -166 -147z" />
    <glyph glyph-name="cyGHEUPTURN" unicode="&#x490;" horiz-adv-x="933" 
d="M639 1303h-25q-24 0 -47 2l-63 2q-115 0 -154 -45q-27 -41 -26 -160l2 -559q2 -174 2 -207v-311q0 -25 -56 -25h-120q-20 8 -21 23l2 1366l2 2l434 2q94 0 133 62t58 169q25 117 47 160q80 -86 80 -328l-2 -67q-55 -86 -246 -86z" />
    <glyph glyph-name="CYgheupturn" unicode="&#x491;" horiz-adv-x="858" 
d="M313 0h-143q-12 0 -12 25v897q0 16 12 16h405q68 0 105 80q19 53 33 149q8 82 26 86q100 -246 101 -299q0 -8 -23 -43q-58 -30 -139 -39l-146 -14q-145 -25 -163 -46t-27 -171v-124q0 -124 2 -218l2 -272q0 -27 -33 -27z" />
    <glyph glyph-name="cyENSFT" unicode="&#x4a4;" horiz-adv-x="1370" 
d="M1157 1391q166 0 166 -121v-240q0 -27 -19.5 -50.5t-41.5 -23.5t-48 25q-18 14 -22 37l-27 164q-21 92 -57 112q-23 15 -44 15l-206 -2v-1233q0 -74 -39 -82q-8 -4 -11 -4h-38q-68 0 -78 22q-10 12 -10 64v291l-420 565l12 -856q0 -51 -17 -68.5t-59 -17.5q-41 0 -61 4
q-41 12 -41 82v1233q0 53 18 67t74 15t71 -15t15 -67v-232l410 -561l-2 793q0 51 18 67q20 16 52 16h40h30l182 1h153z" />
    <glyph glyph-name="CYensft" unicode="&#x4a5;" horiz-adv-x="1124" 
d="M971 938q117 0 116 -88v-137q0 -47 -32 -47q-27 0 -57 70t-46 91q-41 55 -112 56h-109v-848q0 -43 -26 -51q-9 -4 -69 -4t-61 55v241l-356 390v-631q0 -55 -76 -55q-43 0 -61 9t-16 46v854q0 39 26 51q16 4 62 4q66 0 65 -55v-154l356 -387v535q0 55 74 55h322z" />
    <glyph glyph-name="uni04D0" unicode="&#x4d0;" horiz-adv-x="1159" 
d="M311 1640q0 143 117 144q35 0 35 -14q-1 -14 -21 -46q-20 -33 -20 -49q0 -57 125 -57q51 0 119 22t98 50l51 55q39 35 59 35t21 -22q0 -22 -27 -56q-140 -186 -354 -186q-102 0 -152.5 35.5t-50.5 88.5zM686 657l-158 428q-113 -276 -243 -770zM1143 29q0 -29 -41 -29
h-117q-57 0 -88 88l-186 506l-447 -373q-33 -155 -41 -172q-31 -66 -135 -65q-72 0 -72 55q0 46 88 263q88 216 140.5 330t99.5 216t71.5 158.5t57.5 132.5q10 35 10 61q0 76 -39 96l-86 19q-61 12 -61 48t180 36q127 0 223 -154q72 -113 136 -323l86 -281l219 -606
q2 -2 2 -6z" />
    <glyph glyph-name="uni04D1" unicode="&#x4d1;" horiz-adv-x="942" 
d="M172 1159q0 143 119 144q33 1 33 -15t-21 -45q-20 -35 -20 -49q0 -55 109 -55q147 0 233 71l53 54q35 35 57.5 34.5t22.5 -18.5q0 -23 -29 -57q-137 -187 -352 -187q-102 0 -153.5 36t-51.5 87zM238 262q0 -104 102 -104q145 0 238 114l-191 334q-51 -47 -100 -160
t-49 -184zM932 20q0 -40 -86 -40t-101 26l-145 215q-66 -86 -188 -162q-131 -76 -234 -75q-51 0 -84 51q-31 43 -31 96q0 111 105 283q90 156 188 241q-80 121 -130 196t-50 85q0 20 106 20t117 -22l514 -850q19 -31 19 -64z" />
    <glyph glyph-name="Threedotright" unicode="&#x10fb;" horiz-adv-x="587" 
d="M106 89q0 42 35 83q37 39 80 39t78 -30t35 -74t-39 -76q-35 -35 -81 -35t-77 25.5t-31 67.5zM350 410q0 48 34 80t77 32t67 -39q25 -35 25 -77t-33 -76q-27 -35 -72.5 -35.5t-71.5 33.5t-26 82zM111 682q0 104 86 104q41 0 77 -26t37 -69q0 -44 -35 -79q-37 -33 -83 -32
q-82 -2 -82 102z" />
    <glyph glyph-name="cmbdottedgrave" unicode="&#x1dc0;" 
d="M-545 1528l301 -424l-84 -49l-305 420zM-573 1156q0 -36 -27 -62.5t-65 -26.5t-64.5 26.5t-26.5 62.5t27 62.5t65 26.5t64.5 -26.5t26.5 -62.5zM-137 1433.5q0 -36.5 -26.5 -63.5t-63.5 -27t-63.5 27t-26.5 63.5t26.5 63.5t63.5 27t63.5 -27t26.5 -63.5z" />
    <glyph glyph-name="cmbdottedacute" unicode="&#x1dc1;" 
d="M-260 1475l-305 -420l-84 49l301 424zM-319 1156q0 36 26.5 62.5t64.5 26.5t64.5 -26.5t26.5 -62.5t-26.5 -62.5t-64.5 -26.5t-64.5 26.5t-26.5 62.5zM-756 1433.5q0 36.5 27 63.5t63.5 27t63.5 -27t27 -63.5t-27 -63.5t-63.5 -27t-63.5 27t-27 63.5z" />
    <glyph glyph-name="cmbsnakebelow" unicode="&#x1dc2;" 
d="M-268 -226q0 -30 -22.5 -47.5t-48.5 -31.5t-47.5 -26.5t-19.5 -26.5v-4q0 -12 3 -15l40 -40q37 -37 37 -62t-17 -43.5t-38.5 -32.5t-38 -26.5t-12.5 -22.5q10 -35 42 -47.5t91 -22.5l-4 -28q-207 8 -207 96q0 31 14.5 43t33 21.5t32.5 20.5t14 33t-13 34t-40.5 35
t-24.5 67q0 23 20.5 37t45.5 26.5t45.5 25.5t20.5 33.5t-16.5 28.5t-63.5 8t-97 -47l-43 39q61 72 187 72q59 0 93 -33.5t34 -63.5z" />
    <glyph glyph-name="cmbsuspensionmrk" unicode="&#x1dc3;" 
d="M-803 1233q0 141 119 141q33 0 33 -12q0 -18 -21 -47q-20 -35 -20 -47q0 -58 108 -58q147 -1 234 72l51 53q35 35 59 35t23.5 -18.5t-29.5 -57.5q-140 -186 -352 -186q-102 0 -153.5 36t-51.5 89z" />
    <glyph glyph-name="uni1DC4" unicode="&#x1dc4;" 
d="M-791 1180v118h406l379 230l61 -103l-411 -245h-435z" />
    <glyph glyph-name="uni1DC5" unicode="&#x1dc5;" 
d="M55 1298v-118h-434l-412 245l64 103l379 -230h403z" />
    <glyph glyph-name="uni1DC6" unicode="&#x1dc6;" 
d="M-791 1409v119h435l411 -248l-61 -100l-379 229h-406z" />
    <glyph glyph-name="uni1DC7" unicode="&#x1dc7;" 
d="M55 1528v-119h-403l-379 -229l-64 100l412 248h434z" />
    <glyph glyph-name="uni1DC8" unicode="&#x1dc8;" 
d="M-227 1526l319 -256l-74 -80l-245 205l-310 -207l-294 266l81 68l213 -195z" />
    <glyph glyph-name="uni1DC9" unicode="&#x1dc9;" 
d="M-201 1327l213 195l80 -68l-293 -266l-309 207l-248 -205l-73 80l319 256z" />
    <glyph glyph-name="Psilivariacomb" unicode="&#x1fcd;" 
d="M-317 1407h55l147 -440h-51l-211 346q0 33 15 59q16 35 45 35zM-508 1229q0 92 -158 92h-34v70q59 14 129 14q174 0 174 -115q0 -90 -58 -151q-29 -33 -117 -79t-124 -91l-2 43q190 100 190 217z" />
    <glyph glyph-name="Psilioxiacomb" unicode="&#x1fce;" 
d="M-131 1417q61 0 61 -94l-213 -346h-51l150 440h53zM-563 1321h-35v70q59 14 129 14q172 0 172 -115q0 -94 -55 -151q-29 -33 -119 -81t-123 -89l-4 43q193 100 192 217q0 92 -157 92z" />
    <glyph glyph-name="Dasiavariacomb" unicode="&#x1fdd;" 
d="M-250 1407h53l150 -440h-53l-211 346q0 27 16 61t45 33zM-645 1290q0 115 172 115q70 0 129 -14v-70h-35q-158 0 -158 -92q0 -117 193 -217l-4 -43q-33 41 -123 89t-119 81q-55 57 -55 151z" />
    <glyph glyph-name="Dasiaoxiacomb" unicode="&#x1fde;" 
d="M-106 1399q59 0 59 -92l-211 -349h-51l147 441h56zM-489 1405q70 0 129 -14v-70h-35q-158 0 -158 -92q0 -117 191 -217l-3 -43q-35 43 -123 90q-89 47 -118 80q-57 61 -58 151q0 115 175 115z" />
    <glyph glyph-name="EnQuad" unicode="&#x2000;" horiz-adv-x="1024" 
 />
    <glyph glyph-name="EmQuad" unicode="&#x2001;" horiz-adv-x="2048" 
 />
    <glyph glyph-name="enspace" unicode="&#x2002;" horiz-adv-x="1024" 
 />
    <glyph glyph-name="EmSpace" unicode="&#x2003;" horiz-adv-x="2048" 
 />
    <glyph glyph-name="ThreePerEmSpace" unicode="&#x2004;" horiz-adv-x="681" 
 />
    <glyph glyph-name="FourPerEmSpace" unicode="&#x2005;" horiz-adv-x="512" 
 />
    <glyph glyph-name="SixPerEmSpace" unicode="&#x2006;" horiz-adv-x="342" 
 />
    <glyph glyph-name="ThinSpace" unicode="&#x2009;" horiz-adv-x="174" 
 />
    <glyph glyph-name="HairSpace" unicode="&#x200a;" horiz-adv-x="83" 
 />
    <glyph glyph-name="zerowidthspace" unicode="&#x200b;" 
 />
    <glyph glyph-name="zerowidthnonjoiner" unicode="&#x200c;" 
 />
    <glyph glyph-name="afii301" unicode="&#x200d;" 
 />
    <glyph glyph-name="afii299" unicode="&#x200e;" 
 />
    <glyph glyph-name="afii300" unicode="&#x200f;" 
 />
    <glyph glyph-name="uni2010" unicode="&#x2010;" horiz-adv-x="681" 
d="M653 397h-573v129h573v-129z" />
    <glyph glyph-name="uni2011" unicode="&#x2011;" horiz-adv-x="681" 
d="M653 397h-573v129h573v-129z" />
    <glyph glyph-name="figuredash" unicode="&#x2012;" horiz-adv-x="681" 
d="M653 397h-573v129h573v-129z" />
    <glyph glyph-name="endash" unicode="&#x2013;" horiz-adv-x="999" 
d="M903 426h-823v100h823v-100z" />
    <glyph glyph-name="emdash" unicode="&#x2014;" horiz-adv-x="2064" 
d="M1912 293q-24 0 -56 50t-78 50q-179 0 -498 -39l-446 -53q-256 -25 -430 -25t-238 52t-64 204q0 33 12 41q12 9 70 9t86 -19q14 -6 20 -57t9 -66q39 -80 233 -80t394 18q201 18 504.5 50.5t474.5 32.5q39 0 43 -25l6 -137q-18 -6 -42 -6z" />
    <glyph glyph-name="horizontalbar" unicode="&#x2015;" horiz-adv-x="1024" 
d="M1038 512v-100h-1052v100h1052z" />
    <glyph glyph-name="dblverticalbar" unicode="&#x2016;" horiz-adv-x="1054" 
d="M688 -176v1866h174v-1866h-174zM225 -176v1866h174v-1866h-174z" />
    <glyph glyph-name="quoteleft" unicode="&#x2018;" horiz-adv-x="518" 
d="M397 947q0 -46 -29.5 -75.5t-76.5 -29.5q-78 0 -127 60.5t-49 154.5q0 162 141 264q77 57 101 57t24 -22q0 -8 -12 -21q-166 -102 -166 -245q0 -59 30 -60q13 0 41 12q20 4 46 4t51.5 -26.5t25.5 -72.5z" />
    <glyph glyph-name="quoteright" unicode="&#x2019;" horiz-adv-x="518" 
d="M403 1163q0 -158 -143 -264q-77 -57 -100 -57t-23 22q0 12 25 29q153 101 153 237q0 59 -30 60q-15 0 -43 -12q-20 -4 -45 -4t-50.5 26.5t-25.5 72.5t29.5 75.5t76.5 29.5q76 0 126 -60.5t50 -154.5z" />
    <glyph glyph-name="quotesinglbase" unicode="&#x201a;" horiz-adv-x="882" 
d="M338 86q0 45 29.5 74.5t76.5 29.5q78 0 127.5 -60t49.5 -153q0 -166 -142 -266q-77 -57 -100 -57t-23 22q0 15 25 29q151 114 151 238q0 59 -30 59l-72 -16q-41 0 -66.5 27.5t-25.5 72.5z" />
    <glyph glyph-name="quoteleftreversed" unicode="&#x201b;" horiz-adv-x="485" 
d="M176 1132q0 -47 51.5 -105.5t116.5 -100.5l-18 -39q-92 41 -161 129.5t-69 172.5q0 85 44 140t108 55t98.5 -31.5t34.5 -86.5t-38 -79t-89 -24l-49 8q-10 0 -19.5 -8.5t-9.5 -30.5z" />
    <glyph glyph-name="quotedblleft" unicode="&#x201c;" horiz-adv-x="882" 
d="M397 947q0 -46 -29.5 -75.5t-76.5 -29.5q-78 0 -127 60.5t-49 154.5q0 162 141 264q77 57 101 57t24 -22q0 -8 -12 -21q-166 -102 -166 -245q0 -59 30 -60q13 0 41 12q20 4 46 4t51.5 -26.5t25.5 -72.5zM762 947q0 -46 -30 -75.5t-77 -29.5q-76 0 -126 60.5t-50 154.5
q0 164 144 264q77 57 100 57t22 -22q0 -13 -24 -29q-154 -102 -154 -234q0 -62 33 -63q13 0 41 12q20 4 45 4t50.5 -26.5t25.5 -72.5z" />
    <glyph glyph-name="quotedblright" unicode="&#x201d;" horiz-adv-x="882" 
d="M422 1163q0 -164 -143 -264q-77 -57 -100 -57q-24 0 -23 22q0 13 24 29q154 102 154 234q0 62 -33 63q-13 0 -41 -12q-20 -4 -45 -4t-50.5 26.5t-25.5 72.5t30 75.5t77 29.5q76 0 126 -60.5t50 -154.5zM786 1163q0 -164 -141 -264q-77 -57 -101 -57t-24 22q0 8 12 21
q166 102 166 245q0 59 -30 60q-13 0 -41 -12q-20 -4 -46 -4t-51.5 26.5t-25.5 72.5t29.5 75.5t76.5 29.5q78 0 127 -60.5t49 -154.5z" />
    <glyph glyph-name="quotedblbase" unicode="&#x201e;" horiz-adv-x="882" 
d="M485 86q0 45 30 74.5t77 29.5q78 0 127 -60t49 -153q0 -168 -141 -266q-77 -57 -100 -57q-24 0 -23 22q0 14 10 21l14 8q152 115 152 238q0 59 -31 59l-71 -16q-41 0 -67 27.5t-26 72.5zM121 86q0 45 29.5 74.5t76.5 29.5q76 0 126 -60t50 -153q0 -160 -143 -266
q-73 -57 -98 -57t-25 24q1 10 53 48t88.5 95t36.5 119t-30 62l-74 -16q-39 0 -64.5 27.5t-25.5 72.5z" />
    <glyph glyph-name="quotedblleftaltone" unicode="&#x201f;" horiz-adv-x="882" 
d="M258 1190q-31 0 -31 -62q0 -133 166 -243q12 -12 13 -21q0 -57 -123 32q-144 105 -144 267q0 94 49.5 154.5t126.5 60.5q47 0 77 -29.5t30 -75.5t-25 -72.5t-51 -26.5t-47 4q-28 12 -41 12zM625 1190q-33 0 -33 -63q0 -120 153 -234q25 -15 25 -29q0 -22 -23 -22t-100 57
q-143 102 -143 264q0 94 50 154.5t126 60.5q47 0 76.5 -29.5t29.5 -75.5t-25.5 -72.5t-54.5 -26.5t-50 8q-20 8 -31 8z" />
    <glyph glyph-name="Dagger" unicode="&#x2020;" horiz-adv-x="874" 
d="M375 692q-55 0 -166 -24.5t-166 -24.5q-43 0 -43 102q0 66 59 66q71 1 170 -21t166 -22v10q0 84 -24.5 244t-24.5 242q0 49 64 49t79 -10q25 -9 25 -55q0 -106 -24 -237t-23 -229v-14h10q294 49 346 49q41 0 41 -117q0 -53 -49 -53q-71 0 -191 22t-159 25v-12
q-6 -72 -6 -196q-1 -124 33 -448q34 -323 34 -468q0 -70 -88 -70q-57 0 -76 13q-20 18 -20 117t20 409t21 440l14 213h-22z" />
    <glyph glyph-name="Daggerdbl" unicode="&#x2021;" horiz-adv-x="874" 
d="M82 -70q-50 0 -51 88q0 49 41 66h20q55 0 139 -18t124 -25.5t61 -11.5l-49 368v4q0 43 11 103t15 89.5t5 40.5t16 157q-53 -4 -164 -31t-156 -27t-53 27q-6 12 -6 70t45 57q45 1 163 -21t171 -26q-6 14 -20 156q-15 141 -21 196t-6 61q0 63 77 63t76 -69q0 -58 -23 -198
t-28 -209l29 -2q53 0 151 26t128 25h20q20 0 30 -2l15 -19l2 -51q0 -82 -43 -82t-99 15l-100 24q-25 6 -137 17q41 -373 41 -412t-21 -148q-18 -117 -18 -147v-24q0 -23 2 -33q18 4 57 11.5t116 27.5t115 20t58 -4q29 -27 29 -86t-48 -59t-163 22t-166 27l10 -97
q10 -97 24 -190q15 -93 17 -111q0 -82 -55 -82q-102 0 -103 48q0 32 10 76t18 134q7 90 26 218q-74 0 -178 -26t-154 -26z" />
    <glyph glyph-name="bullet" unicode="&#x2022;" horiz-adv-x="747" 
d="M533.5 578.5q-62.5 -66.5 -155.5 -66.5t-159.5 65.5t-66.5 157.5t62.5 156.5t155.5 64.5t159.5 -65t66.5 -155q0 -91 -62.5 -157.5z" />
    <glyph glyph-name="trianglebullet" unicode="&#x2023;" horiz-adv-x="749" 
d="M664 629l-502 -443v885z" />
    <glyph glyph-name="onedotenleader" unicode="&#x2024;" horiz-adv-x="499" 
d="M275 197q38 0 67 -35q23 -33 23 -72t-23 -72q-29 -34 -67 -34q-37 0 -61 32t-24 72q0 41 23 76q24 33 62 33z" />
    <glyph glyph-name="twodotenleader" unicode="&#x2025;" horiz-adv-x="1103" 
d="M745 89q0 38 25 73t63.5 35t62.5 -35t24 -74t-24 -73q-24 -33 -62 -33t-66 34q-23 35 -23 73zM275 197q38 0 67 -35q23 -33 23 -72t-23 -72q-29 -34 -67 -34q-37 0 -61 32t-24 72q0 41 23 76q24 33 62 33z" />
    <glyph glyph-name="ellipsis" unicode="&#x2026;" horiz-adv-x="1658" 
d="M745 89q0 38 25 73t63.5 35t62.5 -35t24 -74t-24 -73q-24 -33 -62 -33t-66 34q-23 35 -23 73zM275 197q38 0 67 -35q23 -33 23 -72t-23 -72q-29 -34 -67 -34q-37 0 -61 32t-24 72q0 41 23 76q24 33 62 33zM1296 91q0 42 24 74t62 32t66 -35q20 -29 20 -72t-20 -72
q-29 -34 -68 -34t-59 32q-25 33 -25 75z" />
    <glyph glyph-name="guilsinglleft" unicode="&#x2039;" horiz-adv-x="544" 
d="M414 950h59l-231 -446l231 -449h-59l-361 449z" />
    <glyph glyph-name="guilsinglright" unicode="&#x203a;" horiz-adv-x="544" 
d="M131 55h-59l233 449l-233 446h59l363 -446z" />
    <glyph glyph-name="referencemark" unicode="&#x203b;" horiz-adv-x="1552" 
d="M897 122q0 -50 -35 -85t-84 -35t-85 35t-36 85t36 85t85 35t84 -35t35 -85zM336 693q0 -50 -34 -85t-84 -35t-85 35t-35 85t35 84t85 34t84 -34t34 -84zM1343 10l-569 568l-567 -568l-117 117l567 567l-567 572l117 116l567 -571l569 571l117 -116l-567 -572l567 -567z
M1458 693q0 -50 -34.5 -85t-84 -35t-84 35t-34.5 85t34.5 84t84 34t84 -34t34.5 -84zM897 1268q0 -49 -35 -84t-84 -35t-85 35t-36 84t36 83.5t85 34.5t84 -34.5t35 -83.5z" />
    <glyph glyph-name="overline" unicode="&#x203e;" horiz-adv-x="1366" 
d="M1366 1427h-1366v113h1366v-113z" />
    <glyph glyph-name="undertie" unicode="&#x203f;" horiz-adv-x="1509" 
d="M340.5 -260.5q-194.5 83.5 -305.5 260.5h108q225 -173 374 -195t248 -22q198 0 336 51t285 166h109q-111 -177 -305.5 -260.5t-424.5 -83.5t-424.5 83.5z" />
    <glyph glyph-name="tie" unicode="&#x2040;" horiz-adv-x="1509" 
d="M765 1585q-198 0 -332.5 -49.5t-289.5 -169.5h-108q115 178 306.5 262t424.5 84q356 0 512 -126t217 -220h-109q-156 120 -289.5 169.5t-331.5 49.5z" />
    <glyph glyph-name="closeup" unicode="&#x2050;" horiz-adv-x="1509" 
d="M340.5 -260.5q-194.5 83.5 -305.5 260.5h108q225 -173 374 -195t248 -22q198 0 336 51t285 166h109q-111 -177 -305.5 -260.5t-424.5 -83.5t-424.5 83.5zM765 1585q-198 0 -332.5 -49.5t-289.5 -169.5h-108q115 178 306.5 262t424.5 84q356 0 512 -126t217 -220h-109
q-156 120 -289.5 169.5t-331.5 49.5z" />
    <glyph glyph-name="uni2053" unicode="&#x2053;" horiz-adv-x="966" 
d="M610 346q-84 0 -237 45t-208 45t-104 -20t-57 -21q-8 0 -8 27l-39 10q147 123 307 123q74 0 206 -40t200 -40q176 0 262 76l10 2q7 -7 37 -43q-47 -63 -166 -114q-119 -50 -203 -50z" />
    <glyph glyph-name="invertedundertie" unicode="&#x2054;" horiz-adv-x="1509" 
d="M765 -127q-194 0 -332.5 -50t-289.5 -167h-108q111 177 305.5 260.5t425.5 83.5q357 0 513.5 -125t215.5 -219h-109q-152 117 -289.5 167t-331.5 50z" />
    <glyph glyph-name="Threedotleft" unicode="&#x2056;" horiz-adv-x="587" 
d="M443 -4q-46 0 -83 34q-36 34 -36 78t34 73q34 30 79 30q46 0 81 -40t35 -82t-32 -67.5t-78 -25.5zM307 410q-1 -48 -27 -82t-71 -33.5t-74 37.5t-29 77q0 41 24 77t67 36t77 -32t33 -80zM547 682q0 -104 -82 -102q-47 0 -84 32q-35 35 -35 78t37 70t78 26q86 0 86 -104z
" />
    <glyph glyph-name="Fourdot" unicode="&#x2058;" horiz-adv-x="845" 
d="M477 -4q-45 0 -84 32t-39 78t35 74q35 29 80 29t81 -39t36 -80q0 -94 -109 -94zM246.5 292.5q-43.5 0.5 -74.5 36.5t-31 78t27 76q24 37 66 37t75 -33t33 -80t-26 -81t-69.5 -33.5zM807 446q0 -48 -29 -82t-69 -34q-41 0 -73 32t-32 68.5t35 75.5q39 39 74 39
q94 0 94 -99zM473 643q-49 0 -84 33t-35 78q0 46 38 70t77 24q84 0 84 -102t-80 -103z" />
    <glyph glyph-name="uni2059" unicode="&#x2059;" horiz-adv-x="958" 
d="M403 428q0 41 25 78t68 37q44 0 76 -34t32 -80t-28 -81t-69 -35q-42 0 -73 37t-31 78zM776 -4q-45 0 -84 32.5t-39 77.5t36 74t82 29t80 -39t34 -80q0 -94 -109 -94zM772 643q-47 0 -83 33t-36 78t41 69q33 25 76 25q82 0 82 -102t-80 -103zM238 -4q-45 0 -84 32t-39 78
t35 74q36 29 82 29t80 -39t34 -80q1 -94 -108 -94zM233 643q-47 0 -82.5 33t-35.5 79t41 68q33 25 75 25q82 0 82 -102t-80 -103z" />
    <glyph glyph-name="dottedcross" unicode="&#x205c;" horiz-adv-x="1613" 
d="M313 106q-53 0 -89 38t-36 89.5t36 88.5t90 36.5t90 -36.5t36 -89t-37 -90t-90 -37zM321.5 1004q-49.5 0 -88.5 38q-37 39 -36.5 88.5t36.5 88.5q39 37 88.5 37t88.5 -38t39 -87.5t-39 -88t-88.5 -38.5zM713 0v627h-643v174h645v565h172v-563h641v-176h-641v-627h-174z
M1295 113q-52 0 -88 39t-37 89t38 87q35 39 87.5 39t88.5 -37q39 -35 39 -87t-38 -91t-90 -39zM1295.5 1260q52.5 0 90.5 -37t36.5 -89.5t-38 -89t-90 -37.5t-88.5 40q-35 35 -36 87t36 89t89.5 37z" />
    <glyph glyph-name="Euro" unicode="&#x20ac;" horiz-adv-x="1036" 
d="M195 688v37h-91q-32 0 -32 51t32 51h109q28 127 137 306q86 137 195 205t198 67q55 -1 123 -109q117 -187 33 -270q-32 -32 -82 -61l-49 2q-6 89 -38 153t-83 88t-88 25q-88 0 -145 -148q-47 -119 -47 -223v-35h411q33 0 33 -51q0 -18 -9 -34t-24 -17h-405q4 -23 7 -47
t7 -45l6 -45h242q30 0 33 -51q0 -19 -10 -35t-23 -17h-221q24 -77 67 -143q88 -147 174 -147q57 0 110 17q53 18 66 28t37 32t62 56l31 -15q-8 -45 -158 -190q-94 -94 -215 -136q-27 -9 -37 -10q-164 0 -299 404q-18 53 -31 104h-117q-32 1 -32 51t32 52h97q-6 51 -6 100z
" />
    <glyph glyph-name="uni20BD" unicode="&#x20bd;" horiz-adv-x="931" 
d="M715 1028q0 123 -70 211q-73 98 -197 98t-124 -61v-596q0 -70 38 -70q172 0 262 120t91 298zM37 330q0 35 33 35h51v966q0 59 131 60q268 0 420 -48q240 -81 240 -303t-177 -354q-176 -132 -411 -133v-188h501q16 0 24.5 -16.5t8.5 -35t-9 -35t-24 -16.5h-501v-229
q0 -43 -102 -43t-101 43v229h-51q-16 0 -24.5 16.5t-8.5 51.5z" />
    <glyph glyph-name="Circlecomb" unicode="&#x20dd;" horiz-adv-x="782" 
d="M-448.5 1325q-366.5 0 -612.5 -252q-240 -252 -239.5 -620.5t241.5 -622.5q241 -252 609 -252t611 253t242.5 621.5t-239.5 620.5q-246 252 -612.5 252zM-448.5 -516q-409.5 0 -678 280.5t-269 688t269.5 689.5t677.5 282t676.5 -282t269.5 -689.5t-268 -688t-678 -280.5
z" />
    <glyph glyph-name="Nomer" unicode="&#x2116;" horiz-adv-x="2031" 
d="M1753 608q0 209 -92 326q-70 88 -137.5 88t-67.5 -213t127 -324q49 -43 76 -43q94 0 94 166zM1901 756q1 -126 -97 -318t-211 -192q-57 0 -165 130t-109 331q0 95 101 299t186 204q49 0 131 -82q164 -159 164 -372zM1120 31q0 -49 -102 -49t-100 53v268l-594 748v-1018
q0 -51 -102 -51t-101 51v1325q0 43 101 43t102 -43v-197l594 -743v942q0 41 101 41t101 -49v-1321zM1948 -8q-80 -6 -319 -6t-296 14q-2 14 -2 16v17q0 18 8 45h117l320 6q121 0 170 -12z" />
    <glyph glyph-name="uni2160" unicode="&#x2160;" horiz-adv-x="440" 
d="M332 33q0 -43 -80 -43q-123 0 -123 43v1317q0 41 123 41q80 0 80 -43v-1315z" />
    <glyph glyph-name="uni2161" unicode="&#x2161;" horiz-adv-x="868" 
d="M756 33q0 -43 -80 -43q-123 0 -123 43v1317q0 41 123 41q80 0 80 -43v-1315zM332 33q0 -43 -80 -43q-123 0 -123 43v1317q0 41 123 41q80 0 80 -43v-1315z" />
    <glyph glyph-name="uni2162" unicode="&#x2162;" horiz-adv-x="1323" 
d="M1178 33q0 -43 -80 -43q-123 0 -123 43v1317q0 41 123 41q80 0 80 -43v-1315zM756 33q0 -43 -80 -43q-123 0 -123 43v1317q0 41 123 41q80 0 80 -43v-1315zM332 33q0 -43 -80 -43q-123 0 -123 43v1317q0 41 123 41q80 0 80 -43v-1315z" />
    <glyph glyph-name="uni2163" unicode="&#x2163;" horiz-adv-x="1456" 
d="M598 1401q51 0 74 -12t28 -54l226 -1134q88 547 184 940q68 279 199 278q61 -1 104 -121t43 -172t-16.5 -93.5t-29.5 -61t-42 -19.5t-47 32t-28.5 69t-19.5 68.5t-30 31.5q-50 0 -113 -268q-94 -428 -135 -758q-16 -129 -39 -129h-108q-96 0 -111 76l-252 1235l-2 22
q0 70 115 70zM332 33q0 -43 -80 -43q-123 0 -123 43v1317q0 41 123 41q80 0 80 -43v-1315z" />
    <glyph glyph-name="uni2164" unicode="&#x2164;" horiz-adv-x="1042" 
d="M180 1401q51 0 74 -12t29 -54l225 -1134q88 547 184 940q68 279 199 278q61 -1 104 -121t43 -171t-23.5 -113t-51.5 -62q-41 0 -59.5 32t-29 69t-19.5 68.5t-30 31.5q-37 0 -68.5 -106.5t-43.5 -161.5q-94 -428 -135 -758q-16 -129 -39 -129h-109q-96 0 -111 76
l-251 1235l-2 22q0 70 114 70z" />
    <glyph glyph-name="uni2165" unicode="&#x2165;" horiz-adv-x="1458" 
d="M1323 33q0 -43 -80 -43q-123 0 -123 43v1317q0 41 123 41q80 0 80 -43v-1315zM180 1401q51 0 74 -12t29 -54l225 -1134q88 547 184 940q68 279 199 278q61 -1 104 -121t43 -171t-23.5 -113t-51.5 -62q-41 0 -59.5 32t-29 69t-19.5 68.5t-30 31.5q-37 0 -68.5 -106.5
t-43.5 -161.5q-94 -428 -135 -758q-16 -129 -39 -129h-109q-96 0 -111 76l-251 1235l-2 22q0 70 114 70z" />
    <glyph glyph-name="uni2166" unicode="&#x2166;" horiz-adv-x="1888" 
d="M1761 33q0 -43 -80 -43q-123 0 -122 43v1317q0 41 122 41q80 0 80 -43v-1315zM1337 33q0 -43 -80 -43q-123 0 -122 43v1317q0 41 122 41q80 0 80 -43v-1315zM180 1401q51 0 74 -12t29 -54l225 -1134q88 547 184 940q68 279 199 278q61 -1 104 -121t43 -171t-23.5 -113
t-51.5 -62q-41 0 -59.5 32t-29 69t-19.5 68.5t-30 31.5q-37 0 -68.5 -106.5t-43.5 -161.5q-94 -428 -135 -758q-16 -129 -39 -129h-109q-96 0 -111 76l-251 1235l-2 22q0 70 114 70z" />
    <glyph glyph-name="uni2167" unicode="&#x2167;" horiz-adv-x="2310" 
d="M2198 33q0 -43 -80 -43q-123 0 -123 43v1317q0 41 123 41q80 0 80 -43v-1315zM1776 33q0 -43 -80 -43q-123 0 -123 43v1317q0 41 123 41q80 0 80 -43v-1315zM1352 33q0 -43 -80 -43q-123 0 -123 43v1317q0 41 123 41q80 0 80 -43v-1315zM180 1401q51 0 74 -12t29 -54
l225 -1134q88 547 184 940q68 279 199 278q61 -1 104 -121t43 -171t-23.5 -113t-51.5 -62q-41 0 -59.5 32t-29 69t-19.5 68.5t-30 31.5q-37 0 -68.5 -106.5t-43.5 -161.5q-94 -428 -135 -758q-16 -129 -39 -129h-109q-96 0 -111 76l-251 1235l-2 22q0 70 114 70z" />
    <glyph glyph-name="uni2168" unicode="&#x2168;" horiz-adv-x="1472" 
d="M707 49q0 -61 -119 -61q-51 0 -66 14q-22 14 -22 75t77.5 245t237.5 471q-301 519 -301 561q0 43 94 43q49 0 74.5 -22.5t44.5 -61.5l184 -344q25 45 73.5 136t86.5 144q107 158 187 158q80 1 120 -59t39 -136q0 -76 -22 -133q-29 -84 -82 -84q-10 -1 -84 105t-86 106
q-21 0 -80 -99t-111 -210l463 -827q17 -28 17 -54t-12 -27t-88 -1t-103 51l-367 668q-155 -358 -155 -658zM332 33q0 -43 -80 -43q-123 0 -123 43v1317q0 41 123 41q80 0 80 -43v-1315z" />
    <glyph glyph-name="uni2169" unicode="&#x2169;" horiz-adv-x="1009" 
d="M258 49q0 -61 -119 -61q-51 0 -65 14q-23 14 -23 75t78 245t238 471q-301 519 -301 561q0 43 94 43q48 0 72 -21.5t32 -36t15 -26.5l184 -344q25 45 77.5 143.5t82.5 136.5q106 158 186 158q80 1 120 -59t40 -135t-23 -134q-29 -84 -82 -84q-10 -1 -84 105t-86 106
q-22 0 -81.5 -102.5t-108.5 -206.5l463 -827q16 -28 16 -54t-12.5 -27t-88.5 -1t-102 51l-366 668q-156 -360 -156 -658z" />
    <glyph glyph-name="uni216A" unicode="&#x216a;" horiz-adv-x="1447" 
d="M1307 33q0 -43 -80 -43q-123 0 -123 43v1317q0 41 123 41q80 0 80 -43v-1315zM258 49q0 -61 -119 -61q-51 0 -65 14q-23 14 -23 75t78 245t238 471q-301 519 -301 561q0 43 94 43q48 0 72 -21.5t32 -36t15 -26.5l184 -344q25 45 77.5 143.5t82.5 136.5q106 158 186 158
q80 1 120 -59t40 -135t-23 -134q-29 -84 -82 -84q-10 -1 -84 105t-86 106q-22 0 -81.5 -102.5t-108.5 -206.5l463 -827q16 -28 16 -54t-12.5 -27t-88.5 -1t-102 51l-366 668q-156 -360 -156 -658z" />
    <glyph glyph-name="uni216B" unicode="&#x216b;" horiz-adv-x="1925" 
d="M1774 33q0 -43 -80 -43q-123 0 -123 43v1317q0 41 123 41q80 0 80 -43v-1315zM1350 33q0 -43 -80 -43q-123 0 -123 43v1317q0 41 123 41q80 0 80 -43v-1315zM258 49q0 -61 -119 -61q-51 0 -65 14q-23 14 -23 75t78 245t238 471q-301 519 -301 561q0 43 94 43
q48 0 72 -21.5t32 -36t15 -26.5l184 -344q25 45 77.5 143.5t82.5 136.5q106 158 186 158q80 1 120 -59t40 -135t-23 -134q-29 -84 -82 -84q-10 -1 -84 105t-86 106q-22 0 -81.5 -102.5t-108.5 -206.5l463 -827q16 -28 16 -54t-12.5 -27t-88.5 -1t-102 51l-366 668
q-156 -360 -156 -658z" />
    <glyph glyph-name="uni216C" unicode="&#x216c;" horiz-adv-x="901" 
d="M817 416q66 0 66 -256q0 -58 -4.5 -65t-6.5 -15q-25 -80 -100 -80h-600q-51 0 -51 43v1298q0 49 101 49t102 -44v-1164q0 -66 38 -86t109 -20h43q121 0 180 104q8 12 21.5 31.5t41.5 112.5q27 92 60 92z" />
    <glyph glyph-name="uni216D" unicode="&#x216d;" horiz-adv-x="847" 
d="M532 195q60 0 112 17q52 18 64 28t36 32t63 56l31 -15q-8 -45 -158 -190q-94 -94 -215 -136q-27 -9 -37 -10q-141 0 -258 293q-98 246 -98 428t155 435q86 137 195 205t199 67q55 -1 123 -109t67 -172q0 -64 -33 -96q-33 -33 -84 -63l-49 2q-6 89 -38 153t-83 88t-88 25
q-88 0 -145 -148q-47 -119 -47 -231t20 -221q17 -166 94 -291q88 -147 174 -147z" />
    <glyph glyph-name="uni216E" unicode="&#x216e;" horiz-adv-x="1150" 
d="M840 635q0 86 -5.5 154.5t-27 188t-108 233.5t-240.5 114h-131v-1245q27 -2 70 -2t81 10q298 68 329.5 264.5t31.5 282.5zM608 1393q88 0 176 -56.5t201 -212.5t113 -438t-105.5 -429.5t-195.5 -202t-195 -54.5h-366q-111 0 -111 49v1297q0 20 23.5 33.5t72.5 13.5h387z
" />
    <glyph glyph-name="uni216F" unicode="&#x216f;" horiz-adv-x="1427" 
d="M1374 27q0 -43 -102 -43t-101 43l11 1144l-21 -2q-72 -434 -110 -618q-104 -471 -203 -537q-45 -29 -107 -28q-171 0 -231.5 285.5t-91.5 451.5l-82 446h-23l11 -1142q0 -43 -102 -43t-101 43v1327q0 37 39 37h176q31 0 43 -62l133 -624q98 -463 252 -463q137 0 260 585
l104 502q12 61 50 62h163q33 0 33 -37v-1327z" />
    <glyph glyph-name="uni2170" unicode="&#x2170;" horiz-adv-x="473" 
d="M326 20q0 -35 -68 -34h-59q-49 0 -49 34v889q0 35 63 35h45q68 0 68 -35v-889zM317 1157q0 -70 -88 -70t-88 72v139q0 66 88 66t88 -72v-135z" />
    <glyph glyph-name="uni2171" unicode="&#x2171;" horiz-adv-x="876" 
d="M715 20q0 -35 -68 -34h-59q-49 0 -49 34v889q0 35 63 35h45q68 0 68 -35v-889zM707 1157q-1 -70 -89 -70t-88 72v139q0 66 88 66t89 -72v-135zM326 20q0 -35 -68 -34h-59q-49 0 -49 34v889q0 35 63 35h45q68 0 68 -35v-889zM317 1157q0 -70 -88 -70t-88 72v139
q0 66 88 66t88 -72v-135z" />
    <glyph glyph-name="uni2172" unicode="&#x2172;" horiz-adv-x="1261" 
d="M1108 20q0 -35 -68 -34h-59q-49 0 -49 34v889q0 35 63 35h45q68 0 68 -35v-889zM1100 1157q0 -70 -88 -70t-88 72v139q0 66 88 66t88 -72v-135zM715 20q0 -35 -68 -34h-59q-49 0 -49 34v889q0 35 63 35h45q68 0 68 -35v-889zM707 1157q-1 -70 -89 -70t-88 72v139
q0 66 88 66t89 -72v-135zM326 20q0 -35 -68 -34h-59q-49 0 -49 34v889q0 35 63 35h45q68 0 68 -35v-889zM317 1157q0 -70 -88 -70t-88 72v139q0 66 88 66t88 -72v-135z" />
    <glyph glyph-name="uni2173" unicode="&#x2173;" horiz-adv-x="1331" 
d="M494 907q0 47 116 47q66 0 74 -45l182 -774q75 375 105 473q100 350 229 350q49 0 90 -76t41 -123q-1 -49 -27 -105t-57 -56q-16 0 -61 75t-58 75q-33 0 -108 -270t-92 -394q0 -86 -35 -86l-135 2q-35 0 -56 49q-25 51 -116 423q-92 372 -92 435zM326 20q0 -35 -68 -34
h-59q-49 0 -49 34v889q0 35 63 35h45q68 0 68 -35v-889zM317 1157q0 -70 -88 -70t-88 72v139q0 66 88 66t88 -72v-135z" />
    <glyph glyph-name="uni2174" unicode="&#x2174;" horiz-adv-x="897" 
d="M764 958q49 0 90 -76t41 -123q0 -49 -27 -105t-57 -56q-16 0 -61 75t-58 75q-34 0 -108 -267t-84 -345q-10 -79 -17 -109q-6 -29 -26 -29l-135 2q-35 0 -57 48t-118 425q-90 377 -90 434q0 47 117 47q66 0 74 -45l182 -774q75 375 105 473q100 350 229 350z" />
    <glyph glyph-name="uni2175" unicode="&#x2175;" horiz-adv-x="1349" 
d="M1192 20q0 -35 -68 -34h-59q-49 0 -49 34v889q0 35 63 35h45q68 0 68 -35v-889zM1184 1157q0 -70 -88 -70t-88 72v139q0 66 88 66t88 -72v-135zM764 958q49 0 90 -76t41 -123q0 -49 -27 -105t-57 -56q-16 0 -61 75t-58 75q-34 0 -108 -267t-84 -345q-10 -79 -17 -109
q-6 -29 -26 -29l-135 2q-35 0 -57 48t-118 425q-90 377 -90 434q0 47 117 47q66 0 74 -45l182 -774q75 375 105 473q100 350 229 350z" />
    <glyph glyph-name="uni2176" unicode="&#x2176;" horiz-adv-x="1685" 
d="M1552 20q0 -35 -67 -34h-60q-49 0 -49 34v889q0 35 64 35h45q68 0 67 -35v-889zM1544 1157q0 -70 -88 -70t-88 72v139q0 66 88 66t88 -72v-135zM1163 20q0 -35 -67 -34h-60q-49 0 -49 34v889q0 35 64 35h45q68 0 67 -35v-889zM1155 1157q0 -70 -88 -70t-88 72v139
q0 66 88 66t88 -72v-135zM764 958q49 0 90 -76t41 -123q0 -49 -27 -105t-57 -56q-16 0 -61 75t-58 75q-34 0 -108 -267t-84 -345q-10 -79 -17 -109q-6 -29 -26 -29l-135 2q-35 0 -57 48t-118 425q-90 377 -90 434q0 47 117 47q66 0 74 -45l182 -774q75 375 105 473
q100 350 229 350z" />
    <glyph glyph-name="uni2177" unicode="&#x2177;" horiz-adv-x="2107" 
d="M1962 20q0 -35 -68 -34h-59q-49 0 -49 34v889q0 35 63 35h45q68 0 68 -35v-889zM1954 1157q0 -70 -88 -70t-88 72v139q0 66 88 66t88 -72v-135zM1569 20q0 -35 -68 -34h-59q-49 0 -49 34v889q0 35 63 35h45q68 0 68 -35v-889zM1561 1157q-1 -70 -89 -70t-88 72v139
q0 66 88 66t89 -72v-135zM1180 20q0 -35 -68 -34h-59q-49 0 -49 34v889q0 35 63 35h45q68 0 68 -35v-889zM1171 1157q0 -70 -88 -70t-88 72v139q0 66 88 66t88 -72v-135zM764 958q49 0 90 -76t41 -123q0 -49 -27 -105t-57 -56q-16 0 -61 75t-58 75q-34 0 -108 -267t-84 -345
q-10 -79 -17 -109q-6 -29 -26 -29l-135 2q-35 0 -57 48t-118 425q-90 377 -90 434q0 47 117 47q66 0 74 -45l182 -774q75 375 105 473q100 350 229 350z" />
    <glyph glyph-name="uni2178" unicode="&#x2178;" horiz-adv-x="1298" 
d="M1243 -4q0 -18 -57 -19q-133 0 -162 48l-250 409q-64 -113 -132.5 -290t-117.5 -177t-49 37q0 44 54.5 138.5t209.5 342.5l-288 449q16 22 110 22t115 -28l164 -277l127 183q84 125 176 124q104 0 104 -131q0 -34 -7 -49.5t-13 -30.5q-18 -45 -67 -45t-73 58
q-16 41 -32.5 45t-20.5 4q-39 0 -162 -203q205 -297 288 -450.5t83 -159.5zM326 20q0 -35 -68 -34h-59q-49 0 -49 34v889q0 35 63 35h45q68 0 68 -35v-889zM317 1157q0 -70 -88 -70t-88 72v139q0 66 88 66t88 -72v-135z" />
    <glyph glyph-name="uni2179" unicode="&#x2179;" horiz-adv-x="886" 
d="M827 -4q0 -18 -57 -19q-133 0 -162 48l-250 409q-64 -113 -132.5 -290t-117.5 -177t-49 37q0 41 53.5 136.5t211.5 344.5l-289 449q16 22 110 22t115 -28l164 -277l127 183q84 125 176 124q104 0 104 -131q0 -34 -7 -49.5t-13 -30.5q-18 -45 -68 -45q-49 0 -75 68
q-15 39 -52 39q-36 0 -159 -203q205 -297 287.5 -450.5t82.5 -159.5z" />
    <glyph glyph-name="uni217A" unicode="&#x217a;" horiz-adv-x="1275" 
d="M1143 20q0 -35 -68 -34h-59q-49 0 -49 34v889q0 35 63 35h45q68 0 68 -35v-889zM1135 1157q-1 -70 -89 -70t-88 72v139q0 66 88 66t89 -72v-135zM827 -4q0 -18 -57 -19q-133 0 -162 48l-250 409q-64 -113 -132.5 -290t-117.5 -177t-49 37q0 41 53.5 136.5t211.5 344.5
l-289 449q16 22 110 22t115 -28l164 -277l127 183q84 125 176 124q104 0 104 -131q0 -34 -7 -49.5t-13 -30.5q-18 -45 -68 -45q-49 0 -75 68q-15 39 -52 39q-36 0 -159 -203q205 -297 287.5 -450.5t82.5 -159.5z" />
    <glyph glyph-name="uni217B" unicode="&#x217b;" horiz-adv-x="1761" 
d="M1579 20q0 -35 -68 -34h-59q-49 0 -49 34v889q0 35 63 35h45q68 0 68 -35v-889zM1571 1157q0 -70 -88 -70t-88 72v139q0 66 88 66t88 -72v-135zM1190 20q0 -35 -68 -34h-59q-49 0 -49 34v889q0 35 63 35h45q68 0 68 -35v-889zM1182 1157q0 -70 -88 -70t-88 72v139
q0 66 88 66t88 -72v-135zM827 -4q0 -18 -57 -19q-133 0 -162 48l-250 409q-64 -113 -132.5 -290t-117.5 -177t-49 37q0 41 53.5 136.5t211.5 344.5l-289 449q16 22 110 22t115 -28l164 -277l127 183q84 125 176 124q104 0 104 -131q0 -34 -7 -49.5t-13 -30.5
q-18 -45 -68 -45q-49 0 -75 68q-15 39 -52 39q-36 0 -159 -203q205 -297 287.5 -450.5t82.5 -159.5z" />
    <glyph glyph-name="uni217C" unicode="&#x217c;" horiz-adv-x="434" 
d="M309 16q0 -36 -92 -36t-92 38v1338q0 41 92 41t92 -39v-1342z" />
    <glyph glyph-name="uni217D" unicode="&#x217d;" horiz-adv-x="671" 
d="M307 791q-78 0 -78 -263q0 -84 56 -206q63 -141 137 -142q6 0 46 31t93 61q14 2 30.5 1t5.5 -19t-26.5 -65.5t-66.5 -100.5t-100.5 -78.5t-59.5 -25.5q-47 0 -121 86q-139 168 -139 407q0 162 125 330q55 76 109.5 113.5t84.5 37.5q68 0 119 -83t51 -156q0 -31 -22 -70
q-31 -43 -57 -43l-74 109q-29 39 -62.5 57.5t-50.5 18.5z" />
    <glyph glyph-name="uni217E" unicode="&#x217e;" horiz-adv-x="944" 
d="M625 1286q0 49 99 49t97 -51v-1214q0 -70 -102 -70h-324q-120 0 -207 82q-77 77 -77 201q0 251 108 370q59 66 159 119t247 121v393zM311 385q-1 -108 27 -184t58 -109t71 -33h82q47 1 61 13t15 41v692q-35 -19 -88 -35t-103 -54q-122 -92 -123 -331z" />
    <glyph glyph-name="uni217F" unicode="&#x217f;" horiz-adv-x="1427" 
d="M930 936q225 0 281.5 -80t67.5 -178.5t11 -198.5l-2 -463q0 -16 -6 -16h-98q-90 0 -90 18v521q0 149 -22.5 212.5t-56.5 92t-89 28.5l-92 -2h-37l-4 -788v-66q0 -16 -41 -16q-10 -2 -15 -2h-39q-34 0 -45 2q-55 0 -55 18v521q0 153 -22.5 214.5t-56.5 90t-89 28.5l-92 -2
h-37l-4 -839q0 -33 -97 -33t-98 33v903h41l291 2h496z" />
    <glyph glyph-name="Arrowleft" unicode="&#x2190;" horiz-adv-x="1409" 
d="M1356 389v-67h-1100q74 -74 137 -213h-53q-156 174 -287 233v33q125 49 287 227h51q-53 -113 -135 -213h1100z" />
    <glyph glyph-name="Arrowup" unicode="&#x2191;" horiz-adv-x="790" 
d="M457 -346h-82v1192q-115 -94 -250 -158v62q209 190 268 335h37q72 -158 277 -335v-64q-168 78 -250 160v-1192z" />
    <glyph glyph-name="Arrowright" unicode="&#x2192;" horiz-adv-x="1658" 
d="M63 377v82h1293q-94 117 -158 252h62q190 -213 333 -271v-37q-158 -72 -333 -276h-64q78 168 160 250h-1293z" />
    <glyph glyph-name="Arrowdown" unicode="&#x2193;" horiz-adv-x="790" 
d="M375 1085h82v-1194q84 84 250 158v-61q-205 -176 -277 -334h-37q-59 143 -268 334v61q156 -80 250 -158v1194z" />
    <glyph glyph-name="Arrowboth" unicode="&#x2194;" horiz-adv-x="1658" 
d="M1593 401q-143 -63 -327 -274h-66q53 137 158 254h-1057q104 -117 158 -254h-66q-184 211 -330 274v35q145 63 330 275h66q-55 -135 -158 -252h1057q-102 117 -158 252h66q184 -211 327 -275v-35z" />
    <glyph glyph-name="angleleft" unicode="&#x2329;" horiz-adv-x="749" 
d="M156 551l333 862l86 -33l-319 -829l322 -846l-86 -33z" />
    <glyph glyph-name="angleright" unicode="&#x232a;" horiz-adv-x="749" 
d="M254 -328l-86 33l321 846l-319 829l86 33l334 -862z" />
    <glyph glyph-name="uni2720" unicode="&#x2720;" horiz-adv-x="1617" 
d="M741 662q-266 0 -641 -162v411q377 -152 641 -151q-4 233 -143 647h412q-152 -399 -154 -647q287 0 651 151v-411q-385 162 -649 162q0 -148 37 -294t115 -368h-412q143 383 143 662z" />
    <glyph glyph-name="glAZU" unicode="&#x2c00;" horiz-adv-x="1087" 
d="M1047 653v-403q0 -12 -90 -12t-91 14v54q0 54 2 110v164q0 47 -43 59h-84q-80 0 -79 -66l2 -97l4 -390q0 -57 -16 -81t-68 -23q-111 0 -111 32v604q0 23 -89 23t-89 -41v-348q-1 -14 -99 -14t-98 12v420q0 39 21 39h278q76 0 76 102v555q0 20 83 20t95 -14t13 -72v-493
q0 -109 139 -109l160 13q84 0 84 -58z" />
    <glyph glyph-name="glBUKY" unicode="&#x2c01;" horiz-adv-x="1144" 
d="M170 -4q-80 0 -80 98v1268q0 16 78 16t96 -12q17 -13 13.5 -162t-3.5 -217v-26q0 -72 131.5 -72t131.5 80l-7 401q18 10 76 10t76 -8l4 -403q0 -72 123 -72t123 72l-4 401q18 10 86 10t92 -8v-502q0 -37 -14.5 -48t-53.5 -11h-667q-96 0 -97 -129v-442q0 -135 152 -136
q236 0 426 43q10 4 37 12.5t81 28.5t101 21q39 0 39 -53q0 -88 -14 -115q-25 -45 -103 -45h-823z" />
    <glyph glyph-name="glVEDE" unicode="&#x2c02;" horiz-adv-x="1458" 
d="M424 1323q-170 0 -170 -311q0 -227 162 -228q82 0 123 76t41 166q0 297 -156 297zM1157 1280q-133 0 -133 -251t129 -251q150 0 150 240q0 86 -36 174t-110 88zM791 -6q-175 0 -261 118t-86 300q0 -4 3.5 8t12.5 45t9 106q0 113 -80 131q-37 -10 -65 -10q-217 0 -218 408
l-2 2q6 119 94.5 205t211.5 86q276 0 276 -449q0 -182 -24 -305q-16 -104 -25.5 -165.5t-9.5 -82.5q-1 -248 193 -248t194 375q0 43 -42 201t-42 315q0 358 244 359q147 0 215 -146q49 -104 49 -240t-43 -219q-58 -100 -152 -100q-37 0 -94 27q-76 -12 -76 -137l12 -140
q0 -158 -67 -286q-82 -158 -227 -158z" />
    <glyph glyph-name="glGLAGOLI" unicode="&#x2c03;" horiz-adv-x="1300" 
d="M1042 518q-88 0 -88 -211q0 -98 15 -153q25 -90 104 -91q102 0 103 267q-1 188 -134 188zM428 1323q-78 0 -127 -137q-33 -98 -33 -198t33 -167q43 -88 125 -88q76 0 129 154q37 119 37 208t-46 159t-118 69zM364 6q-100 0 -100 37q0 55 90 235t90 288q0 110 -84 110
q-16 0 -41 -13t-43 -13.5t-57 26.5q-135 98 -135 276q0 65 22 144q49 188 127 252q80 61 275 61q106 0 162 -129q39 -96 39 -210q1 -114 -57 -292q-58 -180 -58 -280q0 -51 41 -52q14 0 22 3q233 168 424 167q90 0 150 -96q51 -78 51 -196t-35 -220q-53 -141 -159 -141
t-156 68q-37 49 -55 164q-2 12 -3.5 20t-1.5 16l11 127q0 41 -22.5 74t-63.5 33q-207 -125 -256 -254l-45 -154q-32 -51 -132 -51z" />
    <glyph glyph-name="glDOBRO" unicode="&#x2c04;" horiz-adv-x="1411" 
d="M340 666q-66 0 -98 -107q-25 -74 -25 -162t37 -170q43 -106 121 -106q115 0 114 237q0 32 -6 130t-14 114q-16 37 -109 60q-16 4 -20 4zM1272 400q0 104 -44 180t-125 75t-126 -69t-45 -148q0 -340 172 -340q94 0 137 117q31 81 31 185zM1391 389q0 -188 -56 -276
q-67 -115 -231 -115t-238 141q-55 111 -55 277q0 96 37 283t37 284q0 311 -185 311q-193 0 -192 -305q0 -178 39 -343t39 -318q0 -328 -252 -328q-127 0 -199 133q-61 111 -61 219t34 214q34 104 97 130q39 9 149 31q84 25 84 109q0 33 -13 93t-13 95q0 168 80 272t238 105
q159 0 243 -115t84 -274l-13 -131q0 -106 46 -129l135 -33q166 -53 166 -330z" />
    <glyph glyph-name="glESTU" unicode="&#x2c05;" horiz-adv-x="1019" 
d="M303 1055q1 -74 -143 -74q-80 0 -80 35q0 156 135 270t301 113q238 0 361 -258q47 -100 61 -215t14 -245t-15 -241.5t-67 -206.5q-126 -239 -364 -239q-170 0 -307 133q-131 133 -131 305q0 31 76 31q146 0 155 -70q2 -4 0 -10t-2 -23q0 -92 47 -174q29 -47 76 -71.5
t92 -24.5q106 0 162 121q43 92 43 209t-96 117q-55 -29 -117 -29t-62 53q0 33 76 33q20 0 60 -12t61 -13q113 0 113 119q0 137 -107 137q-35 0 -72 -16q-49 -16 -71 -16q-59 0 -60 34q0 55 99 62q51 -33 91 -33t81 38t41 75q0 119 -49 217q-61 125 -170 125
q-47 0 -99.5 -21.5t-81.5 -64.5q-51 -76 -51 -170z" />
    <glyph glyph-name="glZHIVETE" unicode="&#x2c06;" horiz-adv-x="1398" 
d="M340 631q-61 -1 -100 -91t-39 -172t49 -157q55 -90 135 -90t118 72t38 151q0 27 -6 55q-14 111 -46 160t-133 70q-6 2 -16 2zM911 418q0 -37 19 -111t37 -108q43 -76 119 -76t120 84t45 175q0 91 -26 163q-43 102 -130 102q-87 -1 -135 -69t-49 -160zM1154 1157
q-24 0 -48 12q-106 -20 -193 -122q-82 -102 -82 -216q0 -121 148 -120q20 0 63 12t66 12q132 0 200 -106q68 -107 68 -247t-83 -263t-205 -123t-197 154q-63 127 -64 258l23 172q0 164 -121 163q-131 0 -131 -180l18 -211q0 -142 -62 -250t-201 -108q-138 0 -224 139
q-74 119 -74 257t86 235q86 98 203 98l107 -16q78 0 134 44t56 121q0 109 -113 203q-106 94 -219 94q-21 0 -45 -4q-8 -14 -22 -14t-15 10q0 55 60 150q65 96 119 96t118 -88l99 -166q55 -88 102 -88t104 88l99 168q63 88 127 88q43 0 98 -90q53 -80 53 -133l-2 -19
q-26 -10 -50 -10z" />
    <glyph glyph-name="glDZELO" unicode="&#x2c07;" horiz-adv-x="1165" 
d="M768 1152q0 69 -38 123t-110 54q-71 0 -112 -54t-41 -130t41 -123q36 -49 106 -49t111 59q43 51 43 120zM289 657q1 -39 71 -147t105 -107q35 0 87 114t52 162t-61 48h-154q-100 0 -100 -70zM922 653q0 63 -80 64h-72q-50 0 -116 -165t-66 -217t28 -99q35 -51 72 -52
q46 0 140 200t94 269zM1159 731q0 -33 -18 -65l-330 -629q-23 -41 -141 -41t-146 41l-442 643q-20 27 -21 51q0 55 66 55h475q25 20 25 50q0 78 -68 77q-94 -1 -145 89q-52 90 -52 193t80 170t182 67t167 -78q59 -76 59 -158t-51 -186q-49 -111 -49 -167t49 -57h301
q59 0 59 -55z" />
    <glyph glyph-name="glZEMLYA" unicode="&#x2c08;" horiz-adv-x="1185" 
d="M528 745q-55 0 -141 -104q-86 -105 -104 -161t-19 -138q0 -143 96 -143q123 0 183 157q41 111 41 250t-56 139zM184 702q0 -88 66 -88q14 0 31 7q33 12 111 119q78 108 86 140q9 32 9 78t-24 109q-35 74 -91 74q-56 -1 -112 -97t-57 -165q-2 -12 -4 -34t-9 -54
q-6 -56 -6 -89zM1073 1169q0 217 -96 217t-96 -163q0 -47 44 -149t85 -103q31 1 47 73t16 125zM1182 1270q0 -272 -105 -410q-36 -49 -69 -49q-60 0 -114 163t-83 163q-45 0 -98 -90q-4 -8 -20.5 -40t-45.5 -89q35 -212 35 -343q0 -319 -209 -546q-49 -53 -72 -54
q-164 0 -264 326q-76 246 -76 467q1 148 65 288t179 236q53 41 70 41q68 0 109.5 -71.5t79.5 -133.5t63 -61q37 0 71 72t84 186q53 104 113 125q27 10 76 10l102 -18q109 0 109 -172z" />
    <glyph glyph-name="glIZHE" unicode="&#x2c09;" horiz-adv-x="1310" 
d="M315 1292q-70 0 -106 -92q-31 -72 -31 -152t37 -161q43 -109 112 -109t111 75t43 151q0 288 -166 288zM594 1317q-23 0 -39 -41q-16 -31 -16 -51t12 -76l33 -184q33 -131 98 -131q59 0 86 96q55 193 55 290t-61 97h-168zM1051 1286q-170 0 -170 -297q0 -67 39 -139
q47 -76 114.5 -76t109.5 96t42 172q0 78 -36 161t-99 83zM598 248v438q0 119 -72 119q-20 0 -94 -62q-76 -59 -115 -59q-115 0 -184 113q-57 90 -57 217q0 41 10 98q39 174 122 232t265 59h432q178 0 266 -66t115 -235q6 -43 6 -88q0 -129 -57 -219q-68 -111 -184 -111
q-39 0 -114 60t-95 61q-70 0 -70 -119v-438q0 -63 42 -140t101 -90l-2 -20h-454l-2 8q0 23 45 58t59 59q37 49 37 125z" />
    <glyph glyph-name="glINITIALIZHE" unicode="&#x2c0a;" horiz-adv-x="1314" 
d="M682 702q-24 0 -132 -234t-108 -294q0 -70 111 -70h258q111 0 111 78q0 63 -181 457q-26 63 -59 63zM346 1278q-160 0 -160 -166q0 -68 52 -128t124 -60q145 0 146 123q0 80 -43 147q-49 84 -119 84zM635 1303q-51 0 -64 -13q-10 -14 -10 -80t34 -195q34 -128 87 -128
q45 0 83 134q38 133 38 193q1 60 -19 74t-69 15h-80zM1035 1278q-77 0 -127 -80t-50 -145t45 -99t111 -32q66 0 119 61q49 61 49 139t-35 117t-112 39zM1073 797q-27 0 -76 19t-77 20q-78 0 -78 -83t163 -369t162 -345q0 -41 -51 -41h-866q-53 0 -53 41q0 51 161 342
q164 285 164 370t-80 85q-29 0 -71 -21q-47 -18 -72 -18q-111 0 -174 100t-63 220t90 194t217 73h630q125 0 215 -76t90 -191q0 -116 -60 -218q-62 -102 -171 -102z" />
    <glyph glyph-name="glI" unicode="&#x2c0b;" horiz-adv-x="1118" 
d="M599.5 40.5q132.5 -0.5 228.5 145.5t96 287q0 199 -156 318q-71 -40 -164 -146q-86 111 -168 162q-150 -153 -150 -311t87 -295q94 -160 226.5 -160.5zM442 1329q-37 0 -59 -33q-63 -95 68 -270q93 -133 157 -133t147 138t83 210q0 88 -84 88h-312zM819 866
q0 -55 68 -100q92 -66 125 -111q66 -92 66 -273t-145 -295t-331 -114t-327 115t-142 295q0 266 141 352q12 8 31 19.5t41 27.5q31 39 29 115v10q-293 403 -293 441q0 53 57 53h908q37 0 36 -15q0 -49 -132 -257t-132 -263z" />
    <glyph glyph-name="glDJERVI" unicode="&#x2c0c;" horiz-adv-x="1193" 
d="M885 1348q-65 0 -79.5 -99t-14.5 -149q1 -50 29 -114t87 -62q121 0 121 96q0 10 -4 37t-8 91q-5 64 -24 102q-18 38 -74 81q-17 17 -33 17zM119 -20q-56 0 -66 11t-10 81t67 454t105 459q14 29 35 39q27 -35 41 -63t81 -271q66 -243 109 -244q27 0 70 98q80 184 111 330
l45 338q49 238 178 238q35 0 76 -33q92 -63 150 -183t58 -218t-48 -179t-136 -81q-41 0 -84 50t-70 50q-41 0 -59 -53q2 -139 43 -279t64.5 -222.5t50.5 -164.5q26 -106 26 -135q0 -14 -22 -14h-123q-14 0 -20 2q-15 145 -35 289q-43 227 -108.5 227t-102.5 -111
q-29 -74 -29 -139q0 -64 22 -139t23 -117l-35 -12h-100q-20 0 -23 92q-2 203 -40.5 345t-43.5 163q-18 51 -49 51q-92 0 -92 -205l8 -301v-7l9 -126q-20 -20 -76 -20z" />
    <glyph glyph-name="glKAKO" unicode="&#x2c0d;" horiz-adv-x="796" 
d="M203 -6q-104 0 -105 20v410q0 45 31 45h332q72 0 71 80v186q0 61 -51 76q-23 6 -100 6h-252l-10 19v550q0 12 93 12t93 -14v-426q0 -30 23 -60t55 -28l279 9l30 -41v-344q0 -59 -22 -72l-314 -8q-51 0 -63 -168q-6 -102 0 -207q-27 -45 -90 -45z" />
    <glyph glyph-name="glLJUDIE" unicode="&#x2c0e;" horiz-adv-x="1290" 
d="M369 549q-129 0 -129 -275q0 -178 92 -178q123 0 123 244q0 209 -86 209zM932 561q-80 0 -80 -117l10 -133q6 -90 19 -127q20 -76 82 -75q119 0 118 182q1 270 -149 270zM561 1290q-103 0 -155 -79t-52 -187q0 -174 27 -248q45 -137 180 -137q195 0 195 293
q0 160 -27 231q-43 127 -168 127zM1247 270q0 -128 -95 -211q-95 -84 -216 -84t-180 156q-43 113 -43 252v5l1 25l3 66q0 45 -27.5 77t-65.5 32t-59.5 -25t-21.5 -49q1 -24 19 -99t18 -179q0 -238 -238 -238q-119 0 -199 93t-80 223t84 222t218 93q-135 193 -136 415
q0 141 88 255t240 114t242 -105t90 -272l-23 -286q0 -154 78 -154l55 16q115 0 189 -116q59 -98 59 -226z" />
    <glyph glyph-name="uni2C0F" unicode="&#x2c0f;" horiz-adv-x="1841" 
d="M672 584q-94 0 -148 -64t-55 -148q0 -82 42 -150t111.5 -68t118.5 63q47 63 47 133t-24 142q-35 92 -92 92zM391 1251q-84 0 -126 -82t-42 -165t41 -134q46 -53 110 -53t105 78q35 61 35 133t-30 148t-93 75zM1225 584q-59 0 -92 -90q-27 -68 -27 -139.5t49 -136.5
q49 -64 120 -64t111 68t39 150q0 82 -54 147t-146 65zM1505 1264q-63 0 -96 -86q-23 -68 -23 -142l-2 -6q6 -59 43 -131t91 -72q74 1 116 53t41 137q0 85 -37 157q-43 90 -133 90zM850 1204q0 57 -41 92t-98 35q-170 0 -166 -127v-10q41 -92 41 -206t-87 -204
q-87 -88 -194 -88t-176 129q-59 106 -59 232q0 338 317 338h1116q319 0 320 -338q-1 -123 -67 -242t-172 -119t-191.5 86t-87.5 189l2 4q-2 121 41 219v8q2 129 -181 129q-51 0 -88 -38t-37 -89v-319q23 -55 117 -219q184 0 293 -89t109 -270q0 -104 -64 -207t-162 -102
q-133 0 -233 97t-105 233l2 4q4 137 109 303l-111 211q-16 24 -52 24t-48 -22l-115 -213q111 -164 111 -301t-100 -238q-102 -98 -236 -98q-97 0 -161 100t-64 209q0 180 112 273q100 86 287 86q40 60 119 219v319z" />
    <glyph glyph-name="glNASHI" unicode="&#x2c10;" horiz-adv-x="1206" 
d="M817 1264q-90 0 -142 -71t-52 -170t59 -177q60 -78 154 -78t137 80q35 63 35 156q-1 260 -191 260zM269 49h71q135 0 135 105v405q0 43 -39 49q-4 2 -84 2t-80 -55v-186q0 -21 -91 -21t-91 10v275q0 57 39 57h254q92 0 92 123v506q0 25 15.5 46t39.5 21h277
q168 0 270 -96q107 -94 107 -244t-75 -256q-75 -108 -204 -108t-180 -14q-102 -29 -102 -121v-498q0 -49 -45 -49h-265q-77 0 -77 -164v-20q0 -19 2 -35l4 -53q-18 -10 -94 -10t-93 6v274q0 55 51 55l117 -2q39 -2 46 -2z" />
    <glyph glyph-name="glONU" unicode="&#x2c11;" horiz-adv-x="833" 
d="M424 489q-213 0 -213 -184q0 -86 60 -141q59 -55 137 -55t112 60t35 132v41q0 78 -25 113q-28 34 -106 34zM401 1313q-78 1 -127 -67t-49 -147q1 -79 61 -123t138 -44q158 0 158 168q-1 213 -181 213zM350 -8q-127 0 -205 70q-77 70 -77 199q0 130 55 214q61 100 188 100
q33 1 101 -23t96 -24q45 0 90 70q35 66 35 118t-35 111t-74 59t-96 -23q-57 -24 -86 -23q-109 0 -186.5 75.5t-77.5 189.5t81 208t197 94q446 0 447 -725q0 -254 -101 -446q-123 -244 -352 -244z" />
    <glyph glyph-name="glPOKOJI" unicode="&#x2c12;" horiz-adv-x="1044" 
d="M766 1298q-66 0 -96 -69t-29 -142q0 -73 42 -177t99 -105q88 0 107.5 117.5t19.5 158.5q0 217 -143 217zM784 649q-51 0 -102 56q-109 121 -109 359t-96 239q-35 -1 -80 -57t-45 -95v-1133q0 -32 -87 -32t-87 34v510q0 102 -80 103q-10 0 -16 -2h-16q-76 0 -76 92
q0 33 10 53q2 8 56 13t88 24t34 78v412q0 82 53 81h629q164 0 164 -213q0 -164 -49 -313q-66 -209 -191 -209z" />
    <glyph glyph-name="glRITSI" unicode="&#x2c13;" horiz-adv-x="804" 
d="M444 705q-68 0 -102 -22t-33 -89v-399q0 -129 129 -129t174 114q29 74 29 220t-29 210q-43 95 -168 95zM309 883q0 -83 85 -91t161 -12t102 -16q117 -68 117 -375q0 -391 -287 -391h-313q-45 0 -45 45v1335q0 23 93 23t93 -76q0 -26 -4 -76l-2 -73v-293z" />
    <glyph glyph-name="glSLOVO" unicode="&#x2c14;" horiz-adv-x="1112" 
d="M563 475q-59 0 -153 -123t-95 -188q0 -106 86 -107h318q88 0 88 88q0 52 -83.5 191t-160.5 139zM579 1325q-163 0 -249 -113q-82 -102 -82 -270q0 -80 51 -184t134 -105q83 0 161 109q84 -104 174 -133q139 68 139 272q0 174 -76 289q-89 135 -252 135zM788 487
q0 -61 140 -247t139 -236q0 -10 -37 -10h-928q-55 0 -55 47q0 16 12 39q4 4 29 37t88 115t178 249l-28 76q-14 31 -58 66q-113 88 -141 143q-41 63 -41 197q0 186 154 319q152 127 346 127t339 -132q144 -132 144 -335q0 -127 -72 -213q-33 -33 -143 -125q-66 -56 -66 -117z
" />
    <glyph glyph-name="glTVRIDO" unicode="&#x2c15;" horiz-adv-x="1558" 
d="M367 1309q-154 0 -154 -246q0 -82 35 -145q39 -76 114.5 -76t114.5 82q33 59 33 147q0 238 -143 238zM1233 1309q-145 0 -146 -238q0 -84 33 -147q39 -82 114 -82t118 76q33 66 32 145q1 246 -151 246zM692 1329q-113 0 -112 -82q0 -37 28.5 -112.5t28.5 -112.5
q0 -113 -70 -197q-69 -84 -191 -84t-210 93q-92 92 -92 223q0 199 84 269t286 71h711q203 0 287 -71t84 -269q0 -129 -92 -223t-212 -93q-120 0 -190 84t-69 197q-1 43 27 112t28 109q0 86 -123 86q-17 0 -49 -4l-51 -2l-52 2q-32 4 -51 4z" />
    <glyph glyph-name="glUKU" unicode="&#x2c16;" horiz-adv-x="1507" 
d="M422 539q-195 0 -195 -205q-1 -90 57 -164t135 -74t132 73t55 153t-50 148q-50 69 -134 69zM909 524q-90 0 -143 -57t-53 -147q1 -90 69 -156t149 -66t129 74t48 160q0 192 -199 192zM371 1331q-180 0 -181 -225q0 -207 211 -207q83 -1 137 65t54 158t-64 150
q-59 59 -157 59zM713 715q0 -113 144 -133.5t206 -20.5q88 0 88 240q-1 39 -21 73t-44 33q-24 0 -65 -20q-40 -20 -132 -27q-90 -2 -123 -22q-53 -29 -53 -123zM897 1288q-80 0 -132 -46t-52 -123t49 -125t123 -60h2q100 0 161.5 52t61.5 151q0 151 -213 151zM47 1135
q0 131 103 204q92 68 209 68t198 -29q82 -82 138 -82t154.5 55.5t156.5 55.5q154 0 223 -152q51 -111 51 -273t80 -194l90 -8q57 -8 57 -55q0 -39 -43 -51q-84 -27 -86 -29q-51 -27 -69 -96q-9 -25 -9 -157t-86 -265t-229 -133q-55 0 -144 52t-151 52t-160 -53
q-96 -53 -153 -53q-121 0 -214 77t-93 189q0 322 364 322l41 -5q51 0 80 50q27 39 27 96q0 137 -111 137l-149 -22q-133 0 -204 84t-71 215z" />
    <glyph glyph-name="glFRITU" unicode="&#x2c17;" horiz-adv-x="1288" 
d="M157 764q-67 0 -67 -112t60 -113q52 0 62.5 57t10.5 82q1 86 -66 86zM600 770q-47 0 -47 -68l-6 -532q-4 -74 61 -74h82q63 0 64 74l2 532q0 68 -56 68h-100zM754 1268q0 63 -47 63h-115q-45 0 -45 -63v-365q0 -70 51 -69h100q55 0 56 69v365zM1151 545q59 1 59 113
t-68 112q-69 0 -69 -86q0 -43 17 -86q25 -53 61 -53zM1284 645q0 -55 -46 -173t-93 -118q-16 0 -43 37q-80 104 -80 330q0 68 -78 67q-53 0 -53 -36v-709q0 -43 -31 -43h-424q-31 0 -30 43v709q0 37 -52 36q-55 0 -100 -217t-102 -217q-45 0 -77 108t-32 188q0 81 28 134
t128 54h9l41 -1l113 -3q49 0 50 124v18l-6 333q0 88 45 88h399q41 0 41 -88v-59q0 -58 -2 -117l-2 -179q0 -59 10 -86q14 -39 72 -39h7l116 7q109 0 149 -41q43 -37 43 -150z" />
    <glyph glyph-name="glHA" unicode="&#x2c18;" horiz-adv-x="1208" 
d="M1092 378q0 88 -48 162t-127 74q-81 0 -121 -82t-40 -170t41 -151q47 -82 131 -82t131 88q33 72 33 161zM602 516q-84 0 -196 -133l-181 -248q-98 -133 -147 -137q0 35 18 82l37 74q59 137 60 563q-1 196 -9 258q-8 61 -13 100t-19 114t-13 146q0 66 135 66q70 0 101 -12
q45 -23 45 -84v-12q0 -12 -35 -289t-35 -461l19 22q25 -49 72 -49t216.5 102.5t251.5 102.5q137 0 210 -86q73 -87 73 -233t-94 -275t-248 -129q-82 0 -127 77t-45 163l16 149q0 129 -92 129z" />
    <glyph glyph-name="glOTU" unicode="&#x2c19;" horiz-adv-x="1417" 
d="M506 1315q-53 0 -98 -76q-109 -170 -109 -541q0 -178 45 -323q63 -211 203 -211q67 0 107 50t40 124t-34 88t-58 22.5t-51 18.5q18 43 63 43q129 0 179 -88q8 -16 49 -162q20 -88 86 -88q51 0 110 66q127 152 127 475t-100 487q-47 78 -96 78q-61 0 -74 -113
q-8 -57 -15.5 -112.5t-15.5 -112.5q-31 -135 -129 -172q-78 27 -125 104q-45 78 -45 160l19 162q0 121 -78 121zM737.5 1241q-106.5 0 -106.5 -164t106 -164q53 1 80 49t27 105q0 174 -106.5 174zM842 10q0 -60 37 -94q16 -14 65 -37q37 -12 37 -24q0 -23 -18.5 -39.5
t-58.5 -16.5t-112 30q-71 30 -98 81q-10 12 -23 65t-20 70q-18 57 -123 70q-131 12 -174 37q-128 76 -196 230t-68 314q0 313 168 508t477 195q267 1 457 -189t190 -454q0 -225 -90 -383q-100 -178 -305 -240q-82 -23 -100 -37q-45 -26 -45 -86z" />
    <glyph glyph-name="glPE" unicode="&#x2c1a;" horiz-adv-x="1363" 
d="M565 432q0 74 -100 74t-133 -55q-25 -41 -25 -150t31 -151q37 -56 132 -56t95 60v278zM1309 51q0 -51 -90 -51t-91 51v1215q0 63 -41 63h-278q-66 0 -66 -129v-1149q-1 -43 -109 -48t-238 -5t-202.5 81t-72.5 222q0 289 233 289h26q26 0 50 -2h76q10 0 37 10q23 10 22 25
v714q0 16 33 56h674q37 0 37 -72v-1270z" />
    <glyph glyph-name="glSHTA" unicode="&#x2c1b;" horiz-adv-x="1306" 
d="M663 741q-212 0 -212 -360q0 -119 49 -193q55 -90 168 -90q207 0 206 281q1 362 -211 362zM1059 334q0 -146 -119 -243t-277 -97t-276 94q-123 104 -123 252t33 215q20 49 123 172q0 78 -111 96l-170 8q-47 6 -47 23v510q0 27 84 27t84 -25v-430q0 -68 146 -68
q44 0 108 23t64 53v426q0 23 86 23t86 -25v-426q0 -35 67 -55q53 -20 96 -21q152 0 152 70v430q0 23 83 23t83 -29v-506q-12 -10 -170 -36t-158 -89q109 -145 121 -174q35 -75 35 -221z" />
    <glyph glyph-name="glTSI" unicode="&#x2c1c;" horiz-adv-x="1236" 
d="M310 1350q-73 0 -115 -105q-33 -78 -33 -159t39 -140q43 -70 109 -70t106 72q28 57 28 140t-24 157q-37 105 -110 105zM729 -16q-150 0 -202 340.5t-70 433.5q-29 66 -95 65q-10 0 -14 -1l-45 -13q-35 -14 -57 -14q-80 0 -135 116q-49 100 -50 191q1 154 63 226t234 73
q172 0 213 -80q20 -35 21 -139q0 -635 133 -842q43 -68 88 -68q68 0 129 297q51 235 55 401.5t4 181.5v165q0 88 60 88q145 0 145 -76q0 -210 -198 -777q-198 -568 -279 -568z" />
    <glyph glyph-name="glCHRIVI" unicode="&#x2c1d;" horiz-adv-x="1273" 
d="M793 370q0 71 -34 136q-33 65 -99 65t-111 -88q-39 -72 -39 -147q0 -180 147 -180q66 0 107 80q29 63 29 134zM360 743q0 -76 72 -75h141q33 0 70 112t37 158q0 33 -53 33l-54 -4l-2 -2q-61 0 -122 28q-15 -41 -54 -127q-35 -92 -35 -123zM831 979q-55 0 -75 -25
q-45 -45 -92 -297l260 11q45 4 45 55q0 29 -22 121q-21 92 -41 114t-54 21h-21zM78 599q0 32 61 124t128 320q66 227 94 299q28 71 92 71q127 0 127 -70q0 -47 -46 -137t-47 -127q0 -55 103 -55h217q72 0 72 63q0 43 -25 124t-25 124q0 76 150 76q39 -1 63 -17t23 -77
q0 -338 131 -606q51 -102 51 -122t-49 -20h-8l-146 6q-182 0 -182 -129q0 -31 18 -87t17 -97q-1 -98 -65 -180t-168 -82t-168 88q-65 88 -66 197q0 47 43 128t43 103q0 59 -141 59h-11l-196 -8q-90 0 -90 32z" />
    <glyph glyph-name="glSHA" unicode="&#x2c1e;" horiz-adv-x="1454" 
d="M174 -2q-37 0 -37 53l2 1307q4 0 29 20q16 23 66 23t66 -22q15 -22 22 -21l-5 -1190q0 -106 84 -107h168q41 0 73 34t32 79l-4 1184q2 0 28 22t69 21q44 0 62 -24t29 -29l-2 -1178q0 -45 30 -79t72 -34h168q37 0 61 36t23 73l-4 1192q12 0 30 21t61 21q42 0 63 -22
q25 -20 29 -20l2 -1313q0 -47 -33 -47h-1184z" />
    <glyph glyph-name="glYOR" unicode="&#x2c1f;" horiz-adv-x="1191" 
d="M293 590q1 32 -19 62t-54 30t-50 -35q-16 -29 -16 -63t17 -63q17 -30 50 -29q72 0 72 98zM846 475q-59 0 -93 -56t-34 -117q0 -62 32 -109t90 -47t88 60q30 62 29 130q1 139 -112 139zM911 1147q0 63 -31 121t-90 59q-59 -1 -94 -67q-72 -138 2 -230q37 -43 88 -43
q125 0 125 160zM890 930q-32 0 -91.5 -14.5t-98.5 -14.5q-96 0 -159 49q-74 51 -74 161t76 202t198 92q199 0 277 -86q139 -156 139 -643q0 -699 -354 -699q-125 0 -211 93q-84 94 -84 221q0 166 125 227q35 19 229 51q123 19 123 93t-354 73q-256 0 -256 -145l2 -27
q0 -67 -57 -131q-58 -64 -118 -64t-106 82t-45 150q0 68 45 123t119 55l705 17q78 0 77 61q1 30 -37 52t-70 22z" />
    <glyph glyph-name="glYER" unicode="&#x2c20;" horiz-adv-x="1142" 
d="M791 489q-147 0 -148 -112q0 -66 33 -129q33 -80 91 -80t91 70t33 139q0 112 -100 112zM762 1280q-55 0 -91 -49t-36 -111t48 -98t116 -35q84 0 84 119q0 59 -29 113q-37 61 -92 61zM762 -16q-139 0 -237.5 98t-98.5 240q0 176 135 229q47 16 250 24q133 6 133 82
q0 27 -41 40t-74 14l-421 -6q-29 -4 -52 -36q-22 -33 -30 -135t-80 -153q-23 -16 -47 -16q-150 0 -150 276q0 74 33 98q27 25 94 28q156 7 643 7q125 0 125 49q0 78 -106 78q-22 0 -91 -14.5t-85 -14.5q-242 0 -242 203q0 133 91 233t220 101q211 0 303 -246
q70 -180 70 -439t-53 -448q-84 -292 -289 -292z" />
    <glyph glyph-name="glYATI" unicode="&#x2c21;" horiz-adv-x="1300" 
d="M621 434q0 39 -27 65.5t-68 26.5h-37q-51 0 -107 -139t-56 -217t106 -78t131 6q57 20 58 101v235zM967 102q82 0 82 52q-1 84 -49 230t-107 146q-88 0 -116 -36t-27 -105v-47q2 -16 2 -19v-17l-7 -105q0 -98 109 -99h113zM685 1114q-46 0 -60 -41l-113 -313
q-10 -41 -10 -70q0 -68 53 -67h260q59 0 59 71q0 25 -28 105l-101 274q-14 41 -60 41zM676 1407q41 0 62 -13t38 -30l504 -1284q12 -10 12 -25q0 -57 -84 -57l-1065 2q-57 0 -59 35q153 415 510 1327q14 14 31 37q10 8 51 8z" />
    <glyph glyph-name="glSPIDERHA" unicode="&#x2c22;" horiz-adv-x="1626" 
d="M963 995q-279 0 -562 -92q-14 -63 -14 -129v-61q0 -123 78 -205t210 -82t255 47q160 61 160 180q0 49 -63.5 157.5t-63.5 184.5zM1055 1143h191q58 0 91 8h21q92 0 171 -52t79 -143q0 -161 -162 -161q-25 0 -25 37q0 38 35 106t37 92q-20 53 -80 70q-35 10 -94 10
t-81 -11t-44 -56q-39 -81 -2 -230l37 -121q14 -125 21 -180q7 -56 33 -157t26 -159t-31 -126q-31 -66 -88 -66q-31 0 -68 25t-37 51t34 94t34 111t-37 73.5t-83 30.5t-113 -24l-111 -39q-131 -39 -295 -47q-137 -170 -186 -213q-109 -94 -260 -95l-29 2l180 164
q104 100 137 199q-127 117 -127 323q0 129 21 238l-23 -2q-76 0 -100 27q20 41 98 112q2 362 215 363q92 0 92 -101q0 -52 -28 -120t-40.5 -101t-17.5 -43l261 4q158 6 258 33q59 74 90 74z" />
    <glyph glyph-name="glYU" unicode="&#x2c23;" horiz-adv-x="1212" 
d="M381 -109q33 -1 97 141t88 245.5t24 207.5v756q0 76 -121 76t-121 -74v-1251l-8 -64q0 -37 41 -37zM885 1325q-59 0 -87 -58t-28 -122q0 -246 152 -246q86 0 86 188q0 238 -123 238zM948 782q-26 0 -64 29t-53 29q-59 0 -59 -170q0 -299 -203 -682q-168 -319 -413 -594
q-33 -35 -50 -35q-62 0 5 184q109 303 108 703v907q0 33 -41 82t-41 70q0 96 111 96l665 -2q176 0 226 -74q37 -55 37 -240q0 -121 -56 -202q-61 -101 -172 -101z" />
    <glyph glyph-name="glYUS" unicode="&#x2c24;" horiz-adv-x="1298" 
d="M296 891q-48 0 -81 -43q-27 -41 -27 -91t30 -91t78 -41t78 42q61 85 1 181q-31 43 -79 43zM1237 434q61 0 61 -84q0 -22 -10 -49q-47 -137 -164 -227t-256 -90q-211 0 -336 209q-94 156 -124 401q-72 -98 -140 -98q-100 0 -150 95t-50 193t63 168q59 72 147 72t136 -104
q45 203 157 340q135 160 324 159q137 0 237 -83t146 -212q8 -18 8 -52t-29.5 -65.5t-76.5 -31.5q-53 0 -84 92q-16 43 -29.5 87t-30.5 85q-47 92 -133 92q-160 0 -229 -217q-47 -145 -47 -350l444 2q14 0 14 -52t-16 -52h-434l-2 -82q0 -162 49 -293q63 -184 199 -185
q80 0 137 76q44 69 76 151q33 83 51 89q37 16 92 16z" />
    <glyph glyph-name="glYUSTAIL" unicode="&#x2c25;" horiz-adv-x="1468" 
d="M629 763q-1 44 -25 86t-70 42t-71 -43q-27 -35 -27 -84t27 -84q23 -41 71 -41t70 43q25 37 25 81zM1051 -29q-338 0 -430 596q-78 -80 -128 -80q-49 -1 -109 97t-110 98t-78 -47q-26 -47 -46 -62q-11 -80 -11 -114q0 -90 43 -152l103 -119q-14 -41 -113 -176
q-33 2 -66 152q-32 150 -32 224q0 76 39 188t98 151q16 12 40.5 29.5t55.5 40.5q63 138 72 151q51 80 133 80q57 0 121 -72q51 188 149 312q123 152 293 151q133 0 250 -104t117 -234q0 -47 -28 -82t-75 -34q-43 0 -73 92l-62 172q-47 92 -119 92q-246 0 -251 -553l407 2
q21 0 21 -60t-25 -61h-393q-4 -53 -4 -61v-70q0 -139 47 -254q66 -152 178 -151q86 0 133 84l70 157q43 86 123 86q66 0 65 -90q0 -133 -135 -256t-270 -123z" />
    <glyph glyph-name="glYO" unicode="&#x2c26;" horiz-adv-x="1054" 
d="M621 291q0 53 -26 100t-72 47t-67 -52t-22 -105t17 -88q20 -57 67 -57t75 50q28 52 28 105zM389 711q29 0 105 170t76 207t-38 90t-66 53t-116 -204t-88 -249q0 -68 64 -67h63zM674 987q-23 0 -63 -100t-40 -129q0 -49 43 -49h136q29 0 49 14q27 14 26 39q0 49 -102 199
q-18 26 -49 26zM549 573q0 -59 47 -59q92 0 145 -100q41 -86 41 -188t-72 -174t-170 -72t-154 80t-56 162t45 185t45 150t-33 47h-266q-66 0 -66 72q0 37 21 72l301 608q25 51 119 51t125 -45l407 -627q20 -29 21 -59q0 -72 -68 -72h-422q-10 -14 -10 -31z" />
    <glyph glyph-name="glIOTYUS" unicode="&#x2c27;" horiz-adv-x="1787" 
d="M811 709q0 -66 31 -99q64 -68 182 0q55 34 55 102t-43 105q-39 39 -98 39q-127 0 -127 -147zM1712 438q84 0 84 -71q0 -14 -10 -56q-39 -133 -123 -219q-100 -96 -218 -96t-208 76q-80 62 -117 148t-55 172t-31 102q-8 4 -16 10t-21 10l-63 -18q-37 16 -64 16
q-43 0 -71 -94q-8 -33 -15.5 -66t-15.5 -65q-31 -123 -122 -207t-191 -84q-145 0 -247 124t-102 271q0 111 93 111q72 0 108 -92q17 -62 53 -174q37 -94 111 -94t127 89q47 74 47 138t-31 127q-33 82 -69 82h-115q0 4 -2 6l2 16l94 14q57 6 85 40t28 81t-28 64t-82.5 22.5
t-76.5 8.5t-22 10q0 37 21 37l75 -11q51 0 91 52t40 100q0 258 -180 258q-78 0 -117 -80q-14 -37 -27.5 -75t-27.5 -74q-37 -80 -115 -80t-77 65q0 141 106 252t246 111q174 0 254 -99q17 -24 71 -196t80 -172t62 14q27 -14 51 -14q39 0 93 142t104 204q94 121 264 121
q129 0 218 -87t126 -214l5 -25q5 -25 5 -37q0 -66 -84 -65.5t-123 80.5q-12 37 -24.5 74.5t-24.5 74.5q-35 80 -120 80t-149 -114q-65 -114 -65 -222q0 -109 64 -152q45 -31 153 -30h58q20 2 23 2h25q21 0 21 -60t-12 -61h-22q-21 0 -41 2l-66 2q-104 0 -145 -39
q-49 -41 -49.5 -143.5t57.5 -206.5t153 -102q74 0 113 63q20 33 46 115t44 94q37 14 84 14z" />
    <glyph glyph-name="glBYUS" unicode="&#x2c28;" horiz-adv-x="1665" 
d="M316 520q-56 0 -88 -66q-60 -122 -3 -239q35 -65 89 -65t89 65q31 51 31 114t-31 120q-32 71 -87 71zM311 1272q-55 0 -89 -46t-34 -106t29 -106q37 -49 89 -49t96 46t44 95q0 166 -135 166zM781 602q100 0 100 160q0 37 -27 84t-72 47q-100 0 -100 -143
q0 -63 25.5 -105.5t73.5 -42.5zM1450 756q10 0 10 -52t-10 -53h-74q-23 2 -28 2h-43q-127 0 -175 -49t-49 -174q0 -66 15 -100q8 -31 51 -90q63 -100 140 -100t118 71q10 35 22.5 66.5t24.5 64.5q35 72 98 72q94 0 95 -80q0 -14 -9 -45q-35 -131 -131 -209q-95 -88 -215 -88
t-221 86q-100 88 -119 192l-12 148q-12 117 -45 117h-10q-5 2 -15 2t-39 -17q-29 -12 -46 -12t-50 18q-33 23 -50 23t-21 -4q-34 -13 -44 -59q-21 -92 -31 -188q-11 -96 -36 -153t-103 -103t-153 -46q-115 0 -183 121t-69 248q0 252 258 251q20 0 54 -19t67 -19t80 56
t47 111q0 54 -45 111q-49 57 -84 57q-35 1 -83 -29t-75 -30q-88 0 -148 93t-60 199t75 177q80 70 203 70t205 -107q70 -88 86 -225q2 -35 18 -90q18 -23 49 -23q31 39 92 39t88 -45q35 0 71 98q63 170 112 236q86 117 229 117q112 0 228 -79t116 -184q0 -166 -108 -165
q-66 0 -86 90q-10 43 -18.5 85t-18.5 85q-35 90 -119 90q-106 0 -162 -146q-41 -106 -41 -201t14 -116q13 -24 69 -60t99 -36h195z" />
    <glyph glyph-name="glIOTBYUS" unicode="&#x2c29;" horiz-adv-x="1949" 
d="M664 500q-98 0 -98 -167t89 -167q53 0 79 53t26 109t-24 114t-72 58zM551 1243q-14 0 -37 -16q-20 -21 -135 -281t-115 -282q0 -43 53 -43h113q72 0 105 118q51 174 147 291l-76 174q-18 39 -55 39zM731 897q-39 0 -68 -73t-28 -122q0 -84 96 -84q37 0 61.5 24t24.5 70
q1 46 -19 116q-20 69 -67 69zM1061 840q-53 0 -82 -44t-29 -96t35 -90q39 -35 82 -35t74 35q25 33 25 84q0 50 -26 98t-79 48zM86 566q0 34 29 91l342 734h219l203 -476q14 -33 43 -33t84 23q51 25 74 25q22 0 58 -18t44 -19q27 0 49 104l20 136q35 119 134 187t229 69
t212 -99q83 -100 83 -235q0 -96 -84 -97q-47 0 -69 12t-42 90q-19 77 -49 134q-41 68 -111 68q-100 0 -149 -121q-39 -90 -39 -207q0 -172 158 -172h196q12 0 12 -56t-16 -55h-182q-60 1 -112 -69t-52 -136q0 -113 37 -186q49 -98 147 -98q74 0 107 76q12 35 24.5 69.5
t22.5 69.5q35 76 104 76q102 0 103 -91q0 -125 -98 -247q-103 -123 -223 -123t-183 22q-84 35 -127 123q-14 31 -46 201t-56 188q-57 -32 -90 -47q-14 2 -38 5t-73 27t-83 24t-34 -95l13 -176q0 -112 -74 -190q-73 -78 -179 -78t-163 79t-58 181q0 35 23 108.5t23 108.5
q0 72 -103 72l-211 -13q-49 0 -49 34z" />
    <glyph glyph-name="glFITA" unicode="&#x2c2a;" horiz-adv-x="1390" 
d="M721 195q124 0 143 329l6 181l-288 4q-12 -53 -13 -84q0 -141 25 -252q37 -178 127 -178zM721 1292q-80 0 -123 -157q-29 -115 -29 -226q0 -86 90 -86h129q84 0 84 76l-10 88q0 85 -36 195t-105 110zM1133 741q-43 0 -64 -61q-6 -25 -18 -96q-35 -201 -99 -357
q-100 -236 -235 -235q-127 0 -225 241q-62 149 -98 329t-87 179q-45 0 -71 -84q-4 -12 -27 -125q-27 -20 -66 -20q-66 0 -88 57q-12 31 -12 115q1 84 21 111t73 26h13q12 0 28 -2h49q119 0 187 152q27 72 53.5 140.5t52.5 139.5q74 152 194 152t183 -113q31 -53 87 -215
q56 -163 110 -215q37 -32 91 -39q-8 2 102 2t110 -131q0 -47 -4.5 -114.5t-88.5 -67.5q-64 0 -85 59l-23 113q-12 59 -63 59z" />
    <glyph glyph-name="glIZHITSA" unicode="&#x2c2b;" horiz-adv-x="1112" 
d="M445 395q-169 0 -169 -149q0 -62 52 -112t121 -50q166 0 165 145q0 166 -169 166zM651 635q-1 93 -59 151t-147 58t-147 -67t-58 -152q0 -176 241 -176q170 0 170 186zM453 1225q-150 0 -150 -193q0 -147 131 -147q74 0 123 43q53 40 53 112t-45 125q-46 60 -112 60z
M979 229q-37 0 -74 25q-4 31 -7 54.5t-7 40.5t-6 32q-23 68 -101 68t-77 -89q0 -45 30 -71q14 -41 15 -86q0 -99 -84 -155t-199 -56t-207 39q-127 53 -127 151q0 35 36 93q36 57 36 101t-66 98q-65 54 -65 161t47 160q76 29 76 82t-41 94q-27 47 -27 86q0 105 80 171
q81 66 203 66t217 -41q123 -55 123 -174q0 -39 -60 -157q-2 -41 73 -85t75 -119t-29 -120v-31q0 -47 74 -71l137 -43q74 -37 78 -125q-37 -99 -123 -99z" />
    <glyph glyph-name="glSHTAPIC" unicode="&#x2c2c;" horiz-adv-x="458" 
d="M55 -18q-27 0 -20 26q14 18 45 82q110 230 126.5 412.5t16.5 351.5q0 248 -26 439l-7 38q0 70 146 70q55 0 68.5 -177.5t13.5 -265.5q0 -212 -61.5 -458.5t-178.5 -409.5q-78 -108 -123 -108z" />
    <glyph glyph-name="glTROKUTA" unicode="&#x2c2d;" horiz-adv-x="1308" 
d="M309 612v-350l545 350h-545zM309 743h555l-555 379v-379zM1012 1341h190l2 -1341h-188l-4 557l-699 -446q-12 -10 -46 -35t-91 -68v1354q35 -18 86 -51t750 -508v538z" />
    <glyph glyph-name="glLATINEM" unicode="&#x2c2e;" horiz-adv-x="1269" 
d="M932 1155q-49 0 -116.5 -73.5t-67.5 -123.5l2 -960h-168l2 960q0 66 -27 134t-86 69q-18 0 -43 -12q-86 -45 -113 -102q-27 -51 -26 -152l-2 -897h-172l4 874q0 106 33 152q16 23 116 102l140 105q90 59 157 59q88 0 180 -180q102 74 173 119q102 57 194 57t90 -176
l-2 -1112h-170l4 991q0 166 -102 166z" />
    <glyph glyph-name="GLazu" unicode="&#x2c30;" horiz-adv-x="1017" 
d="M880 489h56q51 0 51 -38v-261q-20 -14 -93 -14t-83 17l-2 174q0 49 -79 49t-79 -43l-2 -340q0 -25 -94 -25t-94 25l-2 327q-2 25 -21.5 46.5t-44.5 21.5q-76 0 -76 -55v-183q-20 -14 -95 -14t-97 17v270q0 29 27 29h10l194 -7q104 0 105 72v365q0 18 36 34t56 17
q51 0 94 -53q4 -86 4 -123t-4 -111l-2 -111q0 -90 109 -90l90 2q31 2 36 2z" />
    <glyph glyph-name="GLbuky" unicode="&#x2c31;" horiz-adv-x="1105" 
d="M221 2q-47 0 -64.5 19.5t-17.5 68.5v832q-1 22 85 22t106 -16l-2 -246q0 -51 95 -51t99 43l2 258q0 14 80 14t80 -12l2 -252q2 -51 107 -51q27 0 59 22q31 25 31 54l-11 221q18 18 100 18t83 -12v-340q0 -49 -70 -49h-584q-72 0 -71 -74v-295q0 -80 110 -80q283 0 475 56
q51 14 99 14t47 -45q0 -67 -23 -93t-92 -26h-725z" />
    <glyph glyph-name="GLvede" unicode="&#x2c32;" horiz-adv-x="1396" 
d="M365 870q-145 0 -146 -186q0 -133 137 -133q59 0 98.5 41t39.5 100q0 178 -129 178zM1149 539q61 0 96 48t35 110q0 63 -35 111t-94 48t-98 -43t-39 -107t37 -112q37 -55 98 -55zM762 0q-342 0 -342 285q22 49 22 115t-71 77q-35 -8 -66 -8q-219 0 -219 270q0 99 98 153
t205 54q279 0 279 -305q0 -111 -31 -227t-31 -142q0 -164 187 -163q106 0 147 71q33 53 33 170q0 31 -41 154q-43 124 -43 220t64.5 159t181.5 63q266 0 266 -282q0 -86 -55.5 -141.5t-141.5 -55.5q-39 0 -94 18q-66 -12 -66 -88l13 -96q0 -125 -84 -213t-211 -88z" />
    <glyph glyph-name="GLglagoli" unicode="&#x2c33;" horiz-adv-x="1196" 
d="M416 893q-58 0 -92 -75q-34 -76 -33 -144q0 -68 36 -114t94 -46t96 88t38 148t-41 101q-40 42 -98 42zM977 387q-51 0 -64 -39q-6 -20 -12 -38.5t-10 -39.5q-14 -29 -14 -45q0 -147 102 -147t102 154t-104 155zM786 285h-16q-138 -62 -186 -92q-115 -76 -107 -158
q-23 -23 -116 -23t-93 32t79 158t79 192t-66 65l-75 -17q-70 0 -124 71q-110 145 -1 325q56 86 130 107t202 22q90 0 143 -78q45 -73 45 -149t-50 -199t-50 -185t51 -65q143 85 208 115q64 30 149 30t141 -57q57 -57 57 -146t-39 -163q-53 -86 -148 -86q-193 0 -192 161
l12 101q0 23 -5 31t-28 8z" />
    <glyph glyph-name="GLdobro" unicode="&#x2c34;" horiz-adv-x="1386" 
d="M367 434q-57 0 -89 -50t-32 -110t36 -115q36 -54 97 -55q129 0 129 165t-141 165zM1086 430q-60 0 -105 -35t-45 -88q0 -217 149 -217q72 0 110 60t38 131q0 70 -43.5 109.5t-103.5 39.5zM1380 263q0 -147 -76 -206t-220 -59q-146 0 -223 77t-77 212q0 63 37 186t37 186
q0 190 -162 191q-88 0 -148 -51t-60 -130t56 -221q58 -142 58 -221q0 -227 -262 -227q-113 0 -193 74q-78 74 -77 188q0 55 24 105q49 88 135 116l133 25q61 8 62 53q0 25 -13 63t-14 60q-1 134 95 198t232 64t230 -65q104 -78 105 -205l-12 -86q0 -63 86 -82
q117 -24 161 -43q86 -55 86 -202z" />
    <glyph glyph-name="GLestu" unicode="&#x2c35;" horiz-adv-x="919" 
d="M627 537q-10 -1 -53 -11t-66 -10q-80 0 -80 41q0 59 111 59q10 0 37 -10t45 -10q51 0 79 55q0 72 -47 135q-49 64 -117 64t-114.5 -41t-46.5 -105t-185 -65q-84 0 -84 41q0 121 150 201q130 65 260 65q387 0 387 -472t-397 -472q-141 0 -275 83t-135 218q0 41 74 41
q197 0 195 -63l-5 -23q0 -61 46 -107q46 -47 112 -47t108 60t42 131q0 55 -58 55l-98 -16q-84 0 -84 53q0 39 88 39l107 -14q74 0 73 57q0 68 -69 68z" />
    <glyph glyph-name="GLzhivete" unicode="&#x2c36;" horiz-adv-x="1394" 
d="M415.5 406q-55.5 0 -93.5 -44t-37.5 -101.5t39.5 -97.5t95 -40t90 45t34 100t-35 97q-37 41 -92.5 41zM1074 428q-60 0 -97 -38t-37 -98t39 -108t94 -47q55 0 94 36q39 37 39 95t-37 107q-35 53 -95 53zM655 383l19 -131q0 -117 -72 -184.5t-194 -67.5t-208 79
q-87 79 -87 206q0 96 94 158t194 63l95 -10q152 0 151 88q-1 74 -109 122t-196 48q-12 -10 -42 -10t-30 24q0 54 64 116t121 62q78 0 169 -110q90 -110 124 -109q34 0 124 109q88 111 175 110q41 0 101 -58t60 -104q0 -10 -4 -26q-26 -10 -60 -10t-52 8q-74 -12 -150 -73
t-76 -128q0 -55 113 -55l117 16q118 0 194 -66t76 -182q0 -115 -92 -190q-88 -76 -194 -76t-185 90q-78 90 -78 193q0 23 9 59t10 53q0 84 -84 84q-96 0 -97 -98z" />
    <glyph glyph-name="GLdzelo" unicode="&#x2c37;" horiz-adv-x="1075" 
d="M406 440q-68 0 -68 -32q0 -37 53 -96.5t83 -59.5t67 64t37 94t-41 30h-131zM741 418q-49 0 -96 -98t-47 -156q0 -20 24 -51t46 -31q34 0 110 131t76 176q0 29 -53 29h-60zM713 756q0 47 -26 90t-73 43t-85 -44q-37 -44 -37 -95t36.5 -88t83.5 -37t74 45q27 39 27 86z
M1061 485q0 -27 -19 -53l-278 -426q-20 -33 -132 -33t-138 31l-377 436q-20 23 -21 45q0 51 70 52h401l15 18q-4 41 -45 41q-80 0 -134 59q-51 61 -51 141.5t82 133.5q74 43 155 43t144.5 -53.5t63.5 -128.5q0 -45 -43 -126t-43 -104q0 -29 65 -29h9l165 9q111 0 111 -56z
" />
    <glyph glyph-name="GLzemlya" unicode="&#x2c38;" horiz-adv-x="1275" 
d="M561 518q-25 0 -117 -92q-90 -94 -90 -119q0 -47 50 -97t109 -50q58 0 89 55t31 119q0 184 -72 184zM385 811q-51 0 -88 -86q-35 -63 -35 -121t17 -92q18 -55 53 -55q36 0 116 79t80 107q0 49 -45 111q-47 57 -98 57zM1124 852q0 143 -90 143t-90 -108q0 -39 44 -109
t79 -69q57 0 57 143zM1247 920q0 -100 -49 -219t-131 -119q-59 0 -121 130t-76 130q-57 0 -168 -152q43 -203 43 -272q0 -233 -213 -400q-49 -37 -75 -36q-160 0 -264 215q-86 178 -87 358q0 117 78 225q68 100 178 160q45 29 75 29t130 -76q97 -78 111 -117q39 0 78 64
t83 135.5t154 71.5l72 -5l65 7q117 0 117 -129z" />
    <glyph glyph-name="GLizhe" unicode="&#x2c39;" horiz-adv-x="1163" 
d="M913 858q-133 0 -133 -186q0 -49 35 -85t82 -36t83 49t36 101q0 53 -29 105t-74 52zM377 858q-41 0 -72 -59q-59 -102 6 -197q37 -51 86 -51t80 37q35 35 35 84q0 186 -135 186zM555 465q0 57 -41 57q-8 0 -73 -38t-101 -38q-96 0 -154 68t-57 164q0 220 137 244t223 24
h310q180 0 258 -43q104 -61 104 -227q0 -98 -57 -164t-154 -66q-35 0 -97 38t-75 38q-39 0 -39 -57v-287q0 -35 35 -82q41 -45 76 -47v-49h-408v49q39 2 76 46t37 83v287zM580 874q-50 0 -50 -28t84 -234q14 -12 32 -12t30 13q14 13 49 111t35 118q0 33 -49 32h-131z" />
    <glyph glyph-name="GLinitializhe" unicode="&#x2c3a;" horiz-adv-x="1087" 
d="M571.5 479q-22.5 -1 -95.5 -151t-73 -189q0 -55 50 -55h235q47 0 47 55q-1 37 -71 189t-92.5 151zM293 866q-117 0 -117 -116q0 -50 51 -92t105 -42q76 0 76 89q0 47 -34 104t-81 57zM537 881q-74 0 -74 -60q0 -23 45 -95t59 -73q29 0 56 52q57 53 57 118q0 57 -74 58
h-69zM850 866q-47 0 -82 -58t-35 -103q0 -88 78 -89q51 0 102 41q49 43 50 93q0 116 -113 116zM905 524q-25 0 -67 14t-70 13q-49 0 -49 -45q0 -18 135 -227t135 -236q0 -45 -59 -45h-717q-63 0 -63 45q0 33 135 235.5t135 227.5q0 45 -47 45q-31 0 -82 -13t-78 -14
q-68 0 -121 77t-53 159t81 134t185 52h531q96 0 181 -52t85 -139t-56 -159t-141 -72z" />
    <glyph glyph-name="GLi" unicode="&#x2c3b;" horiz-adv-x="983" 
d="M299 328q0 -92 69 -173q70 -81 160 -81t161 82t71 179t-101 154q-49 -23 -133 -96l-59 60q-37 29 -72 47q-37 -29 -67 -80t-29 -92zM705 797q0 35 -43 34h-279q-41 0 -41 -44q0 -45 73 -123t111.5 -78t71.5 39q107 125 107 172zM729 569q0 -20 78 -61q131 -68 131 -246
q0 -131 -132 -206q-132 -74 -278 -74t-266 67q-141 80 -141 207t51 186q20 29 94 72q49 31 49 70q-236 250 -235 286q0 57 72 58h735q53 0 53 -37t-209 -309l-2 -11v-2z" />
    <glyph glyph-name="GLdjervi" unicode="&#x2c3c;" horiz-adv-x="1267" 
d="M946 1264q-84 0 -84 -119q0 -49 30 -95t77 -46q94 0 94 135q0 53 -34 89t-83 36zM913 864q0 -49 140 -395l172 -434q4 -8 4 -17q0 -18 -43 -18h-211q10 16 10 58t-16 87q-10 39 -16.5 60.5t-8.5 32.5q-31 166 -108 165q-80 0 -113 -106q-25 -74 -25 -174l7 -70
q0 -53 -19 -53h-121q-51 0 -51 61l4 60q0 272 -153 272q-72 0 -109 -108q-27 -78 -27 -168l15 -109l-2 -8h-140q-25 0 -24 43q0 79 114 319t173 240q70 0 147 -133q80 -129 125 -129q51 0 108 91t68 155l-80 231q-59 184 -59 215q0 135 66 223t189 88q122 0 211 -54t89 -167
q0 -193 -115 -192l-113 20q-88 0 -88 -86z" />
    <glyph glyph-name="GLkako" unicode="&#x2c3d;" horiz-adv-x="624" 
d="M250 -6q-41 -10 -62 -10q-20 0 -58 10t-38 22v285q0 41 39 41h258q43 0 43 82t-24 92q-10 6 -97 6h-180q-20 0 -20 27v346q0 39 88 39t88 -39v-266q0 -45 88 -45l172 10q41 0 51 -43l2 -84l-2 -84v-84q0 -8 -12 -8h-258q-41 0 -41 -146v-21q0 -20 2 -42l2 -62
q0 -16 -41 -26z" />
    <glyph glyph-name="GLljudie" unicode="&#x2c3e;" horiz-adv-x="1144" 
d="M350 358q-113 0 -112 -186q0 -96 67 -96q109 0 109 176q-1 106 -64 106zM856 342q-66 0 -65 -121v-33q0 -121 77 -120q100 0 101 122q0 152 -113 152zM545 856q-59 0 -109 -42t-49 -99q0 -102 29 -174q39 -104 119 -105q162 0 162 210t-152 210zM838 -27q-104 0 -148 82
q-45 82 -45 187l6 73q1 63 -69 63t-70 -40q0 -29 12 -86t13 -84q0 -96 -64 -135q-47 -31 -147 -31t-180 55q-78 55 -78 149t79 156q80 57 170 58q23 0 60 -6q-106 145 -107 303q0 98 66 176q70 76 166 76q332 0 332 -289q0 -41 -14 -108t-13 -103q0 -86 57 -86l47 10
q90 1 155 -67q64 -68 64 -161t-94 -143t-198 -49z" />
    <glyph glyph-name="GLmyslite" unicode="&#x2c3f;" horiz-adv-x="1689" 
d="M750 249q0 46 -25 93q-27 57 -70 57q-69 -1 -123 -35t-54 -96t39 -100q40 -39 90 -39t93 37q50 37 50 83zM494 692q0 47 -27 92t-85 45t-96 -46q-40 -46 -40 -115q0 -109 135 -109q39 0 76 43t37 90zM1294 260q0 139 -174 139q-47 0 -73 -55q-25 -47 -25 -94t46 -84
t99 -37t90 42t37 89zM1528 668q0 70 -41 116t-97 45q-56 0 -84 -47q-26 -47 -26 -91t38 -88t75 -44q135 0 135 109zM788 809q0 76 -118 76q-147 0 -144 -78q39 -59 39 -143t-92 -142q-92 -57 -179 -57t-156.5 75.5t-69.5 170.5q0 236 305 235h1026q305 1 305 -235
q0 -94 -71 -170t-161 -76t-178 54t-88 136l2 2q-6 80 39 150q4 78 -157 78q-37 0 -71 -21t-34 -55v-211q12 -25 105 -137q150 0 247 -49q127 -66 127 -199q0 -82 -67 -150q-69 -65 -165 -65t-204 64t-106 165l4 2q2 92 96 203q-92 147 -135 148q-31 0 -78 -60l-59 -88
q98 -109 98 -208q0 -98 -104 -162t-200 -64t-167 65q-68 68 -68 150q0 135 127 199q98 49 248 49q65 83 104 137v211z" />
    <glyph glyph-name="GLnashi" unicode="&#x2c40;" horiz-adv-x="1015" 
d="M684 864q-113 0 -113 -181t136 -181q61 0 94 56t33 126t-38 125t-112 55zM138 -186q-89 0 -89 14v184q0 47 55 47h105q35 -2 41 -2h61q82 0 82 58v270q0 43 -67 43q-76 0 -76 -78v-13q0 -13 2 -30l2 -49q0 -25 -89 -25t-89 19v180q0 57 78 57l143 -10q96 0 96 76v334
q0 57 62 57h229q133 0 217 -57q103 -68 103 -197t-86 -184q-56 -37 -172 -49t-146 -36t-31 -124l2 -100q4 -66 4 -101q0 -98 -57 -98h-246q-49 0 -49 -92v-16q0 -15 2 -27l2 -35q0 -16 -89 -16z" />
    <glyph glyph-name="GLonu" unicode="&#x2c41;" horiz-adv-x="782" 
d="M408 338q-172 0 -172 -119q0 -61 63 -94q51 -29 107 -29t92 36q34 36 34 86t-36 85q-41 35 -88 35zM399 883q-57 0 -104 -40t-47 -97q0 -58 47 -90t106 -32t107 31q49 37 49 95q0 133 -158 133zM354 2q-111 0 -182 39q-94 45 -94 148t65 161t174 58q42 0 91 -17
q57 -14 98 -14t70.5 32.5t29.5 78.5t-31 75q-29 35 -59 35t-85 -15q-54 -15 -85 -16q-94 0 -177 48q-83 47 -83 137t87 151t187 62q227 0 324 -127q86 -111 86 -336t-96 -357q-111 -143 -320 -143z" />
    <glyph glyph-name="GLpokoji" unicode="&#x2c42;" horiz-adv-x="884" 
d="M631 846q-43 0 -65 -43t-23 -88q0 -45 26 -109q33 -70 77 -70t73 68q18 51 18 107q0 135 -106 135zM82 414q-35 0 -47 12q-19 12 -19 59t29 60q13 6 67 6t54 45v260q0 72 63 72h504q150 0 150 -154q0 -127 -43 -221q-56 -129 -156 -129t-152 90t-51 184q0 133 -55 133
q-35 0 -59 -51v-739q-1 -39 -101 -39t-100 41v324q0 43 -39 49q-10 -2 -45 -2z" />
    <glyph glyph-name="GLritsi" unicode="&#x2c43;" horiz-adv-x="622" 
d="M338 477q-80 0 -80 -74v-258q0 -59 79 -59t107 61q16 43 16 137t-14 132q-28 61 -108 61zM123 -2q-53 0 -53 51v862q0 35 106 35q58 0 70 -19t12 -85v-252q0 -43 74 -43v4h92q178 -1 178 -277t-231 -276h-248zM332 551q-13 0 -25 -2l-2 6l4 2l-2 2l25 -2v-6z" />
    <glyph glyph-name="GLslovo" unicode="&#x2c44;" horiz-adv-x="970" 
d="M719 131q0 43 -67.5 123t-109.5 80t-118 -75t-76 -114q0 -45 43 -45h287q41 0 41 31zM768 595q0 111 -62 179t-172 68t-177 -56t-66 -161q0 -45 36 -101q35 -56 91 -55q56 0 123 82q78 -78 141 -96q86 30 86 140zM952 35q0 -33 -57 -33h-748q-74 0 -73 55q0 37 239 275
v14q1 25 -65 65t-88 66q-55 61 -56 162q0 137 140 222t292 85t275 -80q143 -87 143 -241q0 -86 -59 -146q-25 -25 -97 -70t-73 -77v-2l2 -6q225 -246 225 -289z" />
    <glyph glyph-name="GLtvrido" unicode="&#x2c45;" horiz-adv-x="1507" 
d="M410 856q-143 0 -144 -213q0 -68 36 -129t103.5 -61t102.5 64t35 132q0 207 -133 207zM1319 643q0 213 -137 213t-138 -207q0 -69 35 -133t102.5 -63.5t104.5 63.5q33 51 33 127zM1207 352q-119 0 -197 72t-78 184q0 35 28 93t27 98q0 75 -192 75t-193 -73q0 -41 28 -99
t27 -94q-1 -112 -79 -184t-195 -72t-219 80t-103 207q0 188 105 256q78 51 280 51h697q199 0 280 -51q104 -68 105 -256q0 -121 -102 -204t-219 -83z" />
    <glyph glyph-name="GLuku" unicode="&#x2c46;" horiz-adv-x="1372" 
d="M408 375q-158 0 -158 -139q0 -62 51 -100t99 -38t100 47q49 49 49 100t-39 90.5t-102 39.5zM864 348q-162 0 -162 -115q0 -51 60 -93t113 -42q55 0 97 41t42 101t-43 90q-35 18 -107 18zM362 868q-150 0 -149 -133q0 -139 182 -139q139 0 140 152q-1 120 -173 120z
M983 602q-37 0 -68.5 -14.5t-35.5 -14.5l-97 -16q-57 -14 -57 -65q0 -104 231 -105q76 -1 76 107t-49 108zM854 860q-47 0 -101 -36t-55 -76q0 -74 28 -102t99 -28l4 -2q70 0 127 35t58 105q0 104 -160 104zM47 752q0 102 115 155q84 39 181 39t200 -22q72 -52 119 -52
t138 37t140 37q131 0 203 -86q66 -74 65 -213q0 -90 58 -102l88 -8q59 -10 59 -49.5t-78 -53.5t-94 -38t-16 -109q0 -119 -90 -202t-213 -83q-49 0 -135.5 33t-137.5 33t-140 -34t-167 -34t-176 49q-99 49 -98 137q0 223 327 224l62 -4q39 0 67.5 23.5t28.5 62.5
q0 70 -100 69l-140 -14q-113 0 -182 49q-84 54 -84 156z" />
    <glyph glyph-name="GLfritu" unicode="&#x2c47;" horiz-adv-x="1234" 
d="M289 449q0 53 -48 53t-48 -72t40 -72q25 0 41 35q15 27 15 56zM727 477q0 31 -35 31h-110q-35 0 -35 -31v-327q0 -37 47 -37h86q47 0 47 37v327zM682 578q37 0 37 34v224q0 31 -29 30h-106q-29 0 -29 -35v-25q0 -24 2 -46l2 -72l-4 -70q0 -41 35 -40h92zM1040 358
q41 0 41 72t-49 72t-49 -53q0 -29 16 -60t41 -31zM465 938h344q53 0 53 -70v-66q0 -60 -2 -177q0 -55 27 -56h168q77 1 99 -33t22 -100t-34 -131q-34 -66 -75 -65q-23 0 -51 28q-72 68 -72 221q0 33 -42 33t-42 -16v-459q0 -39 -39 -39h-368q-41 0 -41 39v459q0 16 -29 16
q-53 0 -53 -33q0 -84 -27 -151q-35 -98 -94 -98q-47 0 -79 65t-32 131t22 100t101 33h168q29 0 29 68l-10 184q0 117 57 117z" />
    <glyph glyph-name="GLha" unicode="&#x2c48;" horiz-adv-x="1073" 
d="M812 125q52 0 78 45t26 96t-34 91t-84 40t-79 -49q-29 -41 -29 -95t35 -91t87 -37zM573 336q-80 0 -219 -169t-204 -169q-23 0 -23 22t46 105q46 84 46 318t-37 401q-8 32 -8 37q0 65 137 65t138 -80q0 -84 -28 -248t-28 -176q0 -70 56 -69q31 1 167 67t203 66
q111 0 181 -55t71 -172q0 -117 -86 -199t-213 -82q-70 0 -116 54t-46 120l13 98q0 66 -50 66z" />
    <glyph glyph-name="GLotu" unicode="&#x2c49;" horiz-adv-x="1253" 
d="M307 480q0 -124 47 -222q61 -117 181 -117q37 0 69 27q35 25 35 59q0 57 -121 88q4 16 29 27q20 14 41 14q115 0 157 -55q14 -18 41 -98q16 -53 68 -53q100 0 154 111t53 215q0 104 -49 238t-125 134q-39 0 -49 -78q-16 -125 -25 -152q-31 -88 -123 -112
q-160 43 -160 186l17 111q0 70 -51 69q-66 0 -144 -170q-45 -98 -45 -222zM692 612q84 0 84 112t-85 112t-85 -121q0 -41 24 -72t62 -31zM127 469q0 233 161 356t384 123t393 -112q186 -129 186 -328q-1 -131 -65 -239t-182 -144q-33 -10 -68 -21.5t-57 -15.5
q-86 -35 -86 -79q0 -49 54 -70t66 -29q0 -49 -59 -49t-124 20t-91 58q-17 47 -35 90q-25 61 -57 61l-92 -18q-133 0 -236 133q-92 125 -92 264z" />
    <glyph glyph-name="GLpe" unicode="&#x2c4a;" horiz-adv-x="937" 
d="M358 274q0 48 -68 48t-87 -33q-18 -33 -19 -99q0 -133 111 -133q63 0 63 37v180zM897 25q0 -39 -68 -39t-67 39v780q0 66 -39 65h-186q-43 0 -43 -63v-782q0 -43 -156 -43t-213 30q-82 43 -82 172t61 170q43 29 185 29q70 0 69 23v495q0 12 25 41h483q31 0 31 -53v-864z
" />
    <glyph glyph-name="GLshta" unicode="&#x2c4b;" horiz-adv-x="1128" 
d="M602 498q-166 0 -166 -232q0 -180 169 -180t169 178q0 234 -172 234zM827 502q0 -8 39 -42q95 -83 95 -209t-125 -194q-102 -55 -232 -55t-231 55q-125 68 -125 190t39 167l53 43q41 35 41 45q0 35 -137 53t-146 25v340q0 24 86 24t86 -20v-289q0 -37 123 -37t123 45v283
q0 20 87 20t87 -22v-285q0 -41 112 -41t136 33v291q0 22 86 22t86 -26v-340q-12 -6 -148 -24t-135 -52z" />
    <glyph glyph-name="GLtsi" unicode="&#x2c4c;" horiz-adv-x="1136" 
d="M292 877q-48 -1 -80 -51t-32 -98t32 -89t76 -41t70 41t27 93q0 52 -20 91q-25 54 -73 54zM676 0q-115 0 -182 172q-18 51 -68 272l-18 70q-20 33 -58 33t-61 -6q-24 -6 -36.5 -9.5t-23.5 -3.5q-68 0 -125 70t-57 139q0 129 86 176q57 33 208 33t204 -59q18 -20 24 -160
t27 -269t88 -206q37 -43 57 -43q4 0 13 4q86 39 129 283q26 178 26 352q0 68 72 67q147 0 147 -59q0 -108 -185 -482t-267 -374z" />
    <glyph glyph-name="GLchrivi" unicode="&#x2c4d;" horiz-adv-x="1171" 
d="M611 375q-48 0 -91 -49.5t-43 -102.5q0 -117 131 -117q55 0 88 46q33 39 33 90t-35 92t-83 41zM518 618q-2 0 -20 4t-29 1l-57 16l-113 -180q0 -25 49 -25l60 2l81 -4q57 0 89 62t32 92q0 41 -37 41l-8 -3zM758 629q-86 0 -86 -37q0 6 -60 -154h232q68 0 67 37
q0 -8 -22 64q-27 76 -36 83t-95 7zM418 946q117 0 117 -41q-1 -20 -45 -94t-44 -88q0 -49 103 -49h203q72 0 71 55q0 31 -24.5 86t-24.5 80q0 49 125 49q51 0 72 -8q25 -16 24 -49q0 -239 115 -395q41 -59 57 -101q-15 -8 -51 -8h-43q-43 0 -80 4v2q-190 0 -190 -92
q0 -23 16.5 -66t16.5 -59q0 -74 -68 -123t-151 -49q-84 0 -152 52t-68 134q0 35 40 89t40 67q0 45 -92 45h-295q-31 1 -27 19q45 59 91 116.5t90 157.5q19 57 84 217q20 49 90 49z" />
    <glyph glyph-name="GLsha" unicode="&#x2c4e;" horiz-adv-x="1251" 
d="M176 -2q-39 0 -39 45v897q18 6 87 6t85 -8v-817q0 -63 60 -64h141q29 0 52.5 19.5t23.5 48.5v807q14 14 87 14t89 -16v-807q0 -29 22.5 -48.5t51.5 -19.5h141q59 0 59 64v819q18 8 87 8t87 -6v-901q0 -41 -39 -41h-995z" />
    <glyph glyph-name="GLyor" unicode="&#x2c4f;" horiz-adv-x="1028" 
d="M221 285q82 0 82 88t-88 88q-82 0 -82 -88q0 -35 26.5 -61.5t61.5 -26.5zM774 215q0 86 -90 86q-43 0 -71 -35t-27.5 -75.5t28 -69.5t68 -29t66.5 37t26 86zM750 756q0 44 -28 74t-68 30t-68 -44t-29 -82q0 -38 26.5 -62.5t67.5 -24.5t70 32t29 77zM1004 448
q0 -204 -72 -329q-90 -147 -258 -148q-98 1 -175 57t-77 152t66 142t160 47q95 0 173 -43q18 57 19 123q-96 0 -153.5 -2.5t-95.5 -3.5t-67.5 -2t-62.5 0q-55 2 -68 -11t-22 -59l-27 -123q-27 -64 -109 -64t-139 58t-57 138q0 79 52 127t130 48l613 -45q-8 51 -41 100
q-51 -35 -141 -35t-154 37q-82 45 -82 128q0 82 42 140t113 58q223 0 332 -152q101 -134 101 -338z" />
    <glyph glyph-name="GLyer" unicode="&#x2c50;" horiz-adv-x="1003" 
d="M692 336q-47 0 -92 -31t-45 -79t32 -95t79 -47t77 49q29 41 29 90q0 113 -80 113zM635 881q-43 0 -78 -35t-35 -80t43 -82q45 -35 92 -35q82 0 82 107q0 47 -28 86q-33 39 -76 39zM641 952q160 0 262 -182q68 -123 68 -291t-72 -315q-86 -184 -240 -184q-106 0 -191 64
t-85 174t109 147q57 18 206 18q96 0 97 39q0 45 -99 45h-247q-127 5 -144 -12q-9 -78 -45 -174q-15 -48 -68 -48t-82.5 24t-29.5 43v122l-2 65v31q226 8 262 8h403q41 0 41 25q0 61 -51 61l-162 -22q-207 0 -206 135q0 109 88 170q78 57 188 57z" />
    <glyph glyph-name="GLyati" unicode="&#x2c51;" horiz-adv-x="1239" 
d="M616 319q0 27 -22 54t-47 26h-41q-45 0 -93 -99t-48 -155q0 -49 90 -49h26q135 0 135 68v155zM793 399q-55 0 -68 -96v-139q0 -61 86 -62h90q74 0 74 60q0 35 -21 76l-39 69l-28 60q-20 33 -51 32h-43zM671 754q-30 0 -42 -23l-90 -182q-12 -29 -13 -43q0 -39 39 -39h213
q39 0 39 41q0 20 -22 59l-82 166q-12 21 -42 21zM1229 43q0 -43 -86 -43l-905 2q-115 0 -121 29q434 858 458 870q18 12 115 12l74 -2l453 -850q12 -6 12 -18z" />
    <glyph glyph-name="GLspiderha" unicode="&#x2c52;" horiz-adv-x="1402" 
d="M636 350q98 0 202 31q147 43 147 125q-1 48 -59 112t-58 150q-141 0 -473 -86q-12 -43 -12 -86l2 -78q6 -76 80 -122q73 -46 171 -46zM1227 180q0 -74 -36 -126t-83 -52t-82 21q-43 20 -43 55q0 16 30.5 71t30.5 81t-28 43q-56 34 -160 -3q-52 -15 -110 -27t-254 -34
q-34 -28 -72 -68q-109 -109 -184 -135t-240 -26v6q16 24 146 98t173 178q-67 54 -91 108t-24 146t13 158h-18q-66 -4 -91 31q2 12 95 94q6 279 215 278q100 0 100 -90q0 -53 -34 -114t-42 -87q271 8 445 45q51 55 153 56q33 0 60 -10q66 14 157 14t160 -39q84 -45 84 -119
q0 -139 -168 -139q-41 0 -41 44t33 83t33 63q0 37 -60 37l-75 17q-100 0 -101 -52q0 -4 29 -159.5t31 -243.5q49 -129 49 -203z" />
    <glyph glyph-name="GLyu" unicode="&#x2c53;" horiz-adv-x="1011" 
d="M506 879q0 39 -88 39t-88 -37l-2 -764q0 -84 49 -84t89 130t40 202v514zM768 905q-37 0 -61 -37q-20 -37 -21 -75q0 -156 113 -156q61 0 61 119q0 149 -92 149zM795 524q-18 0 -50 17l-47 24q-39 0 -39 -102q0 -313 -391 -754q-133 -151 -169 -151t-36 51q0 23 29 90
q88 190 88 471v616q0 20 -34 54t-33 53q0 74 100 74l555 -2q131 0 177 -38t46 -154t-45 -175q-53 -74 -151 -74z" />
    <glyph glyph-name="GLyus" unicode="&#x2c54;" horiz-adv-x="952" 
d="M217 594q-37 0 -60.5 -28.5t-23.5 -66.5t25 -71q24 -33 58 -33t63 33q23 33 23 71t-24 66.5t-61 28.5zM637 80q61 0 111 76l69 129q25 10 66 10q55 0 55 -66q0 -94 -104 -174t-205 -80q-141 0 -232 127q-74 104 -92 260q-41 -51 -99 -51q-58 -1 -100 65q-40 66 -40 134
t47 119q49 51 109 51t91 -51q26 122 115 215q100 94 206 94t182 -55q75 -55 106 -144q8 -17 8 -41t-24.5 -47.5t-60.5 -23.5t-63 59l-43 113q-31 59 -86 59q-102 0 -147 -133q-35 -92 -35 -215l297 2q23 0 23 -46t-23 -46h-291l-2 -68q0 -92 35 -172q43 -100 127 -100z" />
    <glyph glyph-name="GLyustail" unicode="&#x2c55;" horiz-adv-x="1079" 
d="M369 590q-39 0 -62.5 -31t-24 -72t23.5 -73t62 -31q38 0 62 32t23 73q0 41 -23 67q-22 35 -61 35zM1067 215q0 -96 -102 -174q-99 -80 -195 -80q-252 0 -315 395q-51 -51 -91 -51q-40 1 -81 65t-80 64t-53 -28q-23 -35 -37 -44q-19 -117 12 -156q32 -38 51 -58.5
t37 -41.5q-2 -6 -12.5 -21t-38.5 -56t-33 -41q-27 0 -51 108q-25 94 -25 143t28 124t75 106q12 8 29.5 18.5t39.5 26.5q45 94 56 104q37 54 86 54t96 -47q98 307 325 307q92 0 182 -70t89 -154q0 -84 -78 -83q-35 0 -55 59l-43 115q-35 61 -88 61q-176 0 -183 -364l297 2
q17 0 17 -42t-19 -42h-286l-5 -86q0 -94 37 -170q45 -98 124 -98t124 108q51 109 117 108q49 0 49 -61z" />
    <glyph glyph-name="GLyn" unicode="&#x2c56;" horiz-adv-x="1118" 
d="M606 354q-113 0 -112.5 -133t102.5 -133q47 0 84 39q33 41 33 92t-29 93t-78 42zM545 827q-33 0 -90 -88q-25 -35 -87 -125t-94 -170q14 -20 41 -20h111q47 0 90 70l59 110q20 37 84 90q-41 74 -47 80q-34 53 -67 53zM697 606q-44 0 -76 -57q-33 -51 -33 -98
q0 -63 102 -63t103 67q0 45 -23 96q-29 55 -73 55zM82 391q0 25 29 66l329 493h222l153 -231l139 -180q115 -153 115 -165t-33 -12l-45 3q-14 2 -17 2h-26q-102 0 -102 -86l12 -93q0 -88 -79 -138t-169 -50t-153 47q-70 57 -70 135q-1 23 21 70t22 78q0 37 -88 37h-9
l-161 -7q-90 0 -90 31z" />
    <glyph glyph-name="GLiotyus" unicode="&#x2c57;" horiz-adv-x="1576" 
d="M821 592q-98 0 -98 -105q0 -90 92 -90t92 88q0 107 -86 107zM559 682q0 164 -135 164q-66 0 -96 -55q-14 -25 -25.5 -49.5t-23.5 -49.5q-33 -53 -109 -53t-76 53q0 14 10 45q74 209 316 209t282 -170q4 -20 8.5 -40.5t8.5 -43.5q14 -57 47 -57h94q37 1 78 95t84 134
q82 82 240 82q104 0 187 -55t120 -154q10 -31 10 -45q0 -53 -79 -53t-101 23q-19 12 -37 67t-41 86t-74 31q-135 0 -135 -213q0 -57 12 -78q16 -35 68 -35h156q18 0 18 -44t-23 -44h-151q-53 0 -68 -33q-12 -23 -12 -77q0 -195 135 -195q59 0 88 51l45 92q39 52 119 52
t80 -62q0 -14 -10 -41q-81 -217 -314 -217q-86 0 -181 53t-124 142q-8 23 -25.5 92.5t-64.5 68.5h-86q-37 0 -61 -63l-27 -94q-25 -83 -114 -141t-169 -58q-223 0 -299 217q-12 31 -12 60q0 84 92 83q61 0 86 -34q18 -29 32 -84q15 -55 47 -88t81 -33t84 47q37 43 37 95
t-23 87q-25 43 -71 43l-62 -6q-18 0 -18 21q0 27 29 26l73 -8q61 0 61 62t-61 63l-76 -6q-29 0 -28 26q0 25 26 25l66 -4q92 0 92 88z" />
    <glyph glyph-name="GLbyus" unicode="&#x2c58;" horiz-adv-x="1361" 
d="M190 249q0 -44 29 -89q33 -45 76 -45t70 45q40 57 20 141t-89 84q-48 0 -77 -46t-29 -90zM303 858q-109 0 -108.5 -114.5t108.5 -114.5q41 0 70.5 28.5t29.5 69.5q0 131 -100 131zM655 602q-88 0 -88 -98t92 -98t93 88q-1 108 -97 108zM903 299q0 -72 41 -129
q47 -59 117 -59t88 49l27 90q25 47 98.5 47t73.5 -61q0 -12 -7 -33q-31 -92 -108 -150q-78 -55 -161 -55t-172 58t-101 134l-15 113q-18 80 -59 80q-23 -16 -63 -16t-82 18q-40 -11 -50 -79t-19 -147t-118 -130q-51 -27 -110 -27q-89 0 -145 81t-56 163t47 135q49 51 123 51
q14 0 48 -9t64 -9t54 32q23 35 22 72q0 90 -63 90q-21 0 -61 -18t-58 -19q-66 -1 -117 63t-51 141t62 124t154.5 47t164.5 -70t72 -161l-2 -4q2 -78 51 -76h8q26 18 62 18t57 -10q37 0 78 78q59 119 86 145q68 80 178 80q166 0 268 -143q6 -23 6 -41q0 -119 -90 -119
q-45 0 -57 6q-23 10 -32 86t-17 92q-23 55 -91 55t-104 -68q-37 -68 -37 -150q0 -32 43 -92t90 -60h154q8 -8 8 -35q0 -37 -41 -37h-5l-101 9q-152 0 -152 -150z" />
    <glyph glyph-name="GLiotbyus" unicode="&#x2c59;" horiz-adv-x="1656" 
d="M545 350q-96 0 -96 -126t86 -126q47 0 75 40t27 84q1 44 -23 86t-69 42zM474 834q-34 0 -236 -371q12 -14 30 -14h101q41 0 80 71l53 107q23 37 69 82q-63 125 -97 125zM598.5 614q-37.5 0 -70.5 -57q-27 -57 -26 -92q0 -57 89 -57t89 61q0 39 -22 92t-59.5 53zM1051 481
q0 35 -41 69t-82 34t-70 -29l-53 -66v-6q-4 -92 137 -92q43 0 76 27.5t33 62.5zM1378 434q-160 0 -159 -133q0 -166 122 -166q53 0 74 45t45 96q35 51 103 52q100 0 100 -72q-1 -96 -99 -177t-198 -81t-196 48t-111 138l-8 92q-10 66 -45 66q-51 -23 -72 -23q-21 -1 -64 15
t-65 16q-43 0 -43 -69l10 -91q0 -90 -72 -139t-158 -49t-142 50q-54 50 -54 132q0 29 21 72q18 49 18 72q0 35 -76 34l-30 -2l-121 -4q-82 0 -82 33q0 23 24 70l295 487h199l176 -319q18 -29 102 0q43 14 72 14l72 -8q41 0 45 139q82 172 330 172q109 0 187 -62t77 -171
q0 -76 -76 -76q-65 0 -87 15t-40 75q-35 111 -111 111q-117 0 -116 -174q0 -129 90 -130h170q20 0 20 -51t-51 -51h-3l-18 1z" />
    <glyph glyph-name="GLfita" unicode="&#x2c5a;" horiz-adv-x="1079" 
d="M569 137q61 0 93 96q24 68 24 153t-33 118h-170q-33 -39 -33 -118t23 -153q35 -96 96 -96zM572 870q-54 0 -85 -69q-49 -108 -18 -203q20 -43 49 -43h103q61 0 61 111q0 68 -25 127q-31 77 -85 77zM1102 451q0 -107 -80 -107q-54 0 -70 79t-59 79t-68 -125t-77 -225
q-80 -154 -180 -154q-161 0 -261 397q-20 106 -62.5 106.5t-60.5 -77.5t-69 -78q-80 0 -80 119q0 92 65 92l80 -4q92 0 146 102l84 189q59 102 157.5 102t157.5 -102q23 -47 43 -94.5t43 -94.5q55 -102 145 -102l80 4q45 0 60 -35q6 -16 6 -71z" />
    <glyph glyph-name="GLizhitsa" unicode="&#x2c5b;" horiz-adv-x="972" 
d="M524 176q0 111 -140 111t-140 -99q0 -46 48 -76t93 -30q139 0 139 94zM379 606q-68 0 -118 -42t-50 -105q0 -115 207 -115q139 0 139 121q0 141 -178 141zM389 879q-121 0 -121 -129q0 -98 107 -99q51 0 99 29t48 79t-41 85t-92 35zM860 168q-40 0 -74 18l-20 93
q-8 45 -74 45t-65 -54q0 -27 24 -45q16 -37 17 -67q0 -82 -84 -121t-182 -39q-97 0 -179 27q-123 39 -123 118q0 25 15 56q49 49 49 77q0 10 -60 72t-59 128q0 67 45 112q68 18 68 57q0 27 -37 55q-27 43 -27 68q0 82 80 130t170 48q324 0 324 -164q0 -31 -56 -112
q0 -23 68 -53t68 -99q0 -45 -27 -82v-16q0 -35 59 -47q119 -24 131 -29q68 -29 68 -96q-35 -80 -119 -80z" />
    <glyph glyph-name="GLshtapic2C5C" unicode="&#x2c5c;" horiz-adv-x="452" 
d="M410 496q0 -520 -211 -867q-72 -121 -115 -121q-31 0 -29 39q43 94 88 205q78 234 78 627q0 229 -14 338t-14 150q0 40 26 57q51 23 111 22q51 0 65.5 -198.5t14.5 -251.5z" />
    <glyph glyph-name="GLtrokuta" unicode="&#x2c5d;" horiz-adv-x="860" 
d="M807 0h-137l-2 362q-187 -118 -549 -362v918l549 -369v383l137 -2zM219 403v-210l328 210h-328zM219 504h336l-336 231v-231z" />
    <glyph glyph-name="GLlatinem" unicode="&#x2c5e;" horiz-adv-x="993" 
d="M729 860q-37 0 -91 -56t-54 -93l2 -713h-129l2 713q0 56 -23 105q-23 48 -67 48q-18 0 -35 -8q-63 -31 -87 -73t-24 -119l-2 -666h-131l2 649q0 76 29 117q6 8 28.5 24.5t61.5 45.5l108 79q70 41 123 41q70 0 142 -135q186 135 288 135q70 0 70 -131l-2 -825h-131l2 735
q0 127 -82 127z" />
    <glyph glyph-name="cyBEsuper" unicode="&#x2de0;" 
d="M-567 1180h139q96 0 96 47t-83 78t-152 36v-161zM-680 1135v448h412v-67q0 -74 -37 -74q-19 0 -29 32t-10 37q-25 33 -88 33h-135v-160q102 -10 202 -45q143 -49 144 -116q0 -41 -38 -65t-87 -23h-334z" />
    <glyph glyph-name="cyVEsuper" unicode="&#x2de1;" 
d="M-342 1205q0 30 -66 80t-98 58v-167h94q70 -1 70 29zM-348 1503q0 41 -74 41h-84v-145q47 0 96 31q62 32 62 73zM-217 1202q0 -66 -168 -65h-227v448h172q193 0 192 -84q0 -66 -213 -131q70 -25 157 -76t87 -92z" />
    <glyph glyph-name="cyGEsuper" unicode="&#x2de2;" 
d="M-211 1526q0 -111 -25 -111q-11 0 -32 23l-23 67q-10 27 -74 27h-143v-393h-106v442h372q31 0 31 -55z" />
    <glyph glyph-name="cyDEsuper" unicode="&#x2de3;" 
d="M-567 1448q-45 -81 -68 -119q-39 -74 -53 -127h276q-19 38 -155 246zM-801 1044q-39 0 -39 33v88q0 31 99 21q49 123 97 205t48 93t-27 38q-29 25 -28 34q0 27 63 52q16 -2 76 -72q53 -70 63 -90v2q49 -66 162 -262l66 4q45 0 45 -25q0 -57 -29 -114h-41q-43 0 -43 14
l21 80v2q-8 8 -43 8h-424l-13 -6v-16l6 -45q5 -44 -59 -44z" />
    <glyph glyph-name="cyZHEsuper" unicode="&#x2de4;" 
d="M-286 1141q-15 0 -27.5 13t-12.5 24v43q0 55 -57 106q-51 51 -111 51l-6 -8v-225h-102v229q-4 0 -12 4q-60 0 -109 -45q-51 -41 -51 -96v-61q0 -35 -41 -35q-68 0 -68 59q1 84 93 144t184 65v25q-62 0 -150 36t-88 81q0 46 70 46q12 0 55 -64t117 -65v123h102v-121
q4 -2 11 -2h4q57 0 100 66q47 66 61 65q63 0 64 -47q0 -14 -33 -47q-63 -53 -207 -69v-27h6q92 0 179 -61q100 -66 100 -152q0 -16 -27 -37q-29 -18 -44 -18z" />
    <glyph glyph-name="cyZEsuper" unicode="&#x2de5;" 
d="M-530 1372q0 20 10 24.5t33 4.5h71q58 -1 58 65t-55.5 66t-80.5 -64q-23 -51 -50 -51q-26 0 -39 5t-13 26q0 59 60 97t122 38t106 -32t44 -82t-45 -91q84 -32 84 -100t-60 -102q-47 -36 -111 -36t-110 23q-14 -47 -61 -47q-55 0 -55 66t57 65q18 -1 73 -25t72 -24
q88 0 88 78q0 70 -78 70l-75 -13q-45 0 -45 39z" />
    <glyph glyph-name="cyKAsuper" unicode="&#x2de6;" 
d="M-547 1589v-442h-98v442h98zM-209 1550q0 -18 -35 -69l-10 -6q-8 6 -22 28q-17 17 -31 17q-33 -20 -117 -111l-4 -12q8 -25 73 -97q65 -71 79 -77q15 12 45 22l10 -4l4 -6q-35 -47 -111 -90q-20 20 -101 109t-83 96q13 21 193 209q33 37 57 36q53 0 53 -45z" />
    <glyph glyph-name="cyELsuper" unicode="&#x2de7;" 
d="M-209 1149h-113l-192 301q-63 -49 -72.5 -155.5t-13.5 -135.5q-18 -18 -53 -14h-27l-14 6l-6 14v27q-2 68 51 158q55 86 119 123l-76 116h114z" />
    <glyph glyph-name="cyEMsuper" unicode="&#x2de8;" 
d="M-684 1143h-107v452h93q20 0 24 -10l70 -203q51 -150 121 -149q61 0 115 181t65 181h100v-452h-108v319q-78 -322 -170 -321q-96 0 -203 340v-338z" />
    <glyph glyph-name="cyENsuper" unicode="&#x2de9;" 
d="M-567 1139h-95v442h95v-104l254 -144v248h94v-442h-94v141l-254 152v-293z" />
    <glyph glyph-name="cyOsuper" unicode="&#x2dea;" 
d="M-494 1428q0 -62 41 -120t95 -87q47 27 47 108q0 142 -160 193q-23 -32 -23 -94zM-588 1353q0 74 47 148t119 109q193 -80 193 -242q0 -123 -189 -240q-59 39 -104 105q-66 74 -66 120z" />
    <glyph glyph-name="cyPEsuper" unicode="&#x2deb;" 
d="M-319 1135v403h-240v-403h-107v450h455v-450h-108z" />
    <glyph glyph-name="cyERsuper" unicode="&#x2dec;" 
d="M-319 1538q-29 0 -60 -53q-23 -51 -23 -84t23 -82q33 14 70 53q35 39 35 72q0 94 -45 94zM-444 1138q0 36 -29 120t-29 144t92 128q88 68 156 67q31 0 52 -38t22 -70q-1 -127 -189 -207q15 -49 15 -93t-39 -103t-86 -60q-18 0 -19 14q16 23 35 42.5t19 55.5z" />
    <glyph glyph-name="cyESsuper" unicode="&#x2ded;" 
d="M-586 1377q0 77 60 139q57 68 125 67q33 0 73 -18q49 -18 49 -48t-73 -49q-8 4 -16.5 15.5t-20.5 27.5q-16 29 -45 29q-74 0 -74 -104q0 -52 67 -148t117 -96q4 0 29 18q19 10 25 10h6l12 -3l8 -9q-44 -44 -141 -88q-13 0 -69 39t-87 78q-45 63 -45 140z" />
    <glyph glyph-name="cyTEsuper" unicode="&#x2dee;" 
d="M-233 1452q-16 0 -46 47q-33 47 -101 47t-69 -59v-354h-118v358q0 57 -78 57q-57 0 -91 -49t-54 -49t-19 16q0 92 14 115q8 4 25 4h532q33 0 33 -106q1 -27 -28 -27z" />
    <glyph glyph-name="cyHAsuper" unicode="&#x2def;" 
d="M-648 1130q-7 0 -14 7q4 23 22.5 47t47.5 61t78 103l-225 231h123l157 -164q131 168 185 168q41 0 41 -31q0 -16 -17 -49q-14 -39 -23 -39t-18 9q0 43 -12 43q-31 0 -129 -130l213 -219h-121l-145 150l-99 -135q-40 -53 -46.5 -56.5t-8.5 0.5t-9 4z" />
    <glyph glyph-name="cyTSEsuper" unicode="&#x2df0;" 
d="M-776 1137v450l112 2v-401h203v401h113v-401h129q35 0 35 -51q0 -106 -68 -107q-63 0 -65 10l2 13h-2l34 71q0 12 -30 13h-463z" />
    <glyph glyph-name="cyCHEsuper" unicode="&#x2df1;" 
d="M-666 1589q57 0 58 -41q0 -18 -12 -44t-13 -46q0 -38 61.5 -52.5t89.5 -14.5t84 19t56 50q0 20 -25 45q-23 29 -22 41q0 43 57 43q35 0 60.5 -22.5t25.5 -57.5q0 -102 -141 -145q-15 0 -47 -4l-2 -4l-4 -10l10 -46v-170h-117v170l8 37l-6 17q-113 43 -127 51
q-72 41 -71 100q0 33 23.5 58.5t53.5 25.5z" />
    <glyph glyph-name="cySHAsuper" unicode="&#x2df2;" 
d="M-850 1135v450h100v-399h191v399h100v-399h191v399h100v-450h-682z" />
    <glyph glyph-name="cySHCHAsuper" unicode="&#x2df3;" 
d="M-473 1165v-127h-100v127h-277v430h102v-374h175v374h100v-374h178v374h102v-430h-280z" />
    <glyph glyph-name="cyFITAsuper" unicode="&#x2df4;" 
d="M-414 1313v20t-4 23h-168q35 -104 125 -154q47 29 47 111zM-596 1413v-18h164q-37 79 -139 110q-25 -29 -25 -92zM-256 1290v66h-74q0 -145 -188 -244q-70 52 -111 107q-61 76 -61 137h-74v-72h-104v111h184q27 131 162 198q160 -63 188 -198h182v-105h-104z" />
    <glyph glyph-name="cyESTEsuper" unicode="&#x2df5;" 
d="M-657 1145q-59 0 -109 78q-39 56 -39 130.5t49 147.5q51 82 121 82q51 0 70 -100l-72 -53q-3 45 -33 88q-63 -45 -63 -136q0 -121 92 -157l78 96q0 -60 -70 -170q-18 -6 -24 -6zM-240 1518h-43v-340q0 -41 -45 -41t-51 43v338h-55q-20 0 -21 -60h-49v84q0 35 31 35h283
q29 0 28 -31v-88h-47q-6 53 -18 58q-10 2 -13 2z" />
    <glyph glyph-name="cyAsuper" unicode="&#x2df6;" 
d="M-672 1253q0 -39 51 -39q19 0 83 26t71 42l-96 123q-109 -90 -109 -152zM-672 1126q-88 0 -88 90t168 222l-117 149h136l354 -452h-133l-94 114q-138 -123 -226 -123z" />
    <glyph glyph-name="cyEsuper" unicode="&#x2df7;" 
d="M-270 1534q0 -20 -23 -34t-39 -13q-16 0 -44 35t-42 34q-33 0 -51 -45q-14 -31 -14 -60t6 -62q12 -39 22 -39q25 0 93 30t98 29q10 0 24 -23q15 -16 15 -30q0 -20 -76 -39q-4 4 -15 21t-22 18q-43 0 -106 -37q0 -20 55 -74q57 -51 74 -53q35 26 59 33l8 -2l6 -11
q-41 -44 -129 -96q-5 0 -37 19q-156 106 -155 245q0 78 51 144q51 74 127 73q27 0 70 -18q45 -25 45 -45z" />
    <glyph glyph-name="cyDJERVsuper" unicode="&#x2df8;" 
d="M-287 1139q-88 0 -88 147q0 63 -121 64q-20 0 -53 -25q-33 -18 -33 -45v-137h-102v319h-113v43h113v90h102v-90h133v-43h-133v-92q47 41 148 41t141 -59q12 -20 19 -107q6 -59 41 -59l40 8q14 0 15 -12q0 -43 -109 -43z" />
    <glyph glyph-name="cyMONUKsuper" unicode="&#x2df9;" 
d="M-518 1360q-33 0 -61 -31q-63 -69 16 -137q41 -35 84 -35q115 0 114 70q0 39 -59 88q-61 45 -94 45zM-610 1571q0 -94 174 -146q39 37 43 129t49 91q51 -1 51 -97t-98 -149q100 -33 100 -131q-1 -74 -67 -114t-139 -40t-137 40t-64 111t112 119q-115 72 -114 140
q0 139 98 139q-8 -54 -8 -92z" />
    <glyph glyph-name="cyYATsuper" unicode="&#x2dfa;" 
d="M-463 1178h92q80 0 80 39q0 64 -172 129v-168zM-571 1135v335h-115q-41 0 -49 -38q-12 -35 -27 -35q-41 0 -41 82q0 31 21 30h211v78h108v-78h219q35 0 35 -34q0 -19 -16 -57t-35 -38q-14 0 -25 45q-12 45 -59 45h-119v-77q95 -26 170 -72q117 -66 117 -119
q0 -68 -94 -67h-301z" />
    <glyph glyph-name="cyYUsuper" unicode="&#x2dfb;" 
d="M-246 1321q0 55 -57 125t-113 70q-31 0 -30 -107q0 -52 49 -119q49 -82 94 -82q27 0 42 50.5t15 62.5zM-637 1341v-202h-106v442h106v-201h117q0 94 123 193q27 20 41 20t59 -26q117 -72 117 -207q0 -53 -68 -141t-114 -89q-31 0 -95 91q-63 82 -63 120h-117z" />
    <glyph glyph-name="cyYOTAsuper" unicode="&#x2dfc;" 
d="M-758 1401v-262h-106v442h106v-141h334l-111 141h121l346 -442h-120l-95 114q-139 -123 -224 -123t-85 78q0 47 43 109q43 53 86 84h-295zM-516 1251q0 -47 57 -47q17 0 86 28t74 50l-100 129q-117 -94 -117 -160z" />
    <glyph glyph-name="cyYUSsuper" unicode="&#x2dfd;" 
d="M-463 1477q-78 -51 -139 -142h293q-74 81 -154 142zM-389 1288v-158h-129v158h-107q-6 -14 -24 -102q-12 -55 -69.5 -55.5t-57.5 43.5q0 57 100 174t164 163l-96 80h172q283 -231 440 -461h-137q-61 88 -131 158h-125z" />
    <glyph glyph-name="cyBYUSsuper" unicode="&#x2dfe;" 
d="M-545 1561q-16 0 -50 -1t-50 -1q14 -6 51 -42t90 -69l137 111h-6t-4 1l1 1h-169zM-432 1130h-129v256q-39 -18 -70 -37.5t-53 -60.5l-68 -160q-32 5 -69 23t-37 47t30 55.5t76 68.5q96 88 187 116q-45 18 -84 52t-76 56q-8 6 -8 21q0 27 22 26h414q35 0 35 -26
q0 -10 -34 -42t-134 -89q186 -36 237.5 -134t51.5 -106q-1 -20 -49 -45t-56 -27q-16 16 -57 136q-18 53 -50 77.5t-79 44.5v-252z" />
    <glyph glyph-name="cyIOTBYUSsuper" unicode="&#x2dff;" 
d="M-381 1561q-16 0 -50 -1t-50 -1q14 -6 51 -42t90 -69l137 111h-6t-4 1l1 1h-169zM-268 1130h-129v256q-39 -18 -70 -37.5t-53 -60.5l-68 -160q-31 5 -69 23q-37 18 -37 47t30.5 55.5t83.5 75.5l35 31h-217v-232h-121v461h121v-182h287q33 18 74 31q-45 18 -84 52t-76 56
q-8 6 -8 21q0 27 22 26h414q35 0 35 -26q0 -10 -34 -42t-134 -89q186 -36 237.5 -134t51.5 -106q0 -20 -43 -41l-62 -31q-16 16 -57 136q-18 53 -50 77.5t-79 44.5v-252z" />
    <glyph glyph-name="rightanglesubstitution" unicode="&#x2e00;" horiz-adv-x="862" 
d="M786 1632v-123h-462v-761h-160v884h622z" />
    <glyph glyph-name="rightanglesubstitutiondotted" unicode="&#x2e01;" horiz-adv-x="862" 
d="M786 1632v-123h-462v-761h-160v884h622zM690 1216q0 -44 -30.5 -76t-75.5 -32t-77 32t-32 76t31 74.5t75 30.5t76.5 -30.5t32.5 -74.5z" />
    <glyph glyph-name="leftsubstitution" unicode="&#x2e02;" horiz-adv-x="862" 
d="M324 748h-160v655l495 278l70 -131l-405 -225v-577z" />
    <glyph glyph-name="rightsubstitution" unicode="&#x2e03;" horiz-adv-x="862" 
d="M680 748h-162v577l-403 225l69 131l496 -278v-655z" />
    <glyph glyph-name="leftsubstitutiondotted" unicode="&#x2e04;" horiz-adv-x="862" 
d="M324 748h-160v655l495 278l70 -131l-405 -225v-577zM690 1146q0 -44 -30.5 -76t-75.5 -32t-77 32t-32 76t31 74.5t75 30.5t76.5 -30.5t32.5 -74.5z" />
    <glyph glyph-name="rightsubstitutiondotted" unicode="&#x2e05;" horiz-adv-x="862" 
d="M698 748h-159v577l-406 225l72 131l493 -278v-655zM391 1146q0 -44 -31.5 -76t-75.5 -32t-76 32t-32 76t31 74.5t75 30.5t76.5 -30.5t32.5 -74.5z" />
    <glyph glyph-name="raisedinterpolation" unicode="&#x2e06;" horiz-adv-x="1275" 
d="M1178 1632v-123h-463v-761h-160v761h-465v123h1088z" />
    <glyph glyph-name="raisedinterpolationdotted" unicode="&#x2e07;" horiz-adv-x="1275" 
d="M1081 1216q0 -44 -31.5 -76t-75.5 -32t-76 32t-32 76t31 74.5t75 30.5t76.5 -30.5t32.5 -74.5zM1178 1632v-123h-463v-761h-160v761h-465v123h1088z" />
    <glyph glyph-name="transpositiondotted" unicode="&#x2e08;" horiz-adv-x="1204" 
d="M1120 1136q0 -44 -30.5 -76t-75.5 -32t-77 32t-32 76t31 74.5t75 30.5t76.5 -30.5t32.5 -74.5zM1112 1503q0 -31 -17.5 -62.5t-63.5 -30.5t-70.5 13.5t-22.5 44.5q0 68 -111 68q-53 0 -102 -52.5t-49 -146.5v-352q0 -198 -121 -264t-190 -68q-123 2 -205 41t-82 125
q0 29 17.5 61.5t74.5 32.5q87 -10 85 -55q-2 -43 35.5 -57.5t69.5 -14.5q57 0 106.5 52.5t49.5 146.5l-2 352q0 125 88 225t225 107q285 -9 285 -166z" />
    <glyph glyph-name="lefttransposition" unicode="&#x2e09;" horiz-adv-x="1204" 
d="M1112 1503q0 -31 -17.5 -62.5t-63.5 -30.5t-70.5 13.5t-22.5 44.5q0 68 -111 68q-53 0 -102 -52.5t-49 -146.5v-352q0 -198 -121 -264t-190 -68q-123 2 -205 41t-82 125q0 29 17.5 61.5t74.5 32.5q87 -10 85 -55q-2 -43 35.5 -57.5t69.5 -14.5q57 0 106.5 52.5
t49.5 146.5l-2 352q0 125 88 225t225 107q285 -9 285 -166z" />
    <glyph glyph-name="righttransposition" unicode="&#x2e0a;" horiz-adv-x="1204" 
d="M827 786q113 0 110 72q-2 46 85 55q90 0 90 -90t-81 -129t-204 -41q-134 4 -229 113q-84 90 -84 219l2 352q0 95 -50 147t-101 52q-111 0 -111 -68q2 -33 -23.5 -45t-71.5 -13t-63.5 31t-17.5 62q0 157 287 166q135 -8 223 -107q88 -100 88 -225v-352q0 -98 45 -141
q54 -58 106 -58z" />
    <glyph glyph-name="raisedsquare" unicode="&#x2e0b;" horiz-adv-x="1335" 
d="M324 819h694v690h-694v-690zM164 698v934h1014v-934h-1014z" />
    <glyph glyph-name="leftraisedomission" unicode="&#x2e0c;" horiz-adv-x="937" 
d="M844 913l-119 -104l-631 766l123 106z" />
    <glyph glyph-name="rightraisedomission" unicode="&#x2e0d;" horiz-adv-x="937" 
d="M721 1681l123 -106l-631 -766l-119 104z" />
    <glyph glyph-name="coroniseditorial" unicode="&#x2e0e;" horiz-adv-x="2048" 
d="M903 647q0 -53 34 -86t87 -33t87 33t34 86h-242zM1145 752q0 53 -34 86.5t-87 33.5t-87 -33.5t-34 -86.5h242zM340 1116h1368v-104h-1368v104zM340 387h1368v-102h-1368v102zM903 -141q0 39 15 61h-318v105h848v-105h-324q61 -61 62 -164q0 -164 -144 -266
q-77 -57 -100 -57t-22 22q0 13 24 29q154 114 154 237q0 59 -31 60l-74 -17q-39 0 -64.5 28t-25.5 67zM1126 1553q0 -46 -26 -72h348v-105h-848v105h324q-78 57 -78 182q0 164 139 264q78 58 101 58q24 0 24 -23q0 -10 -10 -20q-84 -51 -125 -117t-41 -127t29 -62
q13 0 41 13q20 4 46 4t51 -27t25 -73zM823 752q0 51 23.5 101t73.5 75q50 24 103 24q52 0 102.5 -23.5t74.5 -73.5t25 -103h743v-105h-743q0 -51 -23.5 -101t-75.5 -74t-102.5 -23.5t-101 24t-74.5 73.5t-25 101h-743v105h743z" />
    <glyph glyph-name="paragraphos" unicode="&#x2e0f;" horiz-adv-x="2353" 
d="M80 -143h2158v-115h-2158v115z" />
    <glyph glyph-name="paragraphosforked" unicode="&#x2e10;" horiz-adv-x="2353" 
d="M80 -143h2158v-115h-1456l-614 -397l-62 98l465 299h-491v115z" />
    </font>
</defs>
</svg>
