<?xml version="1.0" encoding="UTF-8"?>
<!DOCTYPE svg PUBLIC "-//W3C//DTD SVG 1.1//EN" "http://www.w3.org/Graphics/SVG/1.1/DTD/svg11.dtd">
<svg xmlns="http://www.w3.org/2000/svg" height="100%">
    <!-- Diagonals -->    
    <line x1="4" y1="3" x2="12" y2="5" stroke="purple" stroke-width="1"/> 
    <line x1="4" y1="5" x2="12" y2="7" stroke="purple" stroke-width="1"/> 
    <line x1="4" y1="7" x2="12" y2="9" stroke="purple" stroke-width="1"/> 
    <line x1="4" y1="9" x2="12" y2="11" stroke="purple" stroke-width="1"/> 
    <line x1="4" y1="11" x2="12" y2="1" stroke="purple" stroke-width="1"/> 
    <line x1="4" y1="15" x2="12" y2="3" stroke="purple" stroke-width="1"/> 
    <!-- Horizontal separators -->
    <line x1="0" y1="2" x2="4" y2="2" stroke="black" stroke-width="1" stroke-linecap="square"/> 
    <line x1="0" y1="4" x2="4" y2="4" stroke="black" stroke-width="1" stroke-linecap="square"/> 
    <line x1="0" y1="6" x2="4" y2="6" stroke="black" stroke-width="1" stroke-linecap="square"/> 
    <line x1="0" y1="8" x2="4" y2="8" stroke="black" stroke-width="1" stroke-linecap="square"/> 
    <line x1="0" y1="10" x2="4" y2="10" stroke="black" stroke-width="1" stroke-linecap="square"/> 
    <line x1="0" y1="12" x2="4" y2="12" stroke="black" stroke-width="1" stroke-linecap="square"/> 
    <line x1="0" y1="14" x2="4" y2="14" stroke="black" stroke-width="1" stroke-linecap="square"/> 
    <line x1="12" y1="2" x2="16" y2="2" stroke="black" stroke-width="1" stroke-linecap="square"/> 
    <line x1="12" y1="4" x2="16" y2="4" stroke="black" stroke-width="1" stroke-linecap="square"/> 
    <line x1="12" y1="6" x2="16" y2="6" stroke="black" stroke-width="1" stroke-linecap="square"/> 
    <line x1="12" y1="8" x2="16" y2="8" stroke="black" stroke-width="1" stroke-linecap="square"/> 
    <line x1="12" y1="10" x2="16" y2="10" stroke="black" stroke-width="1" stroke-linecap="square"/> 
    <line x1="12" y1="12" x2="16" y2="12" stroke="black" stroke-width="1" stroke-linecap="square"/> 
    <line x1="12" y1="14" x2="16" y2="14" stroke="black" stroke-width="1" stroke-linecap="square"/> 
    <!-- Interior verticals -->
    <line x1="4" y1="0" x2="4" y2="16" stroke="black" stroke-width="1" stroke-linecap="square"/> 
    <line x1="12" y1="0" x2="12" y2="16" stroke="black" stroke-width="1" stroke-linecap="square"/> 
    <!-- Border -->
    <line x1="0" y1="0" x2="0" y2="16" stroke="black" stroke-width="1" stroke-linecap="square"/> 
    <line x1="0" y1="16" x2="16" y2="16" stroke="black" stroke-width="1" stroke-linecap="square"/> 
    <line x1="0" y1="0" x2="16" y2="0" stroke="black" stroke-width="1" stroke-linecap="square"/> 
    <line x1="16" y1="0" x2="16" y2="16" stroke="black" stroke-width="1" stroke-linecap="square"/> 
</svg>